G04 #@! TF.GenerationSoftware,KiCad,Pcbnew,7.0.0-1.fc37*
G04 #@! TF.CreationDate,2023-02-19T18:56:11+00:00*
G04 #@! TF.ProjectId,Agnus,41676e75-732e-46b6-9963-61645f706362,rev?*
G04 #@! TF.SameCoordinates,Original*
G04 #@! TF.FileFunction,Paste,Top*
G04 #@! TF.FilePolarity,Positive*
%FSLAX46Y46*%
G04 Gerber Fmt 4.6, Leading zero omitted, Abs format (unit mm)*
G04 Created by KiCad (PCBNEW 7.0.0-1.fc37) date 2023-02-19 18:56:11*
%MOMM*%
%LPD*%
G01*
G04 APERTURE LIST*
G04 Aperture macros list*
%AMRoundRect*
0 Rectangle with rounded corners*
0 $1 Rounding radius*
0 $2 $3 $4 $5 $6 $7 $8 $9 X,Y pos of 4 corners*
0 Add a 4 corners polygon primitive as box body*
4,1,4,$2,$3,$4,$5,$6,$7,$8,$9,$2,$3,0*
0 Add four circle primitives for the rounded corners*
1,1,$1+$1,$2,$3*
1,1,$1+$1,$4,$5*
1,1,$1+$1,$6,$7*
1,1,$1+$1,$8,$9*
0 Add four rect primitives between the rounded corners*
20,1,$1+$1,$2,$3,$4,$5,0*
20,1,$1+$1,$4,$5,$6,$7,0*
20,1,$1+$1,$6,$7,$8,$9,0*
20,1,$1+$1,$8,$9,$2,$3,0*%
G04 Aperture macros list end*
%ADD10R,0.700000X0.200000*%
%ADD11RoundRect,0.187500X0.300000X0.237500X-0.300000X0.237500X-0.300000X-0.237500X0.300000X-0.237500X0*%
%ADD12RoundRect,0.187500X-0.250000X-0.237500X0.250000X-0.237500X0.250000X0.237500X-0.250000X0.237500X0*%
%ADD13RoundRect,0.187500X0.250000X0.237500X-0.250000X0.237500X-0.250000X-0.237500X0.250000X-0.237500X0*%
%ADD14RoundRect,0.187500X-0.300000X-0.237500X0.300000X-0.237500X0.300000X0.237500X-0.300000X0.237500X0*%
%ADD15R,0.200000X0.700000*%
%ADD16R,1.932000X0.408000*%
%ADD17R,0.550000X1.460000*%
%ADD18RoundRect,0.187500X0.237500X-0.300000X0.237500X0.300000X-0.237500X0.300000X-0.237500X-0.300000X0*%
G04 APERTURE END LIST*
D10*
X128015999Y-72508999D03*
X128015999Y-72008999D03*
X128015999Y-71508999D03*
X128015999Y-71008999D03*
X124915999Y-71008999D03*
X124915999Y-71508999D03*
X124915999Y-72008999D03*
X124915999Y-72508999D03*
D11*
X118083500Y-39319200D03*
X116358500Y-39319200D03*
D12*
X100687500Y-38354000D03*
X102512500Y-38354000D03*
D10*
X121665999Y-72381999D03*
X121665999Y-71881999D03*
X121665999Y-71381999D03*
X121665999Y-70881999D03*
X118565999Y-70881999D03*
X118565999Y-71381999D03*
X118565999Y-71881999D03*
X118565999Y-72381999D03*
D13*
X115720500Y-73152000D03*
X113895500Y-73152000D03*
D11*
X135228500Y-36449000D03*
X133503500Y-36449000D03*
D14*
X119253500Y-75188000D03*
X120978500Y-75188000D03*
D11*
X118083500Y-45720000D03*
X116358500Y-45720000D03*
X118083500Y-64770000D03*
X116358500Y-64770000D03*
D15*
X101714999Y-40486999D03*
X101214999Y-40486999D03*
X100714999Y-40486999D03*
X100214999Y-40486999D03*
X100214999Y-43586999D03*
X100714999Y-43586999D03*
X101214999Y-43586999D03*
X101714999Y-43586999D03*
D14*
X116358500Y-53467000D03*
X118083500Y-53467000D03*
X165126500Y-37211000D03*
X166851500Y-37211000D03*
X125730500Y-75188000D03*
X127455500Y-75188000D03*
D16*
X121284999Y-39369999D03*
X121284999Y-40639999D03*
X121284999Y-41909999D03*
X121284999Y-43179999D03*
X121284999Y-44449999D03*
X121284999Y-45719999D03*
X121284999Y-46989999D03*
X121284999Y-48259999D03*
X121284999Y-49529999D03*
X121284999Y-50799999D03*
X121284999Y-52069999D03*
X121284999Y-53339999D03*
X121284999Y-54609999D03*
X121284999Y-55879999D03*
X121284999Y-57149999D03*
X121284999Y-58419999D03*
X121284999Y-59689999D03*
X121284999Y-60959999D03*
X121284999Y-62229999D03*
X121284999Y-63499999D03*
X121284999Y-64769999D03*
X131444999Y-64769999D03*
X131444999Y-63499999D03*
X131444999Y-62229999D03*
X131444999Y-60959999D03*
X131444999Y-59689999D03*
X131444999Y-58419999D03*
X131444999Y-57149999D03*
X131444999Y-55879999D03*
X131444999Y-54609999D03*
X131444999Y-53339999D03*
X131444999Y-52069999D03*
X131444999Y-50799999D03*
X131444999Y-49529999D03*
X131444999Y-48259999D03*
X131444999Y-46989999D03*
X131444999Y-45719999D03*
X131444999Y-44449999D03*
X131444999Y-43179999D03*
X131444999Y-41909999D03*
X131444999Y-40639999D03*
X131444999Y-39369999D03*
D17*
X116270999Y-58499999D03*
X117220999Y-58499999D03*
X118170999Y-58499999D03*
X118170999Y-55799999D03*
X116270999Y-55799999D03*
D11*
X150925700Y-72593200D03*
X149200700Y-72593200D03*
D18*
X104521000Y-42772500D03*
X104521000Y-41047500D03*
M02*
