M48
; DRILL file {KiCad 7.0.0-1.fc37} date Sun 19 Feb 2023 18:56:13 GMT
; FORMAT={-:-/ absolute / inch / decimal}
; #@! TF.CreationDate,2023-02-19T18:56:13+00:00
; #@! TF.GenerationSoftware,Kicad,Pcbnew,7.0.0-1.fc37
; #@! TF.FileFunction,Plated,1,4,PTH
FMAT,2
INCH
; #@! TA.AperFunction,Plated,PTH,ViaDrill
T1C0.0157
; #@! TA.AperFunction,Plated,PTH,ComponentDrill
T2C0.0276
; #@! TA.AperFunction,Plated,PTH,ComponentDrill
T3C0.0315
; #@! TA.AperFunction,Plated,PTH,ComponentDrill
T4C0.0394
%
G90
G05
T1
X3.8Y-1.5461
X3.8Y-1.5961
X3.8Y-1.6461
X3.8Y-1.6961
X3.8Y-1.7461
X3.8Y-1.7961
X3.8Y-1.8461
X3.8Y-1.8961
X3.8Y-1.995
X3.8Y-2.0461
X3.8Y-2.0961
X3.8Y-2.1461
X3.8Y-2.1961
X3.8Y-2.2461
X3.8Y-2.2961
X3.8Y-2.3461
X3.8Y-2.3961
X3.8Y-2.4461
X3.8Y-2.4961
X3.8Y-2.5461
X3.895Y-1.594
X3.9561Y-1.39
X4.0061Y-1.39
X4.0359Y-1.51
X4.0561Y-1.39
X4.1061Y-1.39
X4.1149Y-1.6187
X4.1561Y-1.39
X4.2061Y-1.39
X4.2561Y-1.39
X4.2561Y-2.7
X4.3061Y-1.39
X4.3061Y-2.7
X4.3561Y-1.39
X4.3561Y-2.7
X4.4061Y-1.39
X4.4061Y-2.7
X4.4561Y-2.7
X4.5061Y-2.7
X4.55Y-2.575
X4.565Y-2.7871
X4.5785Y-2.365
X4.61Y-2.4713
X4.615Y-2.365
X4.64Y-2.45
X4.649Y-1.548
X4.665Y-2.3713
X4.675Y-2.065
X4.695Y-1.645
X4.695Y-2.96
X4.7Y-2.35
X4.71Y-2.15
X4.805Y-1.395
X4.85Y-2.2713
X4.85Y-2.44
X4.855Y-1.55
X4.855Y-1.615
X4.855Y-2.3713
X4.86Y-1.755
X4.86Y-1.9
X4.86Y-1.95
X4.86Y-2.0
X4.88Y-2.4713
X4.88Y-2.5446
X4.9178Y-1.6228
X4.95Y-2.96
X4.975Y-1.4392
X4.975Y-2.17
X5.005Y-2.25
X5.11Y-1.9961
X5.11Y-2.0461
X5.11Y-2.0961
X5.11Y-2.1461
X5.25Y-2.12
X5.255Y-2.92
T2
X5.455Y-2.94
X5.505Y-2.94
X5.555Y-2.94
X5.605Y-2.94
T3
X5.32Y-1.55
X5.32Y-1.65
X5.32Y-1.75
X5.32Y-1.85
X5.32Y-1.95
X5.32Y-2.05
X5.32Y-2.15
X5.32Y-2.25
X5.32Y-2.35
X5.32Y-2.45
X5.32Y-2.55
X5.42Y-1.45
X5.42Y-1.55
X5.42Y-1.65
X5.42Y-1.75
X5.42Y-1.85
X5.42Y-1.95
X5.42Y-2.05
X5.42Y-2.15
X5.42Y-2.25
X5.42Y-2.35
X5.42Y-2.45
X5.42Y-2.55
X5.42Y-2.65
X5.52Y-1.45
X5.52Y-1.55
X5.52Y-2.55
X5.52Y-2.65
X5.62Y-1.45
X5.62Y-1.55
X5.62Y-2.55
X5.62Y-2.65
X5.72Y-1.45
X5.72Y-1.55
X5.72Y-2.55
X5.72Y-2.65
X5.82Y-1.45
X5.82Y-1.55
X5.82Y-2.55
X5.82Y-2.65
X5.92Y-1.45
X5.92Y-1.55
X5.92Y-2.55
X5.92Y-2.65
X6.02Y-1.45
X6.02Y-1.55
X6.02Y-2.55
X6.02Y-2.65
X6.12Y-1.45
X6.12Y-1.55
X6.12Y-2.55
X6.12Y-2.65
X6.22Y-1.45
X6.22Y-1.55
X6.22Y-2.55
X6.22Y-2.65
X6.32Y-1.45
X6.32Y-1.55
X6.32Y-2.55
X6.32Y-2.65
X6.42Y-1.45
X6.42Y-1.55
X6.42Y-1.65
X6.42Y-1.75
X6.42Y-1.85
X6.42Y-1.95
X6.42Y-2.05
X6.42Y-2.15
X6.42Y-2.25
X6.42Y-2.35
X6.42Y-2.45
X6.42Y-2.55
X6.42Y-2.65
X6.52Y-1.55
X6.52Y-1.65
X6.52Y-1.75
X6.52Y-1.85
X6.52Y-1.95
X6.52Y-2.05
X6.52Y-2.15
X6.52Y-2.25
X6.52Y-2.35
X6.52Y-2.45
X6.52Y-2.55
T4
X4.36Y-2.88
X4.36Y-2.98
X6.06Y-2.858
X6.06Y-2.958
T0
M30
