G04 #@! TF.GenerationSoftware,KiCad,Pcbnew,7.0.0-1.fc37*
G04 #@! TF.CreationDate,2023-02-19T18:56:11+00:00*
G04 #@! TF.ProjectId,Agnus,41676e75-732e-46b6-9963-61645f706362,rev?*
G04 #@! TF.SameCoordinates,Original*
G04 #@! TF.FileFunction,Copper,L2,Inr*
G04 #@! TF.FilePolarity,Positive*
%FSLAX46Y46*%
G04 Gerber Fmt 4.6, Leading zero omitted, Abs format (unit mm)*
G04 Created by KiCad (PCBNEW 7.0.0-1.fc37) date 2023-02-19 18:56:11*
%MOMM*%
%LPD*%
G01*
G04 APERTURE LIST*
G04 #@! TA.AperFunction,ComponentPad*
%ADD10R,1.000000X1.000000*%
G04 #@! TD*
G04 #@! TA.AperFunction,ComponentPad*
%ADD11O,1.000000X1.000000*%
G04 #@! TD*
G04 #@! TA.AperFunction,ComponentPad*
%ADD12R,1.700000X1.700000*%
G04 #@! TD*
G04 #@! TA.AperFunction,ComponentPad*
%ADD13O,1.700000X1.700000*%
G04 #@! TD*
G04 #@! TA.AperFunction,ComponentPad*
%ADD14R,1.422400X1.422400*%
G04 #@! TD*
G04 #@! TA.AperFunction,ComponentPad*
%ADD15C,1.422400*%
G04 #@! TD*
G04 #@! TA.AperFunction,ViaPad*
%ADD16C,0.800000*%
G04 #@! TD*
G04 #@! TA.AperFunction,Conductor*
%ADD17C,0.127000*%
G04 #@! TD*
G04 APERTURE END LIST*
D10*
X142366999Y-74675999D03*
D11*
X141096999Y-74675999D03*
X139826999Y-74675999D03*
X138556999Y-74675999D03*
D12*
X110743999Y-75691999D03*
D13*
X110743999Y-73151999D03*
D12*
X153923999Y-75133199D03*
D13*
X153923999Y-72593199D03*
D14*
X135127999Y-52069999D03*
D15*
X137668000Y-52070000D03*
X135128000Y-49530000D03*
X137668000Y-49530000D03*
X135128000Y-46990000D03*
X137668000Y-46990000D03*
X135128000Y-44450000D03*
X137668000Y-44450000D03*
X135128000Y-41910000D03*
X137668000Y-41910000D03*
X135128000Y-39370000D03*
X137668000Y-36830000D03*
X137668000Y-39370000D03*
X140208000Y-36830000D03*
X140208000Y-39370000D03*
X142748000Y-36830000D03*
X142748000Y-39370000D03*
X145288000Y-36830000D03*
X145288000Y-39370000D03*
X147828000Y-36830000D03*
X147828000Y-39370000D03*
X150368000Y-36830000D03*
X150368000Y-39370000D03*
X152908000Y-36830000D03*
X152908000Y-39370000D03*
X155448000Y-36830000D03*
X155448000Y-39370000D03*
X157988000Y-36830000D03*
X157988000Y-39370000D03*
X160528000Y-36830000D03*
X160528000Y-39370000D03*
X163068000Y-36830000D03*
X165608000Y-39370000D03*
X163068000Y-39370000D03*
X165608000Y-41910000D03*
X163068000Y-41910000D03*
X165608000Y-44450000D03*
X163068000Y-44450000D03*
X165608000Y-46990000D03*
X163068000Y-46990000D03*
X165608000Y-49530000D03*
X163068000Y-49530000D03*
X165608000Y-52070000D03*
X163068000Y-52070000D03*
X165608000Y-54610000D03*
X163068000Y-54610000D03*
X165608000Y-57150000D03*
X163068000Y-57150000D03*
X165608000Y-59690000D03*
X163068000Y-59690000D03*
X165608000Y-62230000D03*
X163068000Y-62230000D03*
X165608000Y-64770000D03*
X163068000Y-67310000D03*
X163068000Y-64770000D03*
X160528000Y-67310000D03*
X160528000Y-64770000D03*
X157988000Y-67310000D03*
X157988000Y-64770000D03*
X155448000Y-67310000D03*
X155448000Y-64770000D03*
X152908000Y-67310000D03*
X152908000Y-64770000D03*
X150368000Y-67310000D03*
X150368000Y-64770000D03*
X147828000Y-67310000D03*
X147828000Y-64770000D03*
X145288000Y-67310000D03*
X145288000Y-64770000D03*
X142748000Y-67310000D03*
X142748000Y-64770000D03*
X140208000Y-67310000D03*
X140208000Y-64770000D03*
X137668000Y-67310000D03*
X135128000Y-64770000D03*
X137668000Y-64770000D03*
X135128000Y-62230000D03*
X137668000Y-62230000D03*
X135128000Y-59690000D03*
X137668000Y-59690000D03*
X135128000Y-57150000D03*
X137668000Y-57150000D03*
X135128000Y-54610000D03*
X137668000Y-54610000D03*
D16*
X119253000Y-75184000D03*
X122047000Y-35433000D03*
X118083500Y-39319200D03*
X125730000Y-75184000D03*
X118745000Y-52451000D03*
X104517335Y-41114129D03*
X115570000Y-65405000D03*
X98933000Y-40487011D03*
X133477000Y-74168000D03*
X96520000Y-50673000D03*
X119253000Y-41783000D03*
X102512500Y-38354000D03*
X96520000Y-41812000D03*
X96520000Y-40542000D03*
X115951000Y-70792000D03*
X123444000Y-49530000D03*
X123444000Y-44577000D03*
X129794000Y-53242000D03*
X123444000Y-50800000D03*
X123444000Y-48260000D03*
X124913386Y-41220386D03*
X129794000Y-54512000D03*
X123317000Y-41021000D03*
X119634000Y-54610000D03*
X111916000Y-35306000D03*
X109376000Y-35306000D03*
X106836000Y-35306000D03*
X104296000Y-35306000D03*
X101756000Y-35306000D03*
X126365000Y-36556011D03*
X123317000Y-39370000D03*
X110646000Y-35306000D03*
X108106000Y-35306000D03*
X105566000Y-35306000D03*
X103026000Y-35306000D03*
X100486000Y-35306000D03*
X96520000Y-43082000D03*
X96520000Y-45622000D03*
X96520000Y-48162000D03*
X118491000Y-60231749D03*
X96520000Y-53242000D03*
X96520000Y-55782000D03*
X117094903Y-62770846D03*
X96520000Y-58322000D03*
X123952000Y-62771749D03*
X123317000Y-60231749D03*
X96520000Y-60862000D03*
X96520000Y-63402000D03*
X96520000Y-39272000D03*
X96520000Y-44352000D03*
X96520000Y-46892000D03*
X119380000Y-59690000D03*
X96520000Y-51972000D03*
X117856000Y-62230000D03*
X96520000Y-54512000D03*
X123952000Y-64632596D03*
X96520000Y-57052000D03*
X96520000Y-59592000D03*
X123190000Y-61976000D03*
X96520000Y-62132000D03*
X123190000Y-57691749D03*
X96520000Y-64672000D03*
X109376000Y-68580000D03*
X111916000Y-68580000D03*
X114456000Y-68580000D03*
X108106000Y-68580000D03*
X110646000Y-68580000D03*
X113186000Y-68580000D03*
X117221000Y-60071000D03*
X116294497Y-60071000D03*
X126365000Y-55118000D03*
X129794000Y-51972000D03*
X129794000Y-50702000D03*
X127127000Y-57150000D03*
X133350000Y-53848000D03*
D17*
X117221000Y-60071000D02*
X117983000Y-60833000D01*
X161429211Y-64396705D02*
X161429211Y-66408789D01*
X161429211Y-66408789D02*
X160528000Y-67310000D01*
X117983000Y-60833000D02*
X157865506Y-60833000D01*
X157865506Y-60833000D02*
X161429211Y-64396705D01*
X156845000Y-61087000D02*
X160528000Y-64770000D01*
X117310497Y-61087000D02*
X156845000Y-61087000D01*
X116294497Y-60071000D02*
X117310497Y-61087000D01*
X162166789Y-66408789D02*
X162166789Y-64757789D01*
X126365000Y-57222403D02*
X126365000Y-55118000D01*
X127689597Y-58547000D02*
X126365000Y-57222403D01*
X155956000Y-58547000D02*
X127689597Y-58547000D01*
X162166789Y-64757789D02*
X155956000Y-58547000D01*
X163068000Y-67310000D02*
X162166789Y-66408789D01*
X156476211Y-58178211D02*
X128155211Y-58178211D01*
X163068000Y-64770000D02*
X156476211Y-58178211D01*
X128155211Y-58178211D02*
X127127000Y-57150000D01*
X133350000Y-54106506D02*
X133350000Y-53848000D01*
X137160000Y-56134000D02*
X135377494Y-56134000D01*
X154778321Y-56121789D02*
X137172211Y-56121789D01*
X165608000Y-64770000D02*
X164706789Y-63868789D01*
X135377494Y-56134000D02*
X133350000Y-54106506D01*
X164706789Y-63868789D02*
X162525321Y-63868789D01*
X162525321Y-63868789D02*
X154778321Y-56121789D01*
X137172211Y-56121789D02*
X137160000Y-56134000D01*
G04 #@! TA.AperFunction,Conductor*
G36*
X139022311Y-37193851D02*
G01*
X139056249Y-37244167D01*
X139057479Y-37248755D01*
X139147674Y-37442180D01*
X139150827Y-37446683D01*
X139150830Y-37446688D01*
X139150959Y-37446872D01*
X139270087Y-37617003D01*
X139420997Y-37767913D01*
X139595820Y-37890326D01*
X139789245Y-37980521D01*
X139794389Y-37981899D01*
X139844877Y-38015950D01*
X139873501Y-38069776D01*
X139873505Y-38130740D01*
X139844888Y-38184570D01*
X139794350Y-38218664D01*
X139784435Y-38222273D01*
X139601055Y-38307784D01*
X139591565Y-38313264D01*
X139555173Y-38338745D01*
X139547620Y-38346987D01*
X139553629Y-38356419D01*
X140196270Y-38999060D01*
X140207999Y-39005832D01*
X140219730Y-38999059D01*
X140862371Y-38356417D01*
X140868378Y-38346987D01*
X140860826Y-38338745D01*
X140824437Y-38313265D01*
X140814941Y-38307783D01*
X140631564Y-38222273D01*
X140621652Y-38218665D01*
X140571112Y-38184571D01*
X140542494Y-38130740D01*
X140542498Y-38069776D01*
X140571123Y-38015949D01*
X140621612Y-37981899D01*
X140626755Y-37980521D01*
X140820180Y-37890326D01*
X140995003Y-37767913D01*
X141145913Y-37617003D01*
X141268326Y-37442180D01*
X141358521Y-37248755D01*
X141359750Y-37244167D01*
X141393689Y-37193851D01*
X141447518Y-37165230D01*
X141508482Y-37165230D01*
X141562311Y-37193851D01*
X141596249Y-37244167D01*
X141597479Y-37248755D01*
X141687674Y-37442180D01*
X141690827Y-37446683D01*
X141690830Y-37446688D01*
X141690959Y-37446872D01*
X141810087Y-37617003D01*
X141960997Y-37767913D01*
X142135820Y-37890326D01*
X142329245Y-37980521D01*
X142333831Y-37981750D01*
X142384149Y-38015690D01*
X142412769Y-38069518D01*
X142412769Y-38130482D01*
X142384149Y-38184310D01*
X142333831Y-38218249D01*
X142329245Y-38219479D01*
X142324268Y-38221799D01*
X142324259Y-38221803D01*
X142140808Y-38307348D01*
X142140803Y-38307350D01*
X142135821Y-38309674D01*
X142131322Y-38312824D01*
X142131312Y-38312830D01*
X141965508Y-38428928D01*
X141965505Y-38428930D01*
X141960997Y-38432087D01*
X141957105Y-38435978D01*
X141957099Y-38435984D01*
X141813984Y-38579099D01*
X141813978Y-38579105D01*
X141810087Y-38582997D01*
X141806930Y-38587505D01*
X141806928Y-38587508D01*
X141690830Y-38753312D01*
X141690824Y-38753322D01*
X141687674Y-38757821D01*
X141685350Y-38762803D01*
X141685348Y-38762808D01*
X141599802Y-38946262D01*
X141599799Y-38946267D01*
X141597479Y-38951245D01*
X141596100Y-38956391D01*
X141562043Y-39006882D01*
X141508216Y-39035503D01*
X141447252Y-39035504D01*
X141393424Y-39006883D01*
X141359333Y-38956343D01*
X141355727Y-38946437D01*
X141270213Y-38763052D01*
X141264736Y-38753566D01*
X141239254Y-38717174D01*
X141231010Y-38709620D01*
X141221581Y-38715627D01*
X140578938Y-39358271D01*
X140572167Y-39369999D01*
X140578939Y-39381729D01*
X141221578Y-40024368D01*
X141231011Y-40030378D01*
X141239253Y-40022826D01*
X141264731Y-39986440D01*
X141270217Y-39976939D01*
X141355727Y-39793562D01*
X141359332Y-39783659D01*
X141393423Y-39733117D01*
X141447251Y-39704496D01*
X141508216Y-39704496D01*
X141562045Y-39733118D01*
X141596099Y-39783607D01*
X141597479Y-39788755D01*
X141599803Y-39793739D01*
X141599804Y-39793741D01*
X141672699Y-39950067D01*
X141687674Y-39982180D01*
X141690827Y-39986683D01*
X141690830Y-39986688D01*
X141734368Y-40048866D01*
X141810087Y-40157003D01*
X141960997Y-40307913D01*
X142082529Y-40393011D01*
X142130685Y-40426731D01*
X142135820Y-40430326D01*
X142329245Y-40520521D01*
X142535392Y-40575758D01*
X142748000Y-40594359D01*
X142960608Y-40575758D01*
X143166755Y-40520521D01*
X143360180Y-40430326D01*
X143535003Y-40307913D01*
X143685913Y-40157003D01*
X143808326Y-39982180D01*
X143898521Y-39788755D01*
X143899750Y-39784167D01*
X143933689Y-39733851D01*
X143987518Y-39705230D01*
X144048482Y-39705230D01*
X144102311Y-39733851D01*
X144136249Y-39784167D01*
X144137479Y-39788755D01*
X144139802Y-39793737D01*
X144139805Y-39793744D01*
X144215366Y-39955785D01*
X144227674Y-39982180D01*
X144230827Y-39986683D01*
X144230830Y-39986688D01*
X144274368Y-40048866D01*
X144350087Y-40157003D01*
X144500997Y-40307913D01*
X144622529Y-40393011D01*
X144670685Y-40426731D01*
X144675820Y-40430326D01*
X144869245Y-40520521D01*
X145075392Y-40575758D01*
X145288000Y-40594359D01*
X145500608Y-40575758D01*
X145706755Y-40520521D01*
X145900180Y-40430326D01*
X146075003Y-40307913D01*
X146225913Y-40157003D01*
X146348326Y-39982180D01*
X146438521Y-39788755D01*
X146439750Y-39784167D01*
X146473689Y-39733851D01*
X146527518Y-39705230D01*
X146588482Y-39705230D01*
X146642311Y-39733851D01*
X146676249Y-39784167D01*
X146677479Y-39788755D01*
X146679802Y-39793737D01*
X146679805Y-39793744D01*
X146755366Y-39955785D01*
X146767674Y-39982180D01*
X146770827Y-39986683D01*
X146770830Y-39986688D01*
X146814368Y-40048866D01*
X146890087Y-40157003D01*
X147040997Y-40307913D01*
X147162529Y-40393011D01*
X147210685Y-40426731D01*
X147215820Y-40430326D01*
X147409245Y-40520521D01*
X147615392Y-40575758D01*
X147828000Y-40594359D01*
X148040608Y-40575758D01*
X148246755Y-40520521D01*
X148440180Y-40430326D01*
X148615003Y-40307913D01*
X148765913Y-40157003D01*
X148888326Y-39982180D01*
X148978521Y-39788755D01*
X148979750Y-39784167D01*
X149013689Y-39733851D01*
X149067518Y-39705230D01*
X149128482Y-39705230D01*
X149182311Y-39733851D01*
X149216249Y-39784167D01*
X149217479Y-39788755D01*
X149219802Y-39793737D01*
X149219805Y-39793744D01*
X149295366Y-39955785D01*
X149307674Y-39982180D01*
X149310827Y-39986683D01*
X149310830Y-39986688D01*
X149354368Y-40048866D01*
X149430087Y-40157003D01*
X149580997Y-40307913D01*
X149702529Y-40393011D01*
X149750685Y-40426731D01*
X149755820Y-40430326D01*
X149949245Y-40520521D01*
X150155392Y-40575758D01*
X150368000Y-40594359D01*
X150580608Y-40575758D01*
X150786755Y-40520521D01*
X150980180Y-40430326D01*
X151155003Y-40307913D01*
X151305913Y-40157003D01*
X151428326Y-39982180D01*
X151518521Y-39788755D01*
X151519750Y-39784167D01*
X151553689Y-39733851D01*
X151607518Y-39705230D01*
X151668482Y-39705230D01*
X151722311Y-39733851D01*
X151756249Y-39784167D01*
X151757479Y-39788755D01*
X151759802Y-39793737D01*
X151759805Y-39793744D01*
X151835366Y-39955785D01*
X151847674Y-39982180D01*
X151850827Y-39986683D01*
X151850830Y-39986688D01*
X151894368Y-40048866D01*
X151970087Y-40157003D01*
X152120997Y-40307913D01*
X152242529Y-40393011D01*
X152290685Y-40426731D01*
X152295820Y-40430326D01*
X152489245Y-40520521D01*
X152695392Y-40575758D01*
X152908000Y-40594359D01*
X153120608Y-40575758D01*
X153326755Y-40520521D01*
X153520180Y-40430326D01*
X153695003Y-40307913D01*
X153845913Y-40157003D01*
X153968326Y-39982180D01*
X154058521Y-39788755D01*
X154059750Y-39784167D01*
X154093689Y-39733851D01*
X154147518Y-39705230D01*
X154208482Y-39705230D01*
X154262311Y-39733851D01*
X154296249Y-39784167D01*
X154297479Y-39788755D01*
X154299802Y-39793737D01*
X154299805Y-39793744D01*
X154375366Y-39955785D01*
X154387674Y-39982180D01*
X154390827Y-39986683D01*
X154390830Y-39986688D01*
X154434368Y-40048866D01*
X154510087Y-40157003D01*
X154660997Y-40307913D01*
X154782529Y-40393011D01*
X154830685Y-40426731D01*
X154835820Y-40430326D01*
X155029245Y-40520521D01*
X155235392Y-40575758D01*
X155448000Y-40594359D01*
X155660608Y-40575758D01*
X155866755Y-40520521D01*
X156060180Y-40430326D01*
X156235003Y-40307913D01*
X156385913Y-40157003D01*
X156508326Y-39982180D01*
X156598521Y-39788755D01*
X156599750Y-39784167D01*
X156633689Y-39733851D01*
X156687518Y-39705230D01*
X156748482Y-39705230D01*
X156802311Y-39733851D01*
X156836249Y-39784167D01*
X156837479Y-39788755D01*
X156839802Y-39793737D01*
X156839805Y-39793744D01*
X156915366Y-39955785D01*
X156927674Y-39982180D01*
X156930827Y-39986683D01*
X156930830Y-39986688D01*
X156974368Y-40048866D01*
X157050087Y-40157003D01*
X157200997Y-40307913D01*
X157322529Y-40393011D01*
X157370685Y-40426731D01*
X157375820Y-40430326D01*
X157569245Y-40520521D01*
X157775392Y-40575758D01*
X157988000Y-40594359D01*
X158200608Y-40575758D01*
X158406755Y-40520521D01*
X158600180Y-40430326D01*
X158775003Y-40307913D01*
X158925913Y-40157003D01*
X159048326Y-39982180D01*
X159138521Y-39788755D01*
X159139750Y-39784167D01*
X159173689Y-39733851D01*
X159227518Y-39705230D01*
X159288482Y-39705230D01*
X159342311Y-39733851D01*
X159376249Y-39784167D01*
X159377479Y-39788755D01*
X159379802Y-39793737D01*
X159379805Y-39793744D01*
X159455366Y-39955785D01*
X159467674Y-39982180D01*
X159470827Y-39986683D01*
X159470830Y-39986688D01*
X159514368Y-40048866D01*
X159590087Y-40157003D01*
X159740997Y-40307913D01*
X159862529Y-40393011D01*
X159910685Y-40426731D01*
X159915820Y-40430326D01*
X160109245Y-40520521D01*
X160315392Y-40575758D01*
X160528000Y-40594359D01*
X160740608Y-40575758D01*
X160946755Y-40520521D01*
X161140180Y-40430326D01*
X161315003Y-40307913D01*
X161465913Y-40157003D01*
X161588326Y-39982180D01*
X161678521Y-39788755D01*
X161679750Y-39784167D01*
X161713689Y-39733851D01*
X161767518Y-39705230D01*
X161828482Y-39705230D01*
X161882311Y-39733851D01*
X161916249Y-39784167D01*
X161917479Y-39788755D01*
X161919802Y-39793737D01*
X161919805Y-39793744D01*
X161995366Y-39955785D01*
X162007674Y-39982180D01*
X162010827Y-39986683D01*
X162010830Y-39986688D01*
X162054368Y-40048866D01*
X162130087Y-40157003D01*
X162280997Y-40307913D01*
X162402529Y-40393011D01*
X162450685Y-40426731D01*
X162455820Y-40430326D01*
X162649245Y-40520521D01*
X162653831Y-40521750D01*
X162704149Y-40555690D01*
X162732769Y-40609518D01*
X162732769Y-40670482D01*
X162704149Y-40724310D01*
X162653831Y-40758249D01*
X162649245Y-40759479D01*
X162644268Y-40761799D01*
X162644259Y-40761803D01*
X162460808Y-40847348D01*
X162460803Y-40847350D01*
X162455821Y-40849674D01*
X162451322Y-40852824D01*
X162451312Y-40852830D01*
X162285508Y-40968928D01*
X162285505Y-40968930D01*
X162280997Y-40972087D01*
X162277105Y-40975978D01*
X162277099Y-40975984D01*
X162133984Y-41119099D01*
X162133978Y-41119105D01*
X162130087Y-41122997D01*
X162126930Y-41127505D01*
X162126928Y-41127508D01*
X162010830Y-41293312D01*
X162010824Y-41293322D01*
X162007674Y-41297821D01*
X162005350Y-41302803D01*
X162005348Y-41302808D01*
X161919802Y-41486262D01*
X161919799Y-41486267D01*
X161917479Y-41491245D01*
X161916057Y-41496549D01*
X161916056Y-41496554D01*
X161863666Y-41692077D01*
X161862242Y-41697392D01*
X161861763Y-41702865D01*
X161861762Y-41702872D01*
X161845644Y-41887108D01*
X161843641Y-41910000D01*
X161844120Y-41915475D01*
X161853374Y-42021256D01*
X161862242Y-42122608D01*
X161872336Y-42160278D01*
X161895098Y-42245230D01*
X161917479Y-42328755D01*
X161919801Y-42333735D01*
X161919802Y-42333737D01*
X161958401Y-42416514D01*
X162007674Y-42522180D01*
X162010827Y-42526683D01*
X162010830Y-42526688D01*
X162045921Y-42576802D01*
X162130087Y-42697003D01*
X162280997Y-42847913D01*
X162455820Y-42970326D01*
X162649245Y-43060521D01*
X162653831Y-43061750D01*
X162704149Y-43095690D01*
X162732769Y-43149518D01*
X162732769Y-43210482D01*
X162704149Y-43264310D01*
X162653831Y-43298249D01*
X162649245Y-43299479D01*
X162644268Y-43301799D01*
X162644259Y-43301803D01*
X162460808Y-43387348D01*
X162460803Y-43387350D01*
X162455821Y-43389674D01*
X162451322Y-43392824D01*
X162451312Y-43392830D01*
X162285508Y-43508928D01*
X162285505Y-43508930D01*
X162280997Y-43512087D01*
X162277105Y-43515978D01*
X162277099Y-43515984D01*
X162133984Y-43659099D01*
X162133978Y-43659105D01*
X162130087Y-43662997D01*
X162126930Y-43667505D01*
X162126928Y-43667508D01*
X162010830Y-43833312D01*
X162010824Y-43833322D01*
X162007674Y-43837821D01*
X162005350Y-43842803D01*
X162005348Y-43842808D01*
X161919802Y-44026262D01*
X161919799Y-44026267D01*
X161917479Y-44031245D01*
X161916057Y-44036549D01*
X161916056Y-44036554D01*
X161863666Y-44232077D01*
X161862242Y-44237392D01*
X161861763Y-44242865D01*
X161861762Y-44242872D01*
X161848572Y-44393635D01*
X161843641Y-44450000D01*
X161844120Y-44455475D01*
X161855326Y-44583565D01*
X161862242Y-44662608D01*
X161863666Y-44667922D01*
X161895098Y-44785230D01*
X161917479Y-44868755D01*
X161919801Y-44873735D01*
X161919802Y-44873737D01*
X161957359Y-44954278D01*
X162007674Y-45062180D01*
X162010827Y-45066683D01*
X162010830Y-45066688D01*
X162081669Y-45167856D01*
X162130087Y-45237003D01*
X162280997Y-45387913D01*
X162455820Y-45510326D01*
X162649245Y-45600521D01*
X162653827Y-45601748D01*
X162704144Y-45635684D01*
X162732767Y-45689510D01*
X162732771Y-45750473D01*
X162704154Y-45804303D01*
X162653833Y-45838249D01*
X162649245Y-45839479D01*
X162644279Y-45841794D01*
X162644267Y-45841799D01*
X162460808Y-45927348D01*
X162460803Y-45927350D01*
X162455821Y-45929674D01*
X162451322Y-45932824D01*
X162451312Y-45932830D01*
X162285508Y-46048928D01*
X162285505Y-46048930D01*
X162280997Y-46052087D01*
X162277105Y-46055978D01*
X162277099Y-46055984D01*
X162133984Y-46199099D01*
X162133978Y-46199105D01*
X162130087Y-46202997D01*
X162126930Y-46207505D01*
X162126928Y-46207508D01*
X162010830Y-46373312D01*
X162010824Y-46373322D01*
X162007674Y-46377821D01*
X162005350Y-46382803D01*
X162005348Y-46382808D01*
X161919802Y-46566262D01*
X161919799Y-46566267D01*
X161917479Y-46571245D01*
X161916057Y-46576549D01*
X161916056Y-46576554D01*
X161884106Y-46695794D01*
X161862242Y-46777392D01*
X161861763Y-46782865D01*
X161861762Y-46782872D01*
X161844120Y-46984525D01*
X161843641Y-46990000D01*
X161862242Y-47202608D01*
X161863666Y-47207922D01*
X161902137Y-47351500D01*
X161917479Y-47408755D01*
X161919801Y-47413735D01*
X161919802Y-47413737D01*
X161947326Y-47472763D01*
X162007674Y-47602180D01*
X162010827Y-47606683D01*
X162010830Y-47606688D01*
X162081669Y-47707856D01*
X162130087Y-47777003D01*
X162280997Y-47927913D01*
X162455820Y-48050326D01*
X162649245Y-48140521D01*
X162653827Y-48141748D01*
X162704144Y-48175684D01*
X162732767Y-48229510D01*
X162732771Y-48290473D01*
X162704154Y-48344303D01*
X162653833Y-48378249D01*
X162649245Y-48379479D01*
X162644279Y-48381794D01*
X162644267Y-48381799D01*
X162460808Y-48467348D01*
X162460803Y-48467350D01*
X162455821Y-48469674D01*
X162451322Y-48472824D01*
X162451312Y-48472830D01*
X162285508Y-48588928D01*
X162285505Y-48588930D01*
X162280997Y-48592087D01*
X162277105Y-48595978D01*
X162277099Y-48595984D01*
X162133984Y-48739099D01*
X162133978Y-48739105D01*
X162130087Y-48742997D01*
X162126930Y-48747505D01*
X162126928Y-48747508D01*
X162010830Y-48913312D01*
X162010824Y-48913322D01*
X162007674Y-48917821D01*
X162005350Y-48922803D01*
X162005348Y-48922808D01*
X161919802Y-49106262D01*
X161919799Y-49106267D01*
X161917479Y-49111245D01*
X161916057Y-49116549D01*
X161916056Y-49116554D01*
X161863666Y-49312077D01*
X161862242Y-49317392D01*
X161861763Y-49322865D01*
X161861762Y-49322872D01*
X161844215Y-49523435D01*
X161843641Y-49530000D01*
X161844120Y-49535475D01*
X161860806Y-49726205D01*
X161862242Y-49742608D01*
X161876246Y-49794872D01*
X161906611Y-49908197D01*
X161917479Y-49948755D01*
X161919801Y-49953735D01*
X161919802Y-49953737D01*
X161979000Y-50080689D01*
X162007674Y-50142180D01*
X162010827Y-50146683D01*
X162010830Y-50146688D01*
X162081669Y-50247856D01*
X162130087Y-50317003D01*
X162280997Y-50467913D01*
X162455820Y-50590326D01*
X162649245Y-50680521D01*
X162653827Y-50681748D01*
X162704144Y-50715684D01*
X162732767Y-50769510D01*
X162732771Y-50830473D01*
X162704154Y-50884303D01*
X162653833Y-50918249D01*
X162649245Y-50919479D01*
X162644279Y-50921794D01*
X162644267Y-50921799D01*
X162460808Y-51007348D01*
X162460803Y-51007350D01*
X162455821Y-51009674D01*
X162451322Y-51012824D01*
X162451312Y-51012830D01*
X162285508Y-51128928D01*
X162285505Y-51128930D01*
X162280997Y-51132087D01*
X162277105Y-51135978D01*
X162277099Y-51135984D01*
X162133984Y-51279099D01*
X162133978Y-51279105D01*
X162130087Y-51282997D01*
X162126930Y-51287505D01*
X162126928Y-51287508D01*
X162010830Y-51453312D01*
X162010824Y-51453322D01*
X162007674Y-51457821D01*
X162005350Y-51462803D01*
X162005348Y-51462808D01*
X161919802Y-51646262D01*
X161919799Y-51646267D01*
X161917479Y-51651245D01*
X161916057Y-51656549D01*
X161916056Y-51656554D01*
X161885087Y-51772134D01*
X161862242Y-51857392D01*
X161861763Y-51862865D01*
X161861762Y-51862872D01*
X161844120Y-52064525D01*
X161843641Y-52070000D01*
X161844120Y-52075475D01*
X161860357Y-52261072D01*
X161862242Y-52282608D01*
X161863666Y-52287922D01*
X161907362Y-52451000D01*
X161917479Y-52488755D01*
X161919801Y-52493735D01*
X161919802Y-52493737D01*
X161954052Y-52567187D01*
X162007674Y-52682180D01*
X162010827Y-52686683D01*
X162010830Y-52686688D01*
X162081669Y-52787856D01*
X162130087Y-52857003D01*
X162280997Y-53007913D01*
X162455820Y-53130326D01*
X162649245Y-53220521D01*
X162653827Y-53221748D01*
X162704144Y-53255684D01*
X162732767Y-53309510D01*
X162732771Y-53370473D01*
X162704154Y-53424303D01*
X162653833Y-53458249D01*
X162649245Y-53459479D01*
X162644279Y-53461794D01*
X162644267Y-53461799D01*
X162460808Y-53547348D01*
X162460803Y-53547350D01*
X162455821Y-53549674D01*
X162451322Y-53552824D01*
X162451312Y-53552830D01*
X162285508Y-53668928D01*
X162285505Y-53668930D01*
X162280997Y-53672087D01*
X162277105Y-53675978D01*
X162277099Y-53675984D01*
X162133984Y-53819099D01*
X162133978Y-53819105D01*
X162130087Y-53822997D01*
X162126930Y-53827505D01*
X162126928Y-53827508D01*
X162010830Y-53993312D01*
X162010824Y-53993322D01*
X162007674Y-53997821D01*
X162005350Y-54002803D01*
X162005348Y-54002808D01*
X161919802Y-54186262D01*
X161919799Y-54186267D01*
X161917479Y-54191245D01*
X161916057Y-54196549D01*
X161916056Y-54196554D01*
X161863666Y-54392077D01*
X161862242Y-54397392D01*
X161861763Y-54402865D01*
X161861762Y-54402872D01*
X161846603Y-54576148D01*
X161843641Y-54610000D01*
X161844120Y-54615475D01*
X161860806Y-54806205D01*
X161862242Y-54822608D01*
X161863666Y-54827922D01*
X161895098Y-54945230D01*
X161917479Y-55028755D01*
X161919801Y-55033735D01*
X161919802Y-55033737D01*
X161933304Y-55062693D01*
X162007674Y-55222180D01*
X162010827Y-55226683D01*
X162010830Y-55226688D01*
X162064348Y-55303118D01*
X162130087Y-55397003D01*
X162280997Y-55547913D01*
X162455820Y-55670326D01*
X162649245Y-55760521D01*
X162653827Y-55761748D01*
X162704144Y-55795684D01*
X162732767Y-55849510D01*
X162732771Y-55910473D01*
X162704154Y-55964303D01*
X162653833Y-55998249D01*
X162649245Y-55999479D01*
X162644279Y-56001794D01*
X162644267Y-56001799D01*
X162460808Y-56087348D01*
X162460803Y-56087350D01*
X162455821Y-56089674D01*
X162451322Y-56092824D01*
X162451312Y-56092830D01*
X162285508Y-56208928D01*
X162285505Y-56208930D01*
X162280997Y-56212087D01*
X162277105Y-56215978D01*
X162277099Y-56215984D01*
X162133984Y-56359099D01*
X162133978Y-56359105D01*
X162130087Y-56362997D01*
X162126930Y-56367505D01*
X162126928Y-56367508D01*
X162010830Y-56533312D01*
X162010824Y-56533322D01*
X162007674Y-56537821D01*
X162005350Y-56542803D01*
X162005348Y-56542808D01*
X161919802Y-56726262D01*
X161919799Y-56726267D01*
X161917479Y-56731245D01*
X161916057Y-56736549D01*
X161916056Y-56736554D01*
X161872092Y-56900631D01*
X161862242Y-56937392D01*
X161861763Y-56942865D01*
X161861762Y-56942872D01*
X161844215Y-57143435D01*
X161843641Y-57150000D01*
X161844120Y-57155475D01*
X161853255Y-57259895D01*
X161862242Y-57362608D01*
X161863666Y-57367922D01*
X161899924Y-57503241D01*
X161917479Y-57568755D01*
X161919801Y-57573735D01*
X161919802Y-57573737D01*
X161958401Y-57656514D01*
X162007674Y-57762180D01*
X162010827Y-57766683D01*
X162010830Y-57766688D01*
X162081669Y-57867856D01*
X162130087Y-57937003D01*
X162280997Y-58087913D01*
X162455820Y-58210326D01*
X162649245Y-58300521D01*
X162653827Y-58301748D01*
X162704144Y-58335684D01*
X162732767Y-58389510D01*
X162732771Y-58450473D01*
X162704154Y-58504303D01*
X162653833Y-58538249D01*
X162649245Y-58539479D01*
X162644279Y-58541794D01*
X162644267Y-58541799D01*
X162460808Y-58627348D01*
X162460803Y-58627350D01*
X162455821Y-58629674D01*
X162451322Y-58632824D01*
X162451312Y-58632830D01*
X162285508Y-58748928D01*
X162285505Y-58748930D01*
X162280997Y-58752087D01*
X162277105Y-58755978D01*
X162277099Y-58755984D01*
X162133984Y-58899099D01*
X162133978Y-58899105D01*
X162130087Y-58902997D01*
X162126930Y-58907505D01*
X162126928Y-58907508D01*
X162010830Y-59073312D01*
X162010824Y-59073322D01*
X162007674Y-59077821D01*
X162005350Y-59082803D01*
X162005348Y-59082808D01*
X161919802Y-59266262D01*
X161919799Y-59266267D01*
X161917479Y-59271245D01*
X161916057Y-59276549D01*
X161916056Y-59276554D01*
X161866916Y-59459949D01*
X161862242Y-59477392D01*
X161861763Y-59482865D01*
X161861762Y-59482872D01*
X161844215Y-59683435D01*
X161843641Y-59690000D01*
X161844120Y-59695475D01*
X161860806Y-59886205D01*
X161862242Y-59902608D01*
X161863666Y-59907922D01*
X161907362Y-60071000D01*
X161917479Y-60108755D01*
X161919801Y-60113735D01*
X161919802Y-60113737D01*
X161991365Y-60267205D01*
X162007674Y-60302180D01*
X162010827Y-60306683D01*
X162010830Y-60306688D01*
X162081669Y-60407856D01*
X162130087Y-60477003D01*
X162280997Y-60627913D01*
X162455820Y-60750326D01*
X162649245Y-60840521D01*
X162653827Y-60841748D01*
X162704144Y-60875684D01*
X162732767Y-60929510D01*
X162732771Y-60990473D01*
X162704154Y-61044303D01*
X162653833Y-61078249D01*
X162649245Y-61079479D01*
X162644279Y-61081794D01*
X162644267Y-61081799D01*
X162460808Y-61167348D01*
X162460803Y-61167350D01*
X162455821Y-61169674D01*
X162451322Y-61172824D01*
X162451312Y-61172830D01*
X162285508Y-61288928D01*
X162285505Y-61288930D01*
X162280997Y-61292087D01*
X162277105Y-61295978D01*
X162277099Y-61295984D01*
X162133984Y-61439099D01*
X162133978Y-61439105D01*
X162130087Y-61442997D01*
X162126930Y-61447505D01*
X162126928Y-61447508D01*
X162010830Y-61613312D01*
X162010824Y-61613322D01*
X162007674Y-61617821D01*
X162005350Y-61622803D01*
X162005348Y-61622808D01*
X161919802Y-61806262D01*
X161919799Y-61806267D01*
X161917479Y-61811245D01*
X161916057Y-61816549D01*
X161916056Y-61816554D01*
X161872334Y-61979728D01*
X161862242Y-62017392D01*
X161861763Y-62022865D01*
X161861760Y-62022883D01*
X161855269Y-62097078D01*
X161829711Y-62162800D01*
X161772843Y-62204497D01*
X161702477Y-62209109D01*
X161640654Y-62175191D01*
X155215140Y-55749678D01*
X155204272Y-55737287D01*
X155191298Y-55720379D01*
X155186276Y-55713834D01*
X155109529Y-55654944D01*
X155066789Y-55622148D01*
X155059163Y-55618989D01*
X155059161Y-55618988D01*
X154979022Y-55585794D01*
X154927643Y-55564512D01*
X154927642Y-55564511D01*
X154917402Y-55563162D01*
X154917399Y-55563162D01*
X154815820Y-55549789D01*
X154815802Y-55549788D01*
X154786511Y-55545932D01*
X154786509Y-55545932D01*
X154778321Y-55544854D01*
X154770133Y-55545932D01*
X154770132Y-55545932D01*
X154749023Y-55548711D01*
X154732577Y-55549789D01*
X138740975Y-55549789D01*
X138675609Y-55531508D01*
X138629212Y-55481969D01*
X138615245Y-55415548D01*
X138637762Y-55351518D01*
X138672880Y-55301364D01*
X138728326Y-55222180D01*
X138818521Y-55028755D01*
X138873758Y-54822608D01*
X138892359Y-54610000D01*
X138873758Y-54397392D01*
X138818521Y-54191245D01*
X138728326Y-53997821D01*
X138716392Y-53980778D01*
X138623420Y-53848000D01*
X138605913Y-53822997D01*
X138455003Y-53672087D01*
X138379584Y-53619278D01*
X138284688Y-53552830D01*
X138284683Y-53552827D01*
X138280180Y-53549674D01*
X138237764Y-53529895D01*
X138091736Y-53461801D01*
X138091729Y-53461798D01*
X138086755Y-53459479D01*
X138082165Y-53458249D01*
X138031846Y-53424304D01*
X138003228Y-53370474D01*
X138003232Y-53309509D01*
X138031856Y-53255682D01*
X138082173Y-53221748D01*
X138086755Y-53220521D01*
X138280180Y-53130326D01*
X138455003Y-53007913D01*
X138605913Y-52857003D01*
X138728326Y-52682180D01*
X138818521Y-52488755D01*
X138873758Y-52282608D01*
X138892359Y-52070000D01*
X138873758Y-51857392D01*
X138818521Y-51651245D01*
X138728326Y-51457821D01*
X138716392Y-51440778D01*
X138643687Y-51336944D01*
X138605913Y-51282997D01*
X138455003Y-51132087D01*
X138379584Y-51079278D01*
X138284688Y-51012830D01*
X138284683Y-51012827D01*
X138280180Y-51009674D01*
X138275192Y-51007348D01*
X138091736Y-50921801D01*
X138091729Y-50921798D01*
X138086755Y-50919479D01*
X138082165Y-50918249D01*
X138031846Y-50884304D01*
X138003228Y-50830474D01*
X138003232Y-50769509D01*
X138031856Y-50715682D01*
X138082173Y-50681748D01*
X138086755Y-50680521D01*
X138280180Y-50590326D01*
X138455003Y-50467913D01*
X138605913Y-50317003D01*
X138728326Y-50142180D01*
X138818521Y-49948755D01*
X138873758Y-49742608D01*
X138892359Y-49530000D01*
X138873758Y-49317392D01*
X138818521Y-49111245D01*
X138728326Y-48917821D01*
X138605913Y-48742997D01*
X138455003Y-48592087D01*
X138379584Y-48539278D01*
X138284688Y-48472830D01*
X138284683Y-48472827D01*
X138280180Y-48469674D01*
X138275192Y-48467348D01*
X138091736Y-48381801D01*
X138091729Y-48381798D01*
X138086755Y-48379479D01*
X138082165Y-48378249D01*
X138031846Y-48344304D01*
X138003228Y-48290474D01*
X138003232Y-48229509D01*
X138031856Y-48175682D01*
X138082173Y-48141748D01*
X138086755Y-48140521D01*
X138280180Y-48050326D01*
X138455003Y-47927913D01*
X138605913Y-47777003D01*
X138728326Y-47602180D01*
X138818521Y-47408755D01*
X138873758Y-47202608D01*
X138892359Y-46990000D01*
X138873758Y-46777392D01*
X138818521Y-46571245D01*
X138728326Y-46377821D01*
X138716392Y-46360778D01*
X138622378Y-46226512D01*
X138605913Y-46202997D01*
X138455003Y-46052087D01*
X138379584Y-45999278D01*
X138284688Y-45932830D01*
X138284683Y-45932827D01*
X138280180Y-45929674D01*
X138275192Y-45927348D01*
X138091736Y-45841801D01*
X138091729Y-45841798D01*
X138086755Y-45839479D01*
X138082165Y-45838249D01*
X138031846Y-45804304D01*
X138003228Y-45750474D01*
X138003232Y-45689509D01*
X138031856Y-45635682D01*
X138082173Y-45601748D01*
X138086755Y-45600521D01*
X138280180Y-45510326D01*
X138455003Y-45387913D01*
X138605913Y-45237003D01*
X138728326Y-45062180D01*
X138818521Y-44868755D01*
X138873758Y-44662608D01*
X138892359Y-44450000D01*
X138873758Y-44237392D01*
X138818521Y-44031245D01*
X138728326Y-43837821D01*
X138716392Y-43820778D01*
X138665066Y-43747476D01*
X138605913Y-43662997D01*
X138455003Y-43512087D01*
X138379584Y-43459278D01*
X138284688Y-43392830D01*
X138284683Y-43392827D01*
X138280180Y-43389674D01*
X138275192Y-43387348D01*
X138091744Y-43301805D01*
X138091740Y-43301803D01*
X138086755Y-43299479D01*
X138082167Y-43298249D01*
X138031851Y-43264311D01*
X138003230Y-43210482D01*
X138003230Y-43149518D01*
X138031851Y-43095689D01*
X138082167Y-43061750D01*
X138086755Y-43060521D01*
X138280180Y-42970326D01*
X138455003Y-42847913D01*
X138605913Y-42697003D01*
X138728326Y-42522180D01*
X138818521Y-42328755D01*
X138873758Y-42122608D01*
X138892359Y-41910000D01*
X138873758Y-41697392D01*
X138818521Y-41491245D01*
X138728326Y-41297821D01*
X138716392Y-41280778D01*
X138671878Y-41217205D01*
X138605913Y-41122997D01*
X138455003Y-40972087D01*
X138372341Y-40914206D01*
X138284688Y-40852830D01*
X138284683Y-40852827D01*
X138280180Y-40849674D01*
X138240288Y-40831072D01*
X138091744Y-40761805D01*
X138091740Y-40761803D01*
X138086755Y-40759479D01*
X138082167Y-40758249D01*
X138031851Y-40724311D01*
X138003230Y-40670482D01*
X138003230Y-40609518D01*
X138031851Y-40555689D01*
X138082167Y-40521750D01*
X138086755Y-40520521D01*
X138280180Y-40430326D01*
X138333473Y-40393010D01*
X139547620Y-40393010D01*
X139555173Y-40401254D01*
X139591562Y-40426734D01*
X139601058Y-40432216D01*
X139784430Y-40517724D01*
X139794727Y-40521472D01*
X139990167Y-40573840D01*
X140000956Y-40575743D01*
X140202525Y-40593378D01*
X140213475Y-40593378D01*
X140415043Y-40575743D01*
X140425832Y-40573840D01*
X140621272Y-40521472D01*
X140631569Y-40517724D01*
X140814939Y-40432217D01*
X140824440Y-40426731D01*
X140860826Y-40401253D01*
X140868378Y-40393011D01*
X140862368Y-40383578D01*
X140219729Y-39740939D01*
X140207999Y-39734167D01*
X140196271Y-39740938D01*
X139553627Y-40383581D01*
X139547620Y-40393010D01*
X138333473Y-40393010D01*
X138455003Y-40307913D01*
X138605913Y-40157003D01*
X138728326Y-39982180D01*
X138818521Y-39788755D01*
X138819899Y-39783612D01*
X138853949Y-39733123D01*
X138907776Y-39704498D01*
X138968740Y-39704494D01*
X139022571Y-39733112D01*
X139056665Y-39783652D01*
X139060273Y-39793564D01*
X139145783Y-39976941D01*
X139151265Y-39986437D01*
X139176745Y-40022826D01*
X139184987Y-40030378D01*
X139194417Y-40024371D01*
X139837059Y-39381730D01*
X139843832Y-39369999D01*
X139837060Y-39358270D01*
X139194419Y-38715629D01*
X139184987Y-38709620D01*
X139176745Y-38717173D01*
X139151264Y-38753565D01*
X139145784Y-38763055D01*
X139060273Y-38946435D01*
X139056664Y-38956350D01*
X139022570Y-39006888D01*
X138968740Y-39035505D01*
X138907776Y-39035501D01*
X138853950Y-39006877D01*
X138819899Y-38956389D01*
X138818521Y-38951245D01*
X138728326Y-38757821D01*
X138709740Y-38731278D01*
X138678912Y-38687250D01*
X138605913Y-38582997D01*
X138455003Y-38432087D01*
X138352860Y-38360565D01*
X138284688Y-38312830D01*
X138284683Y-38312827D01*
X138280180Y-38309674D01*
X138275192Y-38307348D01*
X138091744Y-38221805D01*
X138091740Y-38221803D01*
X138086755Y-38219479D01*
X138082167Y-38218249D01*
X138031851Y-38184311D01*
X138003230Y-38130482D01*
X138003230Y-38069518D01*
X138031851Y-38015689D01*
X138082167Y-37981750D01*
X138086755Y-37980521D01*
X138280180Y-37890326D01*
X138455003Y-37767913D01*
X138605913Y-37617003D01*
X138728326Y-37442180D01*
X138818521Y-37248755D01*
X138819750Y-37244167D01*
X138853689Y-37193851D01*
X138907518Y-37165230D01*
X138968482Y-37165230D01*
X139022311Y-37193851D01*
G37*
G04 #@! TD.AperFunction*
G04 #@! TA.AperFunction,Conductor*
G36*
X163069972Y-31369562D02*
G01*
X163074643Y-31369708D01*
X163448789Y-31381466D01*
X163448946Y-31381513D01*
X163448946Y-31381471D01*
X163449492Y-31381488D01*
X163674969Y-31388871D01*
X163682631Y-31389358D01*
X164018634Y-31421120D01*
X164291118Y-31447958D01*
X164298443Y-31448897D01*
X164622232Y-31500181D01*
X164622793Y-31500272D01*
X164902242Y-31546409D01*
X164909152Y-31547751D01*
X165225000Y-31618351D01*
X165226044Y-31618589D01*
X165505746Y-31683807D01*
X165512253Y-31685509D01*
X165821007Y-31775210D01*
X165822187Y-31775561D01*
X166099180Y-31859586D01*
X166105259Y-31861600D01*
X166406428Y-31970028D01*
X166407932Y-31970581D01*
X166680149Y-32073037D01*
X166685759Y-32075306D01*
X166978697Y-32202071D01*
X166980373Y-32202813D01*
X167246137Y-32323229D01*
X167251338Y-32325731D01*
X167360377Y-32381289D01*
X167535121Y-32470325D01*
X167537182Y-32471400D01*
X167794976Y-32609194D01*
X167799695Y-32611850D01*
X168073405Y-32773722D01*
X168075729Y-32775130D01*
X168324326Y-32929717D01*
X168328575Y-32932482D01*
X168591334Y-33111053D01*
X168593834Y-33112797D01*
X168831991Y-33283459D01*
X168835776Y-33286281D01*
X169086697Y-33480915D01*
X169089312Y-33483002D01*
X169315911Y-33668967D01*
X169319299Y-33671849D01*
X169557315Y-33881689D01*
X169557336Y-33881707D01*
X169560144Y-33884258D01*
X169774142Y-34084689D01*
X169777104Y-34087557D01*
X170001441Y-34311894D01*
X170004309Y-34314856D01*
X170204742Y-34528856D01*
X170207288Y-34531659D01*
X170417137Y-34769686D01*
X170417145Y-34769694D01*
X170420030Y-34773086D01*
X170605961Y-34999644D01*
X170608122Y-35002351D01*
X170802697Y-35253196D01*
X170805556Y-35257030D01*
X170976185Y-35495142D01*
X170977978Y-35497712D01*
X171156516Y-35760424D01*
X171159303Y-35764709D01*
X171313809Y-36013174D01*
X171315263Y-36015572D01*
X171477156Y-36289318D01*
X171479825Y-36294061D01*
X171545299Y-36416554D01*
X171616331Y-36549446D01*
X171617553Y-36551731D01*
X171618698Y-36553924D01*
X171763262Y-36837648D01*
X171765764Y-36842850D01*
X171886125Y-37108490D01*
X171886993Y-37110451D01*
X172013689Y-37403231D01*
X172015976Y-37408888D01*
X172118372Y-37680948D01*
X172118999Y-37682650D01*
X172227387Y-37983708D01*
X172229411Y-37989813D01*
X172313433Y-38266798D01*
X172313855Y-38268221D01*
X172403481Y-38576713D01*
X172405192Y-38583254D01*
X172470401Y-38862919D01*
X172470659Y-38864045D01*
X172541243Y-39179822D01*
X172542594Y-39186783D01*
X172588722Y-39466173D01*
X172588854Y-39466988D01*
X172640098Y-39790536D01*
X172641042Y-39797896D01*
X172667851Y-40070092D01*
X172667729Y-40070103D01*
X172667900Y-40070585D01*
X172699637Y-40406333D01*
X172700129Y-40414067D01*
X172707537Y-40640355D01*
X172707542Y-40640520D01*
X172719437Y-41018996D01*
X172719499Y-41022954D01*
X172719499Y-67816014D01*
X172719437Y-67819972D01*
X172707533Y-68198783D01*
X172707528Y-68198948D01*
X172700129Y-68424932D01*
X172699637Y-68432667D01*
X172667910Y-68768300D01*
X172667862Y-68768792D01*
X172641042Y-69041100D01*
X172640098Y-69048461D01*
X172588835Y-69372121D01*
X172588703Y-69372935D01*
X172542594Y-69652216D01*
X172541242Y-69659177D01*
X172470657Y-69974954D01*
X172470400Y-69976080D01*
X172405195Y-70255729D01*
X172403484Y-70262270D01*
X172313839Y-70570833D01*
X172313416Y-70572256D01*
X172229412Y-70849180D01*
X172227389Y-70855285D01*
X172119008Y-71156325D01*
X172118381Y-71158028D01*
X172015970Y-71430126D01*
X172013683Y-71435782D01*
X171886992Y-71728549D01*
X171886124Y-71730510D01*
X171765769Y-71996137D01*
X171763267Y-72001338D01*
X171618698Y-72285073D01*
X171617553Y-72287267D01*
X171479817Y-72544952D01*
X171477148Y-72549695D01*
X171315276Y-72823405D01*
X171313823Y-72825803D01*
X171159304Y-73074290D01*
X171156516Y-73078575D01*
X170977970Y-73341298D01*
X170976177Y-73343868D01*
X170805558Y-73581966D01*
X170802699Y-73585800D01*
X170608120Y-73836650D01*
X170605959Y-73839358D01*
X170420031Y-74065911D01*
X170417146Y-74069302D01*
X170207291Y-74307336D01*
X170204740Y-74310144D01*
X170004309Y-74524142D01*
X170001441Y-74527104D01*
X169777104Y-74751441D01*
X169774142Y-74754309D01*
X169560142Y-74954742D01*
X169557334Y-74957293D01*
X169319304Y-75167145D01*
X169315912Y-75170030D01*
X169089354Y-75355961D01*
X169086647Y-75358122D01*
X168835802Y-75552697D01*
X168831968Y-75555556D01*
X168593856Y-75726185D01*
X168591286Y-75727978D01*
X168328574Y-75906516D01*
X168324289Y-75909303D01*
X168075824Y-76063809D01*
X168073426Y-76065263D01*
X167799680Y-76227156D01*
X167794937Y-76229825D01*
X167537267Y-76367553D01*
X167535074Y-76368698D01*
X167251350Y-76513262D01*
X167246148Y-76515764D01*
X166980508Y-76636125D01*
X166978547Y-76636993D01*
X166685767Y-76763689D01*
X166680110Y-76765976D01*
X166408050Y-76868372D01*
X166406348Y-76868999D01*
X166105290Y-76977387D01*
X166099185Y-76979411D01*
X165822200Y-77063433D01*
X165820777Y-77063855D01*
X165512285Y-77153481D01*
X165505744Y-77155192D01*
X165226079Y-77220401D01*
X165224953Y-77220659D01*
X164909176Y-77291243D01*
X164902215Y-77292594D01*
X164622825Y-77338722D01*
X164622010Y-77338854D01*
X164298462Y-77390098D01*
X164291102Y-77391042D01*
X164018791Y-77417862D01*
X164018299Y-77417910D01*
X163682666Y-77449637D01*
X163674931Y-77450129D01*
X163448653Y-77457537D01*
X163448488Y-77457542D01*
X163070003Y-77469437D01*
X163066045Y-77469499D01*
X100585984Y-77469499D01*
X100582026Y-77469437D01*
X100202941Y-77457524D01*
X100202778Y-77457475D01*
X100202777Y-77457519D01*
X99977066Y-77450129D01*
X99969331Y-77449637D01*
X99633698Y-77417910D01*
X99633206Y-77417862D01*
X99360898Y-77391042D01*
X99353537Y-77390098D01*
X99029877Y-77338835D01*
X99029063Y-77338703D01*
X98749782Y-77292594D01*
X98742821Y-77291242D01*
X98427044Y-77220657D01*
X98425918Y-77220400D01*
X98146269Y-77155195D01*
X98139728Y-77153484D01*
X97831165Y-77063839D01*
X97829742Y-77063416D01*
X97552818Y-76979412D01*
X97546713Y-76977389D01*
X97245673Y-76869008D01*
X97243970Y-76868381D01*
X96971872Y-76765970D01*
X96966216Y-76763683D01*
X96775146Y-76681000D01*
X96673417Y-76636977D01*
X96671519Y-76636138D01*
X96599570Y-76603538D01*
X96405861Y-76515769D01*
X96400660Y-76513267D01*
X96116925Y-76368698D01*
X96114731Y-76367553D01*
X95857046Y-76229817D01*
X95852303Y-76227148D01*
X95578593Y-76065276D01*
X95576221Y-76063839D01*
X95327697Y-75909297D01*
X95323423Y-75906516D01*
X95060700Y-75727970D01*
X95058130Y-75726177D01*
X94923967Y-75630037D01*
X94820025Y-75555553D01*
X94816198Y-75552699D01*
X94565321Y-75358098D01*
X94562643Y-75355961D01*
X94336086Y-75170030D01*
X94332696Y-75167146D01*
X94094662Y-74957291D01*
X94091854Y-74954740D01*
X93877856Y-74754309D01*
X93874894Y-74751441D01*
X93650557Y-74527104D01*
X93647689Y-74524142D01*
X93485865Y-74351364D01*
X93447246Y-74310130D01*
X93444705Y-74307334D01*
X93234833Y-74069280D01*
X93231968Y-74065912D01*
X93046037Y-73839354D01*
X93043893Y-73836669D01*
X92849300Y-73585800D01*
X92846442Y-73581968D01*
X92846441Y-73581966D01*
X92675796Y-73343832D01*
X92674038Y-73341312D01*
X92545382Y-73152000D01*
X109380844Y-73152000D01*
X109381274Y-73157189D01*
X109393264Y-73301891D01*
X109399436Y-73376368D01*
X109400717Y-73381426D01*
X109451500Y-73581966D01*
X109454704Y-73594616D01*
X109456797Y-73599389D01*
X109456799Y-73599393D01*
X109517581Y-73737962D01*
X109545140Y-73800791D01*
X109668278Y-73989268D01*
X109739651Y-74066799D01*
X109811474Y-74144819D01*
X109840711Y-74198423D01*
X109841314Y-74259478D01*
X109813140Y-74313648D01*
X109762807Y-74348212D01*
X109656240Y-74387960D01*
X109656231Y-74387964D01*
X109647796Y-74391111D01*
X109640588Y-74396506D01*
X109640582Y-74396510D01*
X109537950Y-74473340D01*
X109537946Y-74473343D01*
X109530739Y-74478739D01*
X109525343Y-74485946D01*
X109525340Y-74485950D01*
X109448510Y-74588582D01*
X109448506Y-74588588D01*
X109443111Y-74595796D01*
X109439965Y-74604230D01*
X109439962Y-74604236D01*
X109394763Y-74725419D01*
X109394761Y-74725423D01*
X109392011Y-74732799D01*
X109391169Y-74740625D01*
X109391168Y-74740632D01*
X109385860Y-74790011D01*
X109385500Y-74793362D01*
X109385500Y-76590638D01*
X109385859Y-76593985D01*
X109385860Y-76593988D01*
X109391168Y-76643367D01*
X109391169Y-76643373D01*
X109392011Y-76651201D01*
X109394762Y-76658578D01*
X109394763Y-76658580D01*
X109439962Y-76779763D01*
X109439964Y-76779766D01*
X109443111Y-76788204D01*
X109448508Y-76795414D01*
X109448510Y-76795417D01*
X109503600Y-76869008D01*
X109530739Y-76905261D01*
X109537950Y-76910659D01*
X109629792Y-76979412D01*
X109647796Y-76992889D01*
X109784799Y-77043989D01*
X109845362Y-77050500D01*
X111639269Y-77050500D01*
X111642638Y-77050500D01*
X111703201Y-77043989D01*
X111840204Y-76992889D01*
X111957261Y-76905261D01*
X112044889Y-76788204D01*
X112095989Y-76651201D01*
X112102500Y-76590638D01*
X112102500Y-74793362D01*
X112095989Y-74732799D01*
X112044889Y-74595796D01*
X111957261Y-74478739D01*
X111948761Y-74472376D01*
X111847417Y-74396510D01*
X111847414Y-74396508D01*
X111840204Y-74391111D01*
X111831765Y-74387963D01*
X111831757Y-74387959D01*
X111725193Y-74348212D01*
X111674859Y-74313648D01*
X111646685Y-74259478D01*
X111647288Y-74198422D01*
X111663881Y-74168000D01*
X132563496Y-74168000D01*
X132564186Y-74174565D01*
X132580890Y-74333500D01*
X132583458Y-74357928D01*
X132585495Y-74364200D01*
X132585497Y-74364205D01*
X132640430Y-74533271D01*
X132640433Y-74533278D01*
X132642473Y-74539556D01*
X132737960Y-74704944D01*
X132865747Y-74846866D01*
X132871089Y-74850747D01*
X132871091Y-74850749D01*
X132875072Y-74853641D01*
X133020248Y-74959118D01*
X133194712Y-75036794D01*
X133381513Y-75076500D01*
X133565884Y-75076500D01*
X133572487Y-75076500D01*
X133759288Y-75036794D01*
X133933752Y-74959118D01*
X134088253Y-74846866D01*
X134216040Y-74704944D01*
X134232751Y-74676000D01*
X137543620Y-74676000D01*
X137544227Y-74682163D01*
X137562484Y-74867538D01*
X137562485Y-74867547D01*
X137563092Y-74873701D01*
X137564887Y-74879619D01*
X137564888Y-74879623D01*
X137588449Y-74957293D01*
X137620759Y-75063804D01*
X137714405Y-75239004D01*
X137840432Y-75392568D01*
X137993996Y-75518595D01*
X138169196Y-75612241D01*
X138359299Y-75669908D01*
X138365460Y-75670514D01*
X138365461Y-75670515D01*
X138550837Y-75688773D01*
X138557000Y-75689380D01*
X138754701Y-75669908D01*
X138944804Y-75612241D01*
X139120004Y-75518595D01*
X139123045Y-75516099D01*
X139167416Y-75497718D01*
X139216584Y-75497718D01*
X139260954Y-75516099D01*
X139263996Y-75518595D01*
X139439196Y-75612241D01*
X139629299Y-75669908D01*
X139635460Y-75670514D01*
X139635461Y-75670515D01*
X139820837Y-75688773D01*
X139827000Y-75689380D01*
X140024701Y-75669908D01*
X140214804Y-75612241D01*
X140390004Y-75518595D01*
X140393045Y-75516099D01*
X140437416Y-75497718D01*
X140486584Y-75497718D01*
X140530954Y-75516099D01*
X140533996Y-75518595D01*
X140709196Y-75612241D01*
X140899299Y-75669908D01*
X140905460Y-75670514D01*
X140905461Y-75670515D01*
X141090837Y-75688773D01*
X141097000Y-75689380D01*
X141294701Y-75669908D01*
X141484804Y-75612241D01*
X141490269Y-75609319D01*
X141492895Y-75608232D01*
X141556815Y-75599619D01*
X141604702Y-75618952D01*
X141605675Y-75617171D01*
X141613582Y-75621489D01*
X141620796Y-75626889D01*
X141757799Y-75677989D01*
X141818362Y-75684500D01*
X142912269Y-75684500D01*
X142915638Y-75684500D01*
X142976201Y-75677989D01*
X143113204Y-75626889D01*
X143230261Y-75539261D01*
X143317889Y-75422204D01*
X143368989Y-75285201D01*
X143375500Y-75224638D01*
X143375500Y-74127362D01*
X143368989Y-74066799D01*
X143317889Y-73929796D01*
X143306468Y-73914540D01*
X143235659Y-73819950D01*
X143230261Y-73812739D01*
X143223049Y-73807340D01*
X143120417Y-73730510D01*
X143120414Y-73730508D01*
X143113204Y-73725111D01*
X143104766Y-73721964D01*
X143104763Y-73721962D01*
X142983580Y-73676763D01*
X142983578Y-73676762D01*
X142976201Y-73674011D01*
X142968373Y-73673169D01*
X142968367Y-73673168D01*
X142918988Y-73667860D01*
X142918985Y-73667859D01*
X142915638Y-73667500D01*
X141818362Y-73667500D01*
X141815015Y-73667859D01*
X141815011Y-73667860D01*
X141765632Y-73673168D01*
X141765625Y-73673169D01*
X141757799Y-73674011D01*
X141750423Y-73676761D01*
X141750419Y-73676763D01*
X141629235Y-73721963D01*
X141629232Y-73721964D01*
X141620796Y-73725111D01*
X141613584Y-73730509D01*
X141605674Y-73734829D01*
X141604702Y-73733049D01*
X141556811Y-73752380D01*
X141492900Y-73743769D01*
X141490261Y-73742675D01*
X141484804Y-73739759D01*
X141478885Y-73737963D01*
X141478884Y-73737963D01*
X141300623Y-73683888D01*
X141300619Y-73683887D01*
X141294701Y-73682092D01*
X141288547Y-73681485D01*
X141288538Y-73681484D01*
X141103163Y-73663227D01*
X141097000Y-73662620D01*
X141090837Y-73663227D01*
X140905461Y-73681484D01*
X140905450Y-73681486D01*
X140899299Y-73682092D01*
X140893382Y-73683886D01*
X140893376Y-73683888D01*
X140715119Y-73737962D01*
X140715116Y-73737963D01*
X140709196Y-73739759D01*
X140703738Y-73742676D01*
X140703734Y-73742678D01*
X140539451Y-73830488D01*
X140539441Y-73830494D01*
X140533996Y-73833405D01*
X140530953Y-73835901D01*
X140486579Y-73854280D01*
X140437421Y-73854280D01*
X140393046Y-73835901D01*
X140390004Y-73833405D01*
X140384553Y-73830491D01*
X140384548Y-73830488D01*
X140220265Y-73742678D01*
X140214804Y-73739759D01*
X140166516Y-73725111D01*
X140030623Y-73683888D01*
X140030619Y-73683887D01*
X140024701Y-73682092D01*
X140018547Y-73681485D01*
X140018538Y-73681484D01*
X139833163Y-73663227D01*
X139827000Y-73662620D01*
X139820837Y-73663227D01*
X139635461Y-73681484D01*
X139635450Y-73681486D01*
X139629299Y-73682092D01*
X139623382Y-73683886D01*
X139623376Y-73683888D01*
X139445119Y-73737962D01*
X139445116Y-73737963D01*
X139439196Y-73739759D01*
X139433738Y-73742676D01*
X139433734Y-73742678D01*
X139269451Y-73830488D01*
X139269441Y-73830494D01*
X139263996Y-73833405D01*
X139260953Y-73835901D01*
X139216579Y-73854280D01*
X139167421Y-73854280D01*
X139123046Y-73835901D01*
X139120004Y-73833405D01*
X139114553Y-73830491D01*
X139114548Y-73830488D01*
X138950265Y-73742678D01*
X138944804Y-73739759D01*
X138896516Y-73725111D01*
X138760623Y-73683888D01*
X138760619Y-73683887D01*
X138754701Y-73682092D01*
X138748547Y-73681485D01*
X138748538Y-73681484D01*
X138563163Y-73663227D01*
X138557000Y-73662620D01*
X138550837Y-73663227D01*
X138365461Y-73681484D01*
X138365450Y-73681486D01*
X138359299Y-73682092D01*
X138353382Y-73683886D01*
X138353376Y-73683888D01*
X138175119Y-73737962D01*
X138175116Y-73737963D01*
X138169196Y-73739759D01*
X138163738Y-73742676D01*
X138163734Y-73742678D01*
X137999454Y-73830487D01*
X137999453Y-73830488D01*
X137993996Y-73833405D01*
X137989217Y-73837326D01*
X137989211Y-73837331D01*
X137845211Y-73955509D01*
X137845205Y-73955514D01*
X137840432Y-73959432D01*
X137836514Y-73964205D01*
X137836509Y-73964211D01*
X137718331Y-74108211D01*
X137718326Y-74108217D01*
X137714405Y-74112996D01*
X137711490Y-74118449D01*
X137711487Y-74118454D01*
X137647626Y-74237931D01*
X137620759Y-74288196D01*
X137618963Y-74294116D01*
X137618962Y-74294119D01*
X137564888Y-74472376D01*
X137564886Y-74472382D01*
X137563092Y-74478299D01*
X137562486Y-74484450D01*
X137562484Y-74484461D01*
X137552230Y-74588582D01*
X137543620Y-74676000D01*
X134232751Y-74676000D01*
X134311527Y-74539556D01*
X134370542Y-74357928D01*
X134390504Y-74168000D01*
X134370542Y-73978072D01*
X134345297Y-73900379D01*
X134313569Y-73802728D01*
X134313568Y-73802726D01*
X134311527Y-73796444D01*
X134216040Y-73631056D01*
X134088253Y-73489134D01*
X134082911Y-73485253D01*
X134082908Y-73485250D01*
X133940006Y-73381426D01*
X133933752Y-73376882D01*
X133759288Y-73299206D01*
X133752835Y-73297834D01*
X133752831Y-73297833D01*
X133578943Y-73260872D01*
X133578940Y-73260871D01*
X133572487Y-73259500D01*
X133381513Y-73259500D01*
X133375060Y-73260871D01*
X133375056Y-73260872D01*
X133201168Y-73297833D01*
X133201161Y-73297835D01*
X133194712Y-73299206D01*
X133188682Y-73301890D01*
X133188681Y-73301891D01*
X133026278Y-73374197D01*
X133026275Y-73374198D01*
X133020248Y-73376882D01*
X133014907Y-73380762D01*
X133014906Y-73380763D01*
X132871091Y-73485250D01*
X132871083Y-73485256D01*
X132865747Y-73489134D01*
X132861330Y-73494039D01*
X132861325Y-73494044D01*
X132769429Y-73596106D01*
X132737960Y-73631056D01*
X132734661Y-73636769D01*
X132734658Y-73636774D01*
X132655027Y-73774700D01*
X132642473Y-73796444D01*
X132640434Y-73802718D01*
X132640430Y-73802728D01*
X132585497Y-73971794D01*
X132585495Y-73971801D01*
X132583458Y-73978072D01*
X132582768Y-73984633D01*
X132582768Y-73984635D01*
X132573869Y-74069302D01*
X132563496Y-74168000D01*
X111663881Y-74168000D01*
X111676523Y-74144821D01*
X111819722Y-73989268D01*
X111942860Y-73800791D01*
X112033296Y-73594616D01*
X112088564Y-73376368D01*
X112107156Y-73152000D01*
X112088564Y-72927632D01*
X112033296Y-72709384D01*
X111982333Y-72593200D01*
X152560844Y-72593200D01*
X152561274Y-72598389D01*
X152570075Y-72704606D01*
X152579436Y-72817568D01*
X152581527Y-72825824D01*
X152622983Y-72989533D01*
X152634704Y-73035816D01*
X152636797Y-73040589D01*
X152636799Y-73040593D01*
X152687943Y-73157189D01*
X152725140Y-73241991D01*
X152848278Y-73430468D01*
X152946378Y-73537032D01*
X152991474Y-73586019D01*
X153020711Y-73639623D01*
X153021314Y-73700678D01*
X152993140Y-73754848D01*
X152942807Y-73789412D01*
X152836240Y-73829160D01*
X152836231Y-73829164D01*
X152827796Y-73832311D01*
X152820588Y-73837706D01*
X152820582Y-73837710D01*
X152717950Y-73914540D01*
X152717946Y-73914543D01*
X152710739Y-73919939D01*
X152705343Y-73927146D01*
X152705340Y-73927150D01*
X152628510Y-74029782D01*
X152628506Y-74029788D01*
X152623111Y-74036996D01*
X152619965Y-74045430D01*
X152619962Y-74045436D01*
X152574763Y-74166619D01*
X152574761Y-74166623D01*
X152572011Y-74173999D01*
X152571169Y-74181825D01*
X152571168Y-74181832D01*
X152565860Y-74231211D01*
X152565500Y-74234562D01*
X152565500Y-76031838D01*
X152565859Y-76035185D01*
X152565860Y-76035188D01*
X152571168Y-76084567D01*
X152571169Y-76084573D01*
X152572011Y-76092401D01*
X152574762Y-76099778D01*
X152574763Y-76099780D01*
X152619962Y-76220963D01*
X152619964Y-76220966D01*
X152623111Y-76229404D01*
X152628508Y-76236614D01*
X152628510Y-76236617D01*
X152657748Y-76275674D01*
X152710739Y-76346461D01*
X152827796Y-76434089D01*
X152964799Y-76485189D01*
X153025362Y-76491700D01*
X154819269Y-76491700D01*
X154822638Y-76491700D01*
X154883201Y-76485189D01*
X155020204Y-76434089D01*
X155137261Y-76346461D01*
X155224889Y-76229404D01*
X155275989Y-76092401D01*
X155282500Y-76031838D01*
X155282500Y-74234562D01*
X155275989Y-74173999D01*
X155224889Y-74036996D01*
X155137261Y-73919939D01*
X155100594Y-73892490D01*
X155027417Y-73837710D01*
X155027414Y-73837708D01*
X155020204Y-73832311D01*
X155011765Y-73829163D01*
X155011757Y-73829159D01*
X154905193Y-73789412D01*
X154854859Y-73754848D01*
X154826685Y-73700678D01*
X154827288Y-73639622D01*
X154856523Y-73586021D01*
X154999722Y-73430468D01*
X155122860Y-73241991D01*
X155213296Y-73035816D01*
X155268564Y-72817568D01*
X155287156Y-72593200D01*
X155268564Y-72368832D01*
X155213296Y-72150584D01*
X155122860Y-71944409D01*
X154999722Y-71755932D01*
X154938956Y-71689923D01*
X154850772Y-71594130D01*
X154850767Y-71594125D01*
X154847240Y-71590294D01*
X154669576Y-71452011D01*
X154664997Y-71449533D01*
X154664994Y-71449531D01*
X154476159Y-71347339D01*
X154476156Y-71347337D01*
X154471574Y-71344858D01*
X154466650Y-71343167D01*
X154466642Y-71343164D01*
X154263565Y-71273448D01*
X154263559Y-71273446D01*
X154258635Y-71271756D01*
X154253498Y-71270898D01*
X154253495Y-71270898D01*
X154041706Y-71235557D01*
X154041703Y-71235556D01*
X154036569Y-71234700D01*
X153811431Y-71234700D01*
X153806297Y-71235556D01*
X153806293Y-71235557D01*
X153594504Y-71270898D01*
X153594498Y-71270899D01*
X153589365Y-71271756D01*
X153584443Y-71273445D01*
X153584434Y-71273448D01*
X153381357Y-71343164D01*
X153381344Y-71343169D01*
X153376426Y-71344858D01*
X153371847Y-71347335D01*
X153371840Y-71347339D01*
X153183005Y-71449531D01*
X153182997Y-71449536D01*
X153178424Y-71452011D01*
X153174313Y-71455210D01*
X153174311Y-71455212D01*
X153004878Y-71587088D01*
X153004872Y-71587093D01*
X153000760Y-71590294D01*
X152997237Y-71594119D01*
X152997227Y-71594130D01*
X152851806Y-71752099D01*
X152851802Y-71752102D01*
X152848278Y-71755932D01*
X152845430Y-71760290D01*
X152845427Y-71760295D01*
X152727992Y-71940043D01*
X152725140Y-71944409D01*
X152723048Y-71949178D01*
X152723046Y-71949182D01*
X152636799Y-72145806D01*
X152636796Y-72145814D01*
X152634704Y-72150584D01*
X152633423Y-72155640D01*
X152633422Y-72155645D01*
X152593136Y-72314732D01*
X152579436Y-72368832D01*
X152579006Y-72374020D01*
X152579005Y-72374027D01*
X152571248Y-72467645D01*
X152560844Y-72593200D01*
X111982333Y-72593200D01*
X111942860Y-72503209D01*
X111819722Y-72314732D01*
X111758956Y-72248723D01*
X111670772Y-72152930D01*
X111670767Y-72152925D01*
X111667240Y-72149094D01*
X111489576Y-72010811D01*
X111484997Y-72008333D01*
X111484994Y-72008331D01*
X111296159Y-71906139D01*
X111296156Y-71906137D01*
X111291574Y-71903658D01*
X111286650Y-71901967D01*
X111286642Y-71901964D01*
X111083565Y-71832248D01*
X111083559Y-71832246D01*
X111078635Y-71830556D01*
X111073498Y-71829698D01*
X111073495Y-71829698D01*
X110861706Y-71794357D01*
X110861703Y-71794356D01*
X110856569Y-71793500D01*
X110631431Y-71793500D01*
X110626297Y-71794356D01*
X110626293Y-71794357D01*
X110414504Y-71829698D01*
X110414498Y-71829699D01*
X110409365Y-71830556D01*
X110404443Y-71832245D01*
X110404434Y-71832248D01*
X110201357Y-71901964D01*
X110201344Y-71901969D01*
X110196426Y-71903658D01*
X110191847Y-71906135D01*
X110191840Y-71906139D01*
X110003005Y-72008331D01*
X110002997Y-72008336D01*
X109998424Y-72010811D01*
X109994313Y-72014010D01*
X109994311Y-72014012D01*
X109824878Y-72145888D01*
X109824872Y-72145893D01*
X109820760Y-72149094D01*
X109817237Y-72152919D01*
X109817227Y-72152930D01*
X109671806Y-72310899D01*
X109671802Y-72310902D01*
X109668278Y-72314732D01*
X109665430Y-72319090D01*
X109665427Y-72319095D01*
X109568375Y-72467645D01*
X109545140Y-72503209D01*
X109543048Y-72507978D01*
X109543046Y-72507982D01*
X109456799Y-72704606D01*
X109456796Y-72704614D01*
X109454704Y-72709384D01*
X109453423Y-72714440D01*
X109453422Y-72714445D01*
X109425217Y-72825824D01*
X109399436Y-72927632D01*
X109399006Y-72932820D01*
X109399005Y-72932827D01*
X109387283Y-73074289D01*
X109380844Y-73152000D01*
X92545382Y-73152000D01*
X92541856Y-73146811D01*
X92495482Y-73078574D01*
X92492695Y-73074289D01*
X92338189Y-72825824D01*
X92336735Y-72823426D01*
X92174842Y-72549680D01*
X92172173Y-72544937D01*
X92034392Y-72287166D01*
X92033352Y-72285175D01*
X91888729Y-72001336D01*
X91886234Y-71996148D01*
X91864954Y-71949182D01*
X91765815Y-71730378D01*
X91765067Y-71728688D01*
X91638302Y-71435751D01*
X91636022Y-71430110D01*
X91533626Y-71158050D01*
X91532999Y-71156348D01*
X91508854Y-71089282D01*
X91424600Y-70855258D01*
X91422597Y-70849216D01*
X91405241Y-70792000D01*
X115037496Y-70792000D01*
X115057458Y-70981928D01*
X115059495Y-70988200D01*
X115059497Y-70988205D01*
X115114430Y-71157271D01*
X115114433Y-71157278D01*
X115116473Y-71163556D01*
X115211960Y-71328944D01*
X115339747Y-71470866D01*
X115494248Y-71583118D01*
X115668712Y-71660794D01*
X115855513Y-71700500D01*
X116039884Y-71700500D01*
X116046487Y-71700500D01*
X116233288Y-71660794D01*
X116407752Y-71583118D01*
X116562253Y-71470866D01*
X116690040Y-71328944D01*
X116785527Y-71163556D01*
X116844542Y-70981928D01*
X116864504Y-70792000D01*
X116844542Y-70602072D01*
X116785527Y-70420444D01*
X116690040Y-70255056D01*
X116562253Y-70113134D01*
X116556911Y-70109253D01*
X116556908Y-70109250D01*
X116479057Y-70052688D01*
X116407752Y-70000882D01*
X116233288Y-69923206D01*
X116226835Y-69921834D01*
X116226831Y-69921833D01*
X116052943Y-69884872D01*
X116052940Y-69884871D01*
X116046487Y-69883500D01*
X115855513Y-69883500D01*
X115849060Y-69884871D01*
X115849056Y-69884872D01*
X115675168Y-69921833D01*
X115675161Y-69921835D01*
X115668712Y-69923206D01*
X115662682Y-69925890D01*
X115662681Y-69925891D01*
X115500278Y-69998197D01*
X115500275Y-69998198D01*
X115494248Y-70000882D01*
X115488907Y-70004762D01*
X115488906Y-70004763D01*
X115345091Y-70109250D01*
X115345083Y-70109256D01*
X115339747Y-70113134D01*
X115335330Y-70118039D01*
X115335325Y-70118044D01*
X115245118Y-70218230D01*
X115211960Y-70255056D01*
X115208661Y-70260769D01*
X115208658Y-70260774D01*
X115207786Y-70262285D01*
X115116473Y-70420444D01*
X115114434Y-70426718D01*
X115114430Y-70426728D01*
X115059497Y-70595794D01*
X115059495Y-70595801D01*
X115057458Y-70602072D01*
X115037496Y-70792000D01*
X91405241Y-70792000D01*
X91338533Y-70572092D01*
X91338160Y-70570833D01*
X91248506Y-70262243D01*
X91246817Y-70255787D01*
X91181530Y-69975788D01*
X91181390Y-69975180D01*
X91110750Y-69659151D01*
X91109409Y-69652241D01*
X91063220Y-69372485D01*
X91011896Y-69048435D01*
X91010959Y-69041130D01*
X90984120Y-68768634D01*
X90966289Y-68580000D01*
X107192496Y-68580000D01*
X107212458Y-68769928D01*
X107214495Y-68776200D01*
X107214497Y-68776205D01*
X107269430Y-68945271D01*
X107269433Y-68945278D01*
X107271473Y-68951556D01*
X107366960Y-69116944D01*
X107494747Y-69258866D01*
X107649248Y-69371118D01*
X107823712Y-69448794D01*
X108010513Y-69488500D01*
X108194884Y-69488500D01*
X108201487Y-69488500D01*
X108388288Y-69448794D01*
X108562752Y-69371118D01*
X108666940Y-69295420D01*
X108714803Y-69274110D01*
X108767197Y-69274110D01*
X108815059Y-69295420D01*
X108919248Y-69371118D01*
X109093712Y-69448794D01*
X109280513Y-69488500D01*
X109464884Y-69488500D01*
X109471487Y-69488500D01*
X109658288Y-69448794D01*
X109832752Y-69371118D01*
X109936940Y-69295420D01*
X109984803Y-69274110D01*
X110037197Y-69274110D01*
X110085059Y-69295420D01*
X110189248Y-69371118D01*
X110363712Y-69448794D01*
X110550513Y-69488500D01*
X110734884Y-69488500D01*
X110741487Y-69488500D01*
X110928288Y-69448794D01*
X111102752Y-69371118D01*
X111206940Y-69295420D01*
X111254803Y-69274110D01*
X111307197Y-69274110D01*
X111355059Y-69295420D01*
X111459248Y-69371118D01*
X111633712Y-69448794D01*
X111820513Y-69488500D01*
X112004884Y-69488500D01*
X112011487Y-69488500D01*
X112198288Y-69448794D01*
X112372752Y-69371118D01*
X112476940Y-69295420D01*
X112524803Y-69274110D01*
X112577197Y-69274110D01*
X112625059Y-69295420D01*
X112729248Y-69371118D01*
X112903712Y-69448794D01*
X113090513Y-69488500D01*
X113274884Y-69488500D01*
X113281487Y-69488500D01*
X113468288Y-69448794D01*
X113642752Y-69371118D01*
X113746940Y-69295420D01*
X113794803Y-69274110D01*
X113847197Y-69274110D01*
X113895059Y-69295420D01*
X113999248Y-69371118D01*
X114173712Y-69448794D01*
X114360513Y-69488500D01*
X114544884Y-69488500D01*
X114551487Y-69488500D01*
X114738288Y-69448794D01*
X114912752Y-69371118D01*
X115067253Y-69258866D01*
X115195040Y-69116944D01*
X115290527Y-68951556D01*
X115349542Y-68769928D01*
X115369504Y-68580000D01*
X115349542Y-68390072D01*
X115324297Y-68312379D01*
X115292569Y-68214728D01*
X115292568Y-68214726D01*
X115290527Y-68208444D01*
X115195040Y-68043056D01*
X115067253Y-67901134D01*
X115061911Y-67897253D01*
X115061908Y-67897250D01*
X114955586Y-67820003D01*
X114912752Y-67788882D01*
X114738288Y-67711206D01*
X114731835Y-67709834D01*
X114731831Y-67709833D01*
X114557943Y-67672872D01*
X114557940Y-67672871D01*
X114551487Y-67671500D01*
X114360513Y-67671500D01*
X114354060Y-67672871D01*
X114354056Y-67672872D01*
X114180168Y-67709833D01*
X114180161Y-67709835D01*
X114173712Y-67711206D01*
X114167682Y-67713890D01*
X114167681Y-67713891D01*
X114005278Y-67786197D01*
X114005275Y-67786198D01*
X113999248Y-67788882D01*
X113993907Y-67792762D01*
X113993906Y-67792763D01*
X113895061Y-67864578D01*
X113847197Y-67885889D01*
X113794803Y-67885889D01*
X113746939Y-67864578D01*
X113685586Y-67820003D01*
X113642752Y-67788882D01*
X113468288Y-67711206D01*
X113461835Y-67709834D01*
X113461831Y-67709833D01*
X113287943Y-67672872D01*
X113287940Y-67672871D01*
X113281487Y-67671500D01*
X113090513Y-67671500D01*
X113084060Y-67672871D01*
X113084056Y-67672872D01*
X112910168Y-67709833D01*
X112910161Y-67709835D01*
X112903712Y-67711206D01*
X112897682Y-67713890D01*
X112897681Y-67713891D01*
X112735278Y-67786197D01*
X112735275Y-67786198D01*
X112729248Y-67788882D01*
X112723907Y-67792762D01*
X112723906Y-67792763D01*
X112625061Y-67864578D01*
X112577197Y-67885889D01*
X112524803Y-67885889D01*
X112476939Y-67864578D01*
X112415586Y-67820003D01*
X112372752Y-67788882D01*
X112198288Y-67711206D01*
X112191835Y-67709834D01*
X112191831Y-67709833D01*
X112017943Y-67672872D01*
X112017940Y-67672871D01*
X112011487Y-67671500D01*
X111820513Y-67671500D01*
X111814060Y-67672871D01*
X111814056Y-67672872D01*
X111640168Y-67709833D01*
X111640161Y-67709835D01*
X111633712Y-67711206D01*
X111627682Y-67713890D01*
X111627681Y-67713891D01*
X111465278Y-67786197D01*
X111465275Y-67786198D01*
X111459248Y-67788882D01*
X111453907Y-67792762D01*
X111453906Y-67792763D01*
X111355061Y-67864578D01*
X111307197Y-67885889D01*
X111254803Y-67885889D01*
X111206939Y-67864578D01*
X111145586Y-67820003D01*
X111102752Y-67788882D01*
X110928288Y-67711206D01*
X110921835Y-67709834D01*
X110921831Y-67709833D01*
X110747943Y-67672872D01*
X110747940Y-67672871D01*
X110741487Y-67671500D01*
X110550513Y-67671500D01*
X110544060Y-67672871D01*
X110544056Y-67672872D01*
X110370168Y-67709833D01*
X110370161Y-67709835D01*
X110363712Y-67711206D01*
X110357682Y-67713890D01*
X110357681Y-67713891D01*
X110195278Y-67786197D01*
X110195275Y-67786198D01*
X110189248Y-67788882D01*
X110183907Y-67792762D01*
X110183906Y-67792763D01*
X110085061Y-67864578D01*
X110037197Y-67885889D01*
X109984803Y-67885889D01*
X109936939Y-67864578D01*
X109875586Y-67820003D01*
X109832752Y-67788882D01*
X109658288Y-67711206D01*
X109651835Y-67709834D01*
X109651831Y-67709833D01*
X109477943Y-67672872D01*
X109477940Y-67672871D01*
X109471487Y-67671500D01*
X109280513Y-67671500D01*
X109274060Y-67672871D01*
X109274056Y-67672872D01*
X109100168Y-67709833D01*
X109100161Y-67709835D01*
X109093712Y-67711206D01*
X109087682Y-67713890D01*
X109087681Y-67713891D01*
X108925278Y-67786197D01*
X108925275Y-67786198D01*
X108919248Y-67788882D01*
X108913907Y-67792762D01*
X108913906Y-67792763D01*
X108815061Y-67864578D01*
X108767197Y-67885889D01*
X108714803Y-67885889D01*
X108666939Y-67864578D01*
X108605586Y-67820003D01*
X108562752Y-67788882D01*
X108388288Y-67711206D01*
X108381835Y-67709834D01*
X108381831Y-67709833D01*
X108207943Y-67672872D01*
X108207940Y-67672871D01*
X108201487Y-67671500D01*
X108010513Y-67671500D01*
X108004060Y-67672871D01*
X108004056Y-67672872D01*
X107830168Y-67709833D01*
X107830161Y-67709835D01*
X107823712Y-67711206D01*
X107817682Y-67713890D01*
X107817681Y-67713891D01*
X107655278Y-67786197D01*
X107655275Y-67786198D01*
X107649248Y-67788882D01*
X107643907Y-67792762D01*
X107643906Y-67792763D01*
X107500091Y-67897250D01*
X107500083Y-67897256D01*
X107494747Y-67901134D01*
X107490330Y-67906039D01*
X107490325Y-67906044D01*
X107371379Y-68038148D01*
X107366960Y-68043056D01*
X107363661Y-68048769D01*
X107363658Y-68048774D01*
X107274777Y-68202721D01*
X107271473Y-68208444D01*
X107269434Y-68214718D01*
X107269430Y-68214728D01*
X107214497Y-68383794D01*
X107214495Y-68383801D01*
X107212458Y-68390072D01*
X107211768Y-68396633D01*
X107211768Y-68396635D01*
X107204904Y-68461943D01*
X107192496Y-68580000D01*
X90966289Y-68580000D01*
X90952358Y-68432630D01*
X90951871Y-68424968D01*
X90944448Y-68198204D01*
X90941267Y-68097003D01*
X90932561Y-67820002D01*
X90932500Y-67816045D01*
X90932500Y-64672000D01*
X95606496Y-64672000D01*
X95607186Y-64678565D01*
X95622316Y-64822524D01*
X95626458Y-64861928D01*
X95628495Y-64868200D01*
X95628497Y-64868205D01*
X95683430Y-65037271D01*
X95683433Y-65037278D01*
X95685473Y-65043556D01*
X95780960Y-65208944D01*
X95908747Y-65350866D01*
X96063248Y-65463118D01*
X96237712Y-65540794D01*
X96424513Y-65580500D01*
X96608884Y-65580500D01*
X96615487Y-65580500D01*
X96802288Y-65540794D01*
X96976752Y-65463118D01*
X97056744Y-65405000D01*
X114656496Y-65405000D01*
X114657186Y-65411565D01*
X114674941Y-65580500D01*
X114676458Y-65594928D01*
X114678495Y-65601200D01*
X114678497Y-65601205D01*
X114733430Y-65770271D01*
X114733433Y-65770278D01*
X114735473Y-65776556D01*
X114830960Y-65941944D01*
X114958747Y-66083866D01*
X115113248Y-66196118D01*
X115287712Y-66273794D01*
X115474513Y-66313500D01*
X115658884Y-66313500D01*
X115665487Y-66313500D01*
X115852288Y-66273794D01*
X116026752Y-66196118D01*
X116181253Y-66083866D01*
X116309040Y-65941944D01*
X116404527Y-65776556D01*
X116463542Y-65594928D01*
X116483504Y-65405000D01*
X116463542Y-65215072D01*
X116404527Y-65033444D01*
X116309040Y-64868056D01*
X116181253Y-64726134D01*
X116175911Y-64722253D01*
X116175908Y-64722250D01*
X116061545Y-64639161D01*
X116026752Y-64613882D01*
X115852288Y-64536206D01*
X115845835Y-64534834D01*
X115845831Y-64534833D01*
X115671943Y-64497872D01*
X115671940Y-64497871D01*
X115665487Y-64496500D01*
X115474513Y-64496500D01*
X115468060Y-64497871D01*
X115468056Y-64497872D01*
X115294168Y-64534833D01*
X115294161Y-64534835D01*
X115287712Y-64536206D01*
X115281682Y-64538890D01*
X115281681Y-64538891D01*
X115119278Y-64611197D01*
X115119275Y-64611198D01*
X115113248Y-64613882D01*
X115107907Y-64617762D01*
X115107906Y-64617763D01*
X114964091Y-64722250D01*
X114964083Y-64722256D01*
X114958747Y-64726134D01*
X114954330Y-64731039D01*
X114954325Y-64731044D01*
X114835379Y-64863148D01*
X114830960Y-64868056D01*
X114827661Y-64873769D01*
X114827658Y-64873774D01*
X114764823Y-64982608D01*
X114735473Y-65033444D01*
X114733434Y-65039718D01*
X114733430Y-65039728D01*
X114678497Y-65208794D01*
X114678495Y-65208801D01*
X114676458Y-65215072D01*
X114675768Y-65221633D01*
X114675768Y-65221635D01*
X114659419Y-65377192D01*
X114656496Y-65405000D01*
X97056744Y-65405000D01*
X97131253Y-65350866D01*
X97259040Y-65208944D01*
X97354527Y-65043556D01*
X97413542Y-64861928D01*
X97433504Y-64672000D01*
X97413542Y-64482072D01*
X97354527Y-64300444D01*
X97259040Y-64135056D01*
X97246661Y-64121308D01*
X97218042Y-64067482D01*
X97218042Y-64006518D01*
X97246661Y-63952691D01*
X97259040Y-63938944D01*
X97354527Y-63773556D01*
X97413542Y-63591928D01*
X97433504Y-63402000D01*
X97413542Y-63212072D01*
X97377181Y-63100166D01*
X97356569Y-63036728D01*
X97356568Y-63036726D01*
X97354527Y-63030444D01*
X97259040Y-62865056D01*
X97246661Y-62851308D01*
X97218042Y-62797482D01*
X97218042Y-62736518D01*
X97246661Y-62682691D01*
X97259040Y-62668944D01*
X97354527Y-62503556D01*
X97413542Y-62321928D01*
X97433504Y-62132000D01*
X97413542Y-61942072D01*
X97386369Y-61858444D01*
X97356569Y-61766728D01*
X97356568Y-61766726D01*
X97354527Y-61760444D01*
X97259040Y-61595056D01*
X97246661Y-61581308D01*
X97218042Y-61527482D01*
X97218042Y-61466518D01*
X97246661Y-61412691D01*
X97259040Y-61398944D01*
X97354527Y-61233556D01*
X97413542Y-61051928D01*
X97433504Y-60862000D01*
X97413542Y-60672072D01*
X97354527Y-60490444D01*
X97259040Y-60325056D01*
X97246662Y-60311309D01*
X97218041Y-60257479D01*
X97218043Y-60196511D01*
X97246667Y-60142685D01*
X97259040Y-60128944D01*
X97292494Y-60071000D01*
X115380993Y-60071000D01*
X115381683Y-60077565D01*
X115385485Y-60113744D01*
X115400955Y-60260928D01*
X115402992Y-60267200D01*
X115402994Y-60267205D01*
X115457927Y-60436271D01*
X115457930Y-60436278D01*
X115459970Y-60442556D01*
X115555457Y-60607944D01*
X115683244Y-60749866D01*
X115837745Y-60862118D01*
X116012209Y-60939794D01*
X116199010Y-60979500D01*
X116205613Y-60979500D01*
X116341877Y-60979500D01*
X116390095Y-60989091D01*
X116430972Y-61016405D01*
X116873677Y-61459110D01*
X116884544Y-61471500D01*
X116902542Y-61494955D01*
X116932541Y-61517974D01*
X116932543Y-61517976D01*
X117022029Y-61586641D01*
X117029665Y-61589804D01*
X117030722Y-61590414D01*
X117076843Y-61636533D01*
X117093726Y-61699534D01*
X117076845Y-61762536D01*
X117050040Y-61808964D01*
X117014982Y-61847900D01*
X116967118Y-61869211D01*
X116819071Y-61900679D01*
X116819064Y-61900681D01*
X116812615Y-61902052D01*
X116806585Y-61904736D01*
X116806584Y-61904737D01*
X116644181Y-61977043D01*
X116644178Y-61977044D01*
X116638151Y-61979728D01*
X116632810Y-61983608D01*
X116632809Y-61983609D01*
X116488994Y-62088096D01*
X116488986Y-62088102D01*
X116483650Y-62091980D01*
X116479233Y-62096885D01*
X116479228Y-62096890D01*
X116364306Y-62224525D01*
X116355863Y-62233902D01*
X116352564Y-62239615D01*
X116352561Y-62239620D01*
X116263680Y-62393567D01*
X116260376Y-62399290D01*
X116258337Y-62405564D01*
X116258333Y-62405574D01*
X116203400Y-62574640D01*
X116203398Y-62574647D01*
X116201361Y-62580918D01*
X116200671Y-62587479D01*
X116200671Y-62587481D01*
X116190664Y-62682693D01*
X116181399Y-62770846D01*
X116201361Y-62960774D01*
X116203398Y-62967046D01*
X116203400Y-62967051D01*
X116258333Y-63136117D01*
X116258336Y-63136124D01*
X116260376Y-63142402D01*
X116300600Y-63212072D01*
X116349511Y-63296789D01*
X116355863Y-63307790D01*
X116483650Y-63449712D01*
X116638151Y-63561964D01*
X116812615Y-63639640D01*
X116999416Y-63679346D01*
X117183787Y-63679346D01*
X117190390Y-63679346D01*
X117377191Y-63639640D01*
X117551655Y-63561964D01*
X117706156Y-63449712D01*
X117833943Y-63307790D01*
X117900865Y-63191876D01*
X117935920Y-63152945D01*
X117983781Y-63131635D01*
X118138288Y-63098794D01*
X118312752Y-63021118D01*
X118467253Y-62908866D01*
X118595040Y-62766944D01*
X118690527Y-62601556D01*
X118749542Y-62419928D01*
X118769504Y-62230000D01*
X118749542Y-62040072D01*
X118695208Y-61872851D01*
X118692569Y-61864728D01*
X118692568Y-61864726D01*
X118690527Y-61858444D01*
X118684496Y-61847998D01*
X118667616Y-61785001D01*
X118684496Y-61722001D01*
X118730616Y-61675881D01*
X118793616Y-61659000D01*
X122169876Y-61659000D01*
X122236646Y-61678146D01*
X122283124Y-61729765D01*
X122295186Y-61798170D01*
X122284412Y-61900679D01*
X122276496Y-61976000D01*
X122277186Y-61982565D01*
X122288372Y-62088999D01*
X122296458Y-62165928D01*
X122298495Y-62172200D01*
X122298497Y-62172205D01*
X122353430Y-62341271D01*
X122353433Y-62341278D01*
X122355473Y-62347556D01*
X122450960Y-62512944D01*
X122578747Y-62654866D01*
X122584089Y-62658747D01*
X122584091Y-62658749D01*
X122604887Y-62673858D01*
X122733248Y-62767118D01*
X122907712Y-62844794D01*
X122943218Y-62852341D01*
X122960272Y-62855966D01*
X123004531Y-62874753D01*
X123038531Y-62908751D01*
X123057320Y-62953009D01*
X123057768Y-62955120D01*
X123058458Y-62961677D01*
X123060495Y-62967949D01*
X123060497Y-62967954D01*
X123115430Y-63137020D01*
X123115433Y-63137027D01*
X123117473Y-63143305D01*
X123212960Y-63308693D01*
X123340747Y-63450615D01*
X123346089Y-63454496D01*
X123346091Y-63454498D01*
X123389298Y-63485890D01*
X123495248Y-63562867D01*
X123549598Y-63587065D01*
X123595433Y-63621856D01*
X123621020Y-63673399D01*
X123621020Y-63730943D01*
X123595435Y-63782486D01*
X123549599Y-63817278D01*
X123501283Y-63838790D01*
X123501274Y-63838794D01*
X123495248Y-63841478D01*
X123489907Y-63845358D01*
X123489906Y-63845359D01*
X123346091Y-63949846D01*
X123346083Y-63949852D01*
X123340747Y-63953730D01*
X123336330Y-63958635D01*
X123336325Y-63958640D01*
X123238324Y-64067482D01*
X123212960Y-64095652D01*
X123209661Y-64101365D01*
X123209658Y-64101370D01*
X123174187Y-64162808D01*
X123117473Y-64261040D01*
X123115434Y-64267314D01*
X123115430Y-64267324D01*
X123060497Y-64436390D01*
X123060495Y-64436397D01*
X123058458Y-64442668D01*
X123057768Y-64449229D01*
X123057768Y-64449231D01*
X123053627Y-64488635D01*
X123038496Y-64632596D01*
X123039186Y-64639161D01*
X123052937Y-64770000D01*
X123058458Y-64822524D01*
X123060495Y-64828796D01*
X123060497Y-64828801D01*
X123115430Y-64997867D01*
X123115433Y-64997874D01*
X123117473Y-65004152D01*
X123212960Y-65169540D01*
X123340747Y-65311462D01*
X123495248Y-65423714D01*
X123669712Y-65501390D01*
X123856513Y-65541096D01*
X124040884Y-65541096D01*
X124047487Y-65541096D01*
X124234288Y-65501390D01*
X124408752Y-65423714D01*
X124563253Y-65311462D01*
X124691040Y-65169540D01*
X124786527Y-65004152D01*
X124845542Y-64822524D01*
X124865504Y-64632596D01*
X124845542Y-64442668D01*
X124786527Y-64261040D01*
X124691040Y-64095652D01*
X124563253Y-63953730D01*
X124557911Y-63949849D01*
X124557908Y-63949846D01*
X124480057Y-63893284D01*
X124408752Y-63841478D01*
X124402722Y-63838793D01*
X124402713Y-63838788D01*
X124354401Y-63817278D01*
X124308565Y-63782487D01*
X124282979Y-63730943D01*
X124282979Y-63673399D01*
X124308566Y-63621856D01*
X124354402Y-63587065D01*
X124408752Y-63562867D01*
X124563253Y-63450615D01*
X124691040Y-63308693D01*
X124786527Y-63143305D01*
X124845542Y-62961677D01*
X124865504Y-62771749D01*
X124845542Y-62581821D01*
X124794979Y-62426205D01*
X124788569Y-62406477D01*
X124788568Y-62406475D01*
X124786527Y-62400193D01*
X124691040Y-62234805D01*
X124563253Y-62092883D01*
X124557911Y-62089002D01*
X124557908Y-62088999D01*
X124466907Y-62022883D01*
X124408752Y-61980631D01*
X124236562Y-61903967D01*
X124236560Y-61903966D01*
X124234288Y-61902955D01*
X124234470Y-61902546D01*
X124179687Y-61865315D01*
X124151765Y-61800791D01*
X124162764Y-61731351D01*
X124209258Y-61678615D01*
X124276772Y-61659000D01*
X133854066Y-61659000D01*
X133909794Y-61671994D01*
X133954028Y-61708296D01*
X133977645Y-61760419D01*
X133975773Y-61817611D01*
X133932334Y-61979728D01*
X133922242Y-62017392D01*
X133921763Y-62022865D01*
X133921762Y-62022872D01*
X133908697Y-62172205D01*
X133903641Y-62230000D01*
X133904120Y-62235475D01*
X133920806Y-62426205D01*
X133922242Y-62442608D01*
X133923666Y-62447922D01*
X133955098Y-62565230D01*
X133977479Y-62648755D01*
X133979801Y-62653735D01*
X133979802Y-62653737D01*
X133993304Y-62682693D01*
X134067674Y-62842180D01*
X134070827Y-62846683D01*
X134070830Y-62846688D01*
X134114288Y-62908751D01*
X134190087Y-63017003D01*
X134340997Y-63167913D01*
X134515820Y-63290326D01*
X134709245Y-63380521D01*
X134713827Y-63381748D01*
X134764144Y-63415684D01*
X134792767Y-63469510D01*
X134792771Y-63530473D01*
X134764154Y-63584303D01*
X134713833Y-63618249D01*
X134709245Y-63619479D01*
X134704279Y-63621794D01*
X134704267Y-63621799D01*
X134520808Y-63707348D01*
X134520803Y-63707350D01*
X134515821Y-63709674D01*
X134511322Y-63712824D01*
X134511312Y-63712830D01*
X134345508Y-63828928D01*
X134345505Y-63828930D01*
X134340997Y-63832087D01*
X134337105Y-63835978D01*
X134337099Y-63835984D01*
X134193984Y-63979099D01*
X134193978Y-63979105D01*
X134190087Y-63982997D01*
X134186930Y-63987505D01*
X134186928Y-63987508D01*
X134070830Y-64153312D01*
X134070824Y-64153322D01*
X134067674Y-64157821D01*
X134065350Y-64162803D01*
X134065348Y-64162808D01*
X133979802Y-64346262D01*
X133979799Y-64346267D01*
X133977479Y-64351245D01*
X133976057Y-64356549D01*
X133976056Y-64356554D01*
X133927919Y-64536206D01*
X133922242Y-64557392D01*
X133921763Y-64562865D01*
X133921762Y-64562872D01*
X133907819Y-64722250D01*
X133903641Y-64770000D01*
X133922242Y-64982608D01*
X133936889Y-65037271D01*
X133955098Y-65105230D01*
X133977479Y-65188755D01*
X133979801Y-65193735D01*
X133979802Y-65193737D01*
X134050782Y-65345955D01*
X134067674Y-65382180D01*
X134070827Y-65386683D01*
X134070830Y-65386688D01*
X134098636Y-65426398D01*
X134190087Y-65557003D01*
X134340997Y-65707913D01*
X134515820Y-65830326D01*
X134709245Y-65920521D01*
X134915392Y-65975758D01*
X135128000Y-65994359D01*
X135340608Y-65975758D01*
X135546755Y-65920521D01*
X135740180Y-65830326D01*
X135915003Y-65707913D01*
X136065913Y-65557003D01*
X136188326Y-65382180D01*
X136278521Y-65188755D01*
X136279750Y-65184167D01*
X136313689Y-65133851D01*
X136367518Y-65105230D01*
X136428482Y-65105230D01*
X136482311Y-65133851D01*
X136516249Y-65184167D01*
X136517479Y-65188755D01*
X136519802Y-65193737D01*
X136519805Y-65193744D01*
X136590782Y-65345955D01*
X136607674Y-65382180D01*
X136610827Y-65386683D01*
X136610830Y-65386688D01*
X136638636Y-65426398D01*
X136730087Y-65557003D01*
X136880997Y-65707913D01*
X137055820Y-65830326D01*
X137249245Y-65920521D01*
X137253827Y-65921748D01*
X137304144Y-65955684D01*
X137332767Y-66009510D01*
X137332771Y-66070473D01*
X137304154Y-66124303D01*
X137253833Y-66158249D01*
X137249245Y-66159479D01*
X137244279Y-66161794D01*
X137244267Y-66161799D01*
X137060808Y-66247348D01*
X137060803Y-66247350D01*
X137055821Y-66249674D01*
X137051322Y-66252824D01*
X137051312Y-66252830D01*
X136885508Y-66368928D01*
X136885505Y-66368930D01*
X136880997Y-66372087D01*
X136877105Y-66375978D01*
X136877099Y-66375984D01*
X136733984Y-66519099D01*
X136733978Y-66519105D01*
X136730087Y-66522997D01*
X136726930Y-66527505D01*
X136726928Y-66527508D01*
X136610830Y-66693312D01*
X136610824Y-66693322D01*
X136607674Y-66697821D01*
X136605350Y-66702803D01*
X136605348Y-66702808D01*
X136519802Y-66886262D01*
X136519799Y-66886267D01*
X136517479Y-66891245D01*
X136516057Y-66896549D01*
X136516056Y-66896554D01*
X136463666Y-67092077D01*
X136462242Y-67097392D01*
X136461763Y-67102865D01*
X136461762Y-67102872D01*
X136444120Y-67304525D01*
X136443641Y-67310000D01*
X136462242Y-67522608D01*
X136463666Y-67527922D01*
X136502137Y-67671500D01*
X136517479Y-67728755D01*
X136519801Y-67733735D01*
X136519802Y-67733737D01*
X136547326Y-67792763D01*
X136607674Y-67922180D01*
X136610827Y-67926683D01*
X136610830Y-67926688D01*
X136681669Y-68027856D01*
X136730087Y-68097003D01*
X136880997Y-68247913D01*
X137055820Y-68370326D01*
X137249245Y-68460521D01*
X137455392Y-68515758D01*
X137668000Y-68534359D01*
X137880608Y-68515758D01*
X138086755Y-68460521D01*
X138280180Y-68370326D01*
X138455003Y-68247913D01*
X138605913Y-68097003D01*
X138728326Y-67922180D01*
X138818521Y-67728755D01*
X138819750Y-67724167D01*
X138853689Y-67673851D01*
X138907518Y-67645230D01*
X138968482Y-67645230D01*
X139022311Y-67673851D01*
X139056249Y-67724167D01*
X139057479Y-67728755D01*
X139059802Y-67733737D01*
X139059805Y-67733744D01*
X139098861Y-67817499D01*
X139147674Y-67922180D01*
X139150827Y-67926683D01*
X139150830Y-67926688D01*
X139221669Y-68027856D01*
X139270087Y-68097003D01*
X139420997Y-68247913D01*
X139595820Y-68370326D01*
X139789245Y-68460521D01*
X139995392Y-68515758D01*
X140208000Y-68534359D01*
X140420608Y-68515758D01*
X140626755Y-68460521D01*
X140820180Y-68370326D01*
X140995003Y-68247913D01*
X141145913Y-68097003D01*
X141268326Y-67922180D01*
X141358521Y-67728755D01*
X141359750Y-67724167D01*
X141393689Y-67673851D01*
X141447518Y-67645230D01*
X141508482Y-67645230D01*
X141562311Y-67673851D01*
X141596249Y-67724167D01*
X141597479Y-67728755D01*
X141599802Y-67733737D01*
X141599805Y-67733744D01*
X141638861Y-67817499D01*
X141687674Y-67922180D01*
X141690827Y-67926683D01*
X141690830Y-67926688D01*
X141761669Y-68027856D01*
X141810087Y-68097003D01*
X141960997Y-68247913D01*
X142135820Y-68370326D01*
X142329245Y-68460521D01*
X142535392Y-68515758D01*
X142748000Y-68534359D01*
X142960608Y-68515758D01*
X143166755Y-68460521D01*
X143360180Y-68370326D01*
X143535003Y-68247913D01*
X143685913Y-68097003D01*
X143808326Y-67922180D01*
X143898521Y-67728755D01*
X143899750Y-67724167D01*
X143933689Y-67673851D01*
X143987518Y-67645230D01*
X144048482Y-67645230D01*
X144102311Y-67673851D01*
X144136249Y-67724167D01*
X144137479Y-67728755D01*
X144139802Y-67733737D01*
X144139805Y-67733744D01*
X144178861Y-67817499D01*
X144227674Y-67922180D01*
X144230827Y-67926683D01*
X144230830Y-67926688D01*
X144301669Y-68027856D01*
X144350087Y-68097003D01*
X144500997Y-68247913D01*
X144675820Y-68370326D01*
X144869245Y-68460521D01*
X145075392Y-68515758D01*
X145288000Y-68534359D01*
X145500608Y-68515758D01*
X145706755Y-68460521D01*
X145900180Y-68370326D01*
X146075003Y-68247913D01*
X146225913Y-68097003D01*
X146348326Y-67922180D01*
X146438521Y-67728755D01*
X146439750Y-67724167D01*
X146473689Y-67673851D01*
X146527518Y-67645230D01*
X146588482Y-67645230D01*
X146642311Y-67673851D01*
X146676249Y-67724167D01*
X146677479Y-67728755D01*
X146679802Y-67733737D01*
X146679805Y-67733744D01*
X146718861Y-67817499D01*
X146767674Y-67922180D01*
X146770827Y-67926683D01*
X146770830Y-67926688D01*
X146841669Y-68027856D01*
X146890087Y-68097003D01*
X147040997Y-68247913D01*
X147215820Y-68370326D01*
X147409245Y-68460521D01*
X147615392Y-68515758D01*
X147828000Y-68534359D01*
X148040608Y-68515758D01*
X148246755Y-68460521D01*
X148440180Y-68370326D01*
X148615003Y-68247913D01*
X148765913Y-68097003D01*
X148888326Y-67922180D01*
X148978521Y-67728755D01*
X148979750Y-67724167D01*
X149013689Y-67673851D01*
X149067518Y-67645230D01*
X149128482Y-67645230D01*
X149182311Y-67673851D01*
X149216249Y-67724167D01*
X149217479Y-67728755D01*
X149219802Y-67733737D01*
X149219805Y-67733744D01*
X149258861Y-67817499D01*
X149307674Y-67922180D01*
X149310827Y-67926683D01*
X149310830Y-67926688D01*
X149381669Y-68027856D01*
X149430087Y-68097003D01*
X149580997Y-68247913D01*
X149755820Y-68370326D01*
X149949245Y-68460521D01*
X150155392Y-68515758D01*
X150368000Y-68534359D01*
X150580608Y-68515758D01*
X150786755Y-68460521D01*
X150980180Y-68370326D01*
X151155003Y-68247913D01*
X151305913Y-68097003D01*
X151428326Y-67922180D01*
X151518521Y-67728755D01*
X151519750Y-67724167D01*
X151553689Y-67673851D01*
X151607518Y-67645230D01*
X151668482Y-67645230D01*
X151722311Y-67673851D01*
X151756249Y-67724167D01*
X151757479Y-67728755D01*
X151759802Y-67733737D01*
X151759805Y-67733744D01*
X151798861Y-67817499D01*
X151847674Y-67922180D01*
X151850827Y-67926683D01*
X151850830Y-67926688D01*
X151921669Y-68027856D01*
X151970087Y-68097003D01*
X152120997Y-68247913D01*
X152295820Y-68370326D01*
X152489245Y-68460521D01*
X152695392Y-68515758D01*
X152908000Y-68534359D01*
X153120608Y-68515758D01*
X153326755Y-68460521D01*
X153520180Y-68370326D01*
X153695003Y-68247913D01*
X153845913Y-68097003D01*
X153968326Y-67922180D01*
X154058521Y-67728755D01*
X154059750Y-67724167D01*
X154093689Y-67673851D01*
X154147518Y-67645230D01*
X154208482Y-67645230D01*
X154262311Y-67673851D01*
X154296249Y-67724167D01*
X154297479Y-67728755D01*
X154299802Y-67733737D01*
X154299805Y-67733744D01*
X154338861Y-67817499D01*
X154387674Y-67922180D01*
X154390827Y-67926683D01*
X154390830Y-67926688D01*
X154461669Y-68027856D01*
X154510087Y-68097003D01*
X154660997Y-68247913D01*
X154835820Y-68370326D01*
X155029245Y-68460521D01*
X155235392Y-68515758D01*
X155448000Y-68534359D01*
X155660608Y-68515758D01*
X155866755Y-68460521D01*
X156060180Y-68370326D01*
X156235003Y-68247913D01*
X156385913Y-68097003D01*
X156508326Y-67922180D01*
X156598521Y-67728755D01*
X156599750Y-67724167D01*
X156633689Y-67673851D01*
X156687518Y-67645230D01*
X156748482Y-67645230D01*
X156802311Y-67673851D01*
X156836249Y-67724167D01*
X156837479Y-67728755D01*
X156839802Y-67733737D01*
X156839805Y-67733744D01*
X156878861Y-67817499D01*
X156927674Y-67922180D01*
X156930827Y-67926683D01*
X156930830Y-67926688D01*
X157001669Y-68027856D01*
X157050087Y-68097003D01*
X157200997Y-68247913D01*
X157375820Y-68370326D01*
X157569245Y-68460521D01*
X157775392Y-68515758D01*
X157988000Y-68534359D01*
X158200608Y-68515758D01*
X158406755Y-68460521D01*
X158600180Y-68370326D01*
X158775003Y-68247913D01*
X158925913Y-68097003D01*
X159048326Y-67922180D01*
X159138521Y-67728755D01*
X159139750Y-67724167D01*
X159173689Y-67673851D01*
X159227518Y-67645230D01*
X159288482Y-67645230D01*
X159342311Y-67673851D01*
X159376249Y-67724167D01*
X159377479Y-67728755D01*
X159379802Y-67733737D01*
X159379805Y-67733744D01*
X159418861Y-67817499D01*
X159467674Y-67922180D01*
X159470827Y-67926683D01*
X159470830Y-67926688D01*
X159541669Y-68027856D01*
X159590087Y-68097003D01*
X159740997Y-68247913D01*
X159915820Y-68370326D01*
X160109245Y-68460521D01*
X160315392Y-68515758D01*
X160528000Y-68534359D01*
X160740608Y-68515758D01*
X160946755Y-68460521D01*
X161140180Y-68370326D01*
X161315003Y-68247913D01*
X161465913Y-68097003D01*
X161588326Y-67922180D01*
X161678521Y-67728755D01*
X161679750Y-67724167D01*
X161713689Y-67673851D01*
X161767518Y-67645230D01*
X161828482Y-67645230D01*
X161882311Y-67673851D01*
X161916249Y-67724167D01*
X161917479Y-67728755D01*
X161919802Y-67733737D01*
X161919805Y-67733744D01*
X161958861Y-67817499D01*
X162007674Y-67922180D01*
X162010827Y-67926683D01*
X162010830Y-67926688D01*
X162081669Y-68027856D01*
X162130087Y-68097003D01*
X162280997Y-68247913D01*
X162455820Y-68370326D01*
X162649245Y-68460521D01*
X162855392Y-68515758D01*
X163068000Y-68534359D01*
X163280608Y-68515758D01*
X163486755Y-68460521D01*
X163680180Y-68370326D01*
X163855003Y-68247913D01*
X164005913Y-68097003D01*
X164128326Y-67922180D01*
X164218521Y-67728755D01*
X164273758Y-67522608D01*
X164292359Y-67310000D01*
X164273758Y-67097392D01*
X164218521Y-66891245D01*
X164128326Y-66697821D01*
X164005913Y-66522997D01*
X163855003Y-66372087D01*
X163769372Y-66312127D01*
X163684688Y-66252830D01*
X163684683Y-66252827D01*
X163680180Y-66249674D01*
X163675192Y-66247348D01*
X163491744Y-66161805D01*
X163491740Y-66161803D01*
X163486755Y-66159479D01*
X163482167Y-66158249D01*
X163431851Y-66124311D01*
X163403230Y-66070482D01*
X163403230Y-66009518D01*
X163431851Y-65955689D01*
X163482167Y-65921750D01*
X163486755Y-65920521D01*
X163680180Y-65830326D01*
X163855003Y-65707913D01*
X164005913Y-65557003D01*
X164128326Y-65382180D01*
X164218521Y-65188755D01*
X164219750Y-65184167D01*
X164253689Y-65133851D01*
X164307518Y-65105230D01*
X164368482Y-65105230D01*
X164422311Y-65133851D01*
X164456249Y-65184167D01*
X164457479Y-65188755D01*
X164459802Y-65193737D01*
X164459805Y-65193744D01*
X164530782Y-65345955D01*
X164547674Y-65382180D01*
X164550827Y-65386683D01*
X164550830Y-65386688D01*
X164578636Y-65426398D01*
X164670087Y-65557003D01*
X164820997Y-65707913D01*
X164995820Y-65830326D01*
X165189245Y-65920521D01*
X165395392Y-65975758D01*
X165608000Y-65994359D01*
X165820608Y-65975758D01*
X166026755Y-65920521D01*
X166220180Y-65830326D01*
X166395003Y-65707913D01*
X166545913Y-65557003D01*
X166668326Y-65382180D01*
X166758521Y-65188755D01*
X166813758Y-64982608D01*
X166832359Y-64770000D01*
X166813758Y-64557392D01*
X166758521Y-64351245D01*
X166668326Y-64157821D01*
X166656392Y-64140778D01*
X166583726Y-64037000D01*
X166545913Y-63982997D01*
X166395003Y-63832087D01*
X166319584Y-63779278D01*
X166224688Y-63712830D01*
X166224683Y-63712827D01*
X166220180Y-63709674D01*
X166215192Y-63707348D01*
X166031736Y-63621801D01*
X166031729Y-63621798D01*
X166026755Y-63619479D01*
X166022165Y-63618249D01*
X165971846Y-63584304D01*
X165943228Y-63530474D01*
X165943232Y-63469509D01*
X165971856Y-63415682D01*
X166022173Y-63381748D01*
X166026755Y-63380521D01*
X166220180Y-63290326D01*
X166395003Y-63167913D01*
X166545913Y-63017003D01*
X166668326Y-62842180D01*
X166758521Y-62648755D01*
X166813758Y-62442608D01*
X166832359Y-62230000D01*
X166813758Y-62017392D01*
X166758521Y-61811245D01*
X166668326Y-61617821D01*
X166656392Y-61600778D01*
X166598412Y-61517974D01*
X166545913Y-61442997D01*
X166395003Y-61292087D01*
X166319584Y-61239278D01*
X166224688Y-61172830D01*
X166224683Y-61172827D01*
X166220180Y-61169674D01*
X166215192Y-61167348D01*
X166031736Y-61081801D01*
X166031729Y-61081798D01*
X166026755Y-61079479D01*
X166022165Y-61078249D01*
X165971846Y-61044304D01*
X165943228Y-60990474D01*
X165943232Y-60929509D01*
X165971856Y-60875682D01*
X166022173Y-60841748D01*
X166026755Y-60840521D01*
X166220180Y-60750326D01*
X166395003Y-60627913D01*
X166545913Y-60477003D01*
X166668326Y-60302180D01*
X166758521Y-60108755D01*
X166813758Y-59902608D01*
X166832359Y-59690000D01*
X166813758Y-59477392D01*
X166758521Y-59271245D01*
X166668326Y-59077821D01*
X166656392Y-59060778D01*
X166598412Y-58977974D01*
X166545913Y-58902997D01*
X166395003Y-58752087D01*
X166319584Y-58699278D01*
X166224688Y-58632830D01*
X166224683Y-58632827D01*
X166220180Y-58629674D01*
X166215192Y-58627348D01*
X166031736Y-58541801D01*
X166031729Y-58541798D01*
X166026755Y-58539479D01*
X166022165Y-58538249D01*
X165971846Y-58504304D01*
X165943228Y-58450474D01*
X165943232Y-58389509D01*
X165971856Y-58335682D01*
X166022173Y-58301748D01*
X166026755Y-58300521D01*
X166220180Y-58210326D01*
X166395003Y-58087913D01*
X166545913Y-57937003D01*
X166668326Y-57762180D01*
X166758521Y-57568755D01*
X166813758Y-57362608D01*
X166832359Y-57150000D01*
X166813758Y-56937392D01*
X166758521Y-56731245D01*
X166668326Y-56537821D01*
X166656392Y-56520778D01*
X166562383Y-56386519D01*
X166545913Y-56362997D01*
X166395003Y-56212087D01*
X166319584Y-56159278D01*
X166224688Y-56092830D01*
X166224683Y-56092827D01*
X166220180Y-56089674D01*
X166199655Y-56080103D01*
X166031736Y-56001801D01*
X166031729Y-56001798D01*
X166026755Y-55999479D01*
X166022165Y-55998249D01*
X165971846Y-55964304D01*
X165943228Y-55910474D01*
X165943232Y-55849509D01*
X165971856Y-55795682D01*
X166022173Y-55761748D01*
X166026755Y-55760521D01*
X166220180Y-55670326D01*
X166395003Y-55547913D01*
X166545913Y-55397003D01*
X166668326Y-55222180D01*
X166758521Y-55028755D01*
X166813758Y-54822608D01*
X166832359Y-54610000D01*
X166813758Y-54397392D01*
X166758521Y-54191245D01*
X166668326Y-53997821D01*
X166656392Y-53980778D01*
X166563420Y-53848000D01*
X166545913Y-53822997D01*
X166395003Y-53672087D01*
X166319584Y-53619278D01*
X166224688Y-53552830D01*
X166224683Y-53552827D01*
X166220180Y-53549674D01*
X166177764Y-53529895D01*
X166031736Y-53461801D01*
X166031729Y-53461798D01*
X166026755Y-53459479D01*
X166022165Y-53458249D01*
X165971846Y-53424304D01*
X165943228Y-53370474D01*
X165943232Y-53309509D01*
X165971856Y-53255682D01*
X166022173Y-53221748D01*
X166026755Y-53220521D01*
X166220180Y-53130326D01*
X166395003Y-53007913D01*
X166545913Y-52857003D01*
X166668326Y-52682180D01*
X166758521Y-52488755D01*
X166813758Y-52282608D01*
X166832359Y-52070000D01*
X166813758Y-51857392D01*
X166758521Y-51651245D01*
X166668326Y-51457821D01*
X166656392Y-51440778D01*
X166583687Y-51336944D01*
X166545913Y-51282997D01*
X166395003Y-51132087D01*
X166319584Y-51079278D01*
X166224688Y-51012830D01*
X166224683Y-51012827D01*
X166220180Y-51009674D01*
X166215192Y-51007348D01*
X166031736Y-50921801D01*
X166031729Y-50921798D01*
X166026755Y-50919479D01*
X166022165Y-50918249D01*
X165971846Y-50884304D01*
X165943228Y-50830474D01*
X165943232Y-50769509D01*
X165971856Y-50715682D01*
X166022173Y-50681748D01*
X166026755Y-50680521D01*
X166220180Y-50590326D01*
X166395003Y-50467913D01*
X166545913Y-50317003D01*
X166668326Y-50142180D01*
X166758521Y-49948755D01*
X166813758Y-49742608D01*
X166832359Y-49530000D01*
X166813758Y-49317392D01*
X166758521Y-49111245D01*
X166668326Y-48917821D01*
X166545913Y-48742997D01*
X166395003Y-48592087D01*
X166319584Y-48539278D01*
X166224688Y-48472830D01*
X166224683Y-48472827D01*
X166220180Y-48469674D01*
X166215192Y-48467348D01*
X166031736Y-48381801D01*
X166031729Y-48381798D01*
X166026755Y-48379479D01*
X166022165Y-48378249D01*
X165971846Y-48344304D01*
X165943228Y-48290474D01*
X165943232Y-48229509D01*
X165971856Y-48175682D01*
X166022173Y-48141748D01*
X166026755Y-48140521D01*
X166220180Y-48050326D01*
X166395003Y-47927913D01*
X166545913Y-47777003D01*
X166668326Y-47602180D01*
X166758521Y-47408755D01*
X166813758Y-47202608D01*
X166832359Y-46990000D01*
X166813758Y-46777392D01*
X166758521Y-46571245D01*
X166668326Y-46377821D01*
X166656392Y-46360778D01*
X166562378Y-46226512D01*
X166545913Y-46202997D01*
X166395003Y-46052087D01*
X166319584Y-45999278D01*
X166224688Y-45932830D01*
X166224683Y-45932827D01*
X166220180Y-45929674D01*
X166215192Y-45927348D01*
X166031736Y-45841801D01*
X166031729Y-45841798D01*
X166026755Y-45839479D01*
X166022165Y-45838249D01*
X165971846Y-45804304D01*
X165943228Y-45750474D01*
X165943232Y-45689509D01*
X165971856Y-45635682D01*
X166022173Y-45601748D01*
X166026755Y-45600521D01*
X166220180Y-45510326D01*
X166395003Y-45387913D01*
X166545913Y-45237003D01*
X166668326Y-45062180D01*
X166758521Y-44868755D01*
X166813758Y-44662608D01*
X166832359Y-44450000D01*
X166813758Y-44237392D01*
X166758521Y-44031245D01*
X166668326Y-43837821D01*
X166656392Y-43820778D01*
X166605066Y-43747476D01*
X166545913Y-43662997D01*
X166395003Y-43512087D01*
X166319584Y-43459278D01*
X166224688Y-43392830D01*
X166224683Y-43392827D01*
X166220180Y-43389674D01*
X166215192Y-43387348D01*
X166031744Y-43301805D01*
X166031740Y-43301803D01*
X166026755Y-43299479D01*
X166022167Y-43298249D01*
X165971851Y-43264311D01*
X165943230Y-43210482D01*
X165943230Y-43149518D01*
X165971851Y-43095689D01*
X166022167Y-43061750D01*
X166026755Y-43060521D01*
X166220180Y-42970326D01*
X166395003Y-42847913D01*
X166545913Y-42697003D01*
X166668326Y-42522180D01*
X166758521Y-42328755D01*
X166813758Y-42122608D01*
X166832359Y-41910000D01*
X166813758Y-41697392D01*
X166758521Y-41491245D01*
X166668326Y-41297821D01*
X166656392Y-41280778D01*
X166611878Y-41217205D01*
X166545913Y-41122997D01*
X166395003Y-40972087D01*
X166312341Y-40914206D01*
X166224688Y-40852830D01*
X166224683Y-40852827D01*
X166220180Y-40849674D01*
X166180288Y-40831072D01*
X166031744Y-40761805D01*
X166031740Y-40761803D01*
X166026755Y-40759479D01*
X166022167Y-40758249D01*
X165971851Y-40724311D01*
X165943230Y-40670482D01*
X165943230Y-40609518D01*
X165971851Y-40555689D01*
X166022167Y-40521750D01*
X166026755Y-40520521D01*
X166220180Y-40430326D01*
X166395003Y-40307913D01*
X166545913Y-40157003D01*
X166668326Y-39982180D01*
X166758521Y-39788755D01*
X166813758Y-39582608D01*
X166832359Y-39370000D01*
X166813758Y-39157392D01*
X166758521Y-38951245D01*
X166668326Y-38757821D01*
X166649740Y-38731278D01*
X166618912Y-38687250D01*
X166545913Y-38582997D01*
X166395003Y-38432087D01*
X166292860Y-38360565D01*
X166224688Y-38312830D01*
X166224683Y-38312827D01*
X166220180Y-38309674D01*
X166131283Y-38268221D01*
X166031737Y-38221802D01*
X166031735Y-38221801D01*
X166026755Y-38219479D01*
X166021446Y-38218056D01*
X166021445Y-38218056D01*
X165825922Y-38165666D01*
X165825923Y-38165666D01*
X165820608Y-38164242D01*
X165815132Y-38163762D01*
X165815127Y-38163762D01*
X165613475Y-38146120D01*
X165608000Y-38145641D01*
X165602525Y-38146120D01*
X165400872Y-38163762D01*
X165400865Y-38163763D01*
X165395392Y-38164242D01*
X165390078Y-38165665D01*
X165390077Y-38165666D01*
X165194554Y-38218056D01*
X165194549Y-38218057D01*
X165189245Y-38219479D01*
X165184267Y-38221799D01*
X165184262Y-38221802D01*
X165000808Y-38307348D01*
X165000803Y-38307350D01*
X164995821Y-38309674D01*
X164991322Y-38312824D01*
X164991312Y-38312830D01*
X164825508Y-38428928D01*
X164825505Y-38428930D01*
X164820997Y-38432087D01*
X164817105Y-38435978D01*
X164817099Y-38435984D01*
X164673984Y-38579099D01*
X164673978Y-38579105D01*
X164670087Y-38582997D01*
X164666930Y-38587505D01*
X164666928Y-38587508D01*
X164550830Y-38753312D01*
X164550824Y-38753322D01*
X164547674Y-38757821D01*
X164545350Y-38762803D01*
X164545348Y-38762808D01*
X164459803Y-38946259D01*
X164459799Y-38946268D01*
X164457479Y-38951245D01*
X164456249Y-38955831D01*
X164422310Y-39006149D01*
X164368482Y-39034769D01*
X164307518Y-39034769D01*
X164253690Y-39006149D01*
X164219750Y-38955831D01*
X164218521Y-38951245D01*
X164128326Y-38757821D01*
X164109740Y-38731278D01*
X164078912Y-38687250D01*
X164005913Y-38582997D01*
X163855003Y-38432087D01*
X163752860Y-38360565D01*
X163684688Y-38312830D01*
X163684683Y-38312827D01*
X163680180Y-38309674D01*
X163675192Y-38307348D01*
X163491744Y-38221805D01*
X163491740Y-38221803D01*
X163486755Y-38219479D01*
X163482167Y-38218249D01*
X163431851Y-38184311D01*
X163403230Y-38130482D01*
X163403230Y-38069518D01*
X163431851Y-38015689D01*
X163482167Y-37981750D01*
X163486755Y-37980521D01*
X163680180Y-37890326D01*
X163855003Y-37767913D01*
X164005913Y-37617003D01*
X164128326Y-37442180D01*
X164218521Y-37248755D01*
X164273758Y-37042608D01*
X164292359Y-36830000D01*
X164273758Y-36617392D01*
X164218521Y-36411245D01*
X164128326Y-36217821D01*
X164005913Y-36042997D01*
X163855003Y-35892087D01*
X163776652Y-35837225D01*
X163684688Y-35772830D01*
X163684683Y-35772827D01*
X163680180Y-35769674D01*
X163669927Y-35764893D01*
X163491737Y-35681802D01*
X163491735Y-35681801D01*
X163486755Y-35679479D01*
X163481446Y-35678056D01*
X163481445Y-35678056D01*
X163285922Y-35625666D01*
X163285923Y-35625666D01*
X163280608Y-35624242D01*
X163275132Y-35623762D01*
X163275127Y-35623762D01*
X163073475Y-35606120D01*
X163068000Y-35605641D01*
X163062525Y-35606120D01*
X162860872Y-35623762D01*
X162860865Y-35623763D01*
X162855392Y-35624242D01*
X162850078Y-35625665D01*
X162850077Y-35625666D01*
X162654554Y-35678056D01*
X162654549Y-35678057D01*
X162649245Y-35679479D01*
X162644267Y-35681799D01*
X162644262Y-35681802D01*
X162460808Y-35767348D01*
X162460803Y-35767350D01*
X162455821Y-35769674D01*
X162451322Y-35772824D01*
X162451312Y-35772830D01*
X162285508Y-35888928D01*
X162285505Y-35888930D01*
X162280997Y-35892087D01*
X162277105Y-35895978D01*
X162277099Y-35895984D01*
X162133984Y-36039099D01*
X162133978Y-36039105D01*
X162130087Y-36042997D01*
X162126930Y-36047505D01*
X162126928Y-36047508D01*
X162010830Y-36213312D01*
X162010824Y-36213322D01*
X162007674Y-36217821D01*
X162005350Y-36222803D01*
X162005348Y-36222808D01*
X161919803Y-36406259D01*
X161919799Y-36406268D01*
X161917479Y-36411245D01*
X161916249Y-36415831D01*
X161882310Y-36466149D01*
X161828482Y-36494769D01*
X161767518Y-36494769D01*
X161713690Y-36466149D01*
X161679750Y-36415831D01*
X161678521Y-36411245D01*
X161588326Y-36217821D01*
X161465913Y-36042997D01*
X161315003Y-35892087D01*
X161236652Y-35837225D01*
X161144688Y-35772830D01*
X161144683Y-35772827D01*
X161140180Y-35769674D01*
X161129927Y-35764893D01*
X160951737Y-35681802D01*
X160951735Y-35681801D01*
X160946755Y-35679479D01*
X160941446Y-35678056D01*
X160941445Y-35678056D01*
X160745922Y-35625666D01*
X160745923Y-35625666D01*
X160740608Y-35624242D01*
X160735132Y-35623762D01*
X160735127Y-35623762D01*
X160533475Y-35606120D01*
X160528000Y-35605641D01*
X160522525Y-35606120D01*
X160320872Y-35623762D01*
X160320865Y-35623763D01*
X160315392Y-35624242D01*
X160310078Y-35625665D01*
X160310077Y-35625666D01*
X160114554Y-35678056D01*
X160114549Y-35678057D01*
X160109245Y-35679479D01*
X160104267Y-35681799D01*
X160104262Y-35681802D01*
X159920808Y-35767348D01*
X159920803Y-35767350D01*
X159915821Y-35769674D01*
X159911322Y-35772824D01*
X159911312Y-35772830D01*
X159745508Y-35888928D01*
X159745505Y-35888930D01*
X159740997Y-35892087D01*
X159737105Y-35895978D01*
X159737099Y-35895984D01*
X159593984Y-36039099D01*
X159593978Y-36039105D01*
X159590087Y-36042997D01*
X159586930Y-36047505D01*
X159586928Y-36047508D01*
X159470830Y-36213312D01*
X159470824Y-36213322D01*
X159467674Y-36217821D01*
X159465350Y-36222803D01*
X159465348Y-36222808D01*
X159379803Y-36406259D01*
X159379799Y-36406268D01*
X159377479Y-36411245D01*
X159376249Y-36415831D01*
X159342310Y-36466149D01*
X159288482Y-36494769D01*
X159227518Y-36494769D01*
X159173690Y-36466149D01*
X159139750Y-36415831D01*
X159138521Y-36411245D01*
X159048326Y-36217821D01*
X158925913Y-36042997D01*
X158775003Y-35892087D01*
X158696652Y-35837225D01*
X158604688Y-35772830D01*
X158604683Y-35772827D01*
X158600180Y-35769674D01*
X158589927Y-35764893D01*
X158411737Y-35681802D01*
X158411735Y-35681801D01*
X158406755Y-35679479D01*
X158401446Y-35678056D01*
X158401445Y-35678056D01*
X158205922Y-35625666D01*
X158205923Y-35625666D01*
X158200608Y-35624242D01*
X158195132Y-35623762D01*
X158195127Y-35623762D01*
X157993475Y-35606120D01*
X157988000Y-35605641D01*
X157982525Y-35606120D01*
X157780872Y-35623762D01*
X157780865Y-35623763D01*
X157775392Y-35624242D01*
X157770078Y-35625665D01*
X157770077Y-35625666D01*
X157574554Y-35678056D01*
X157574549Y-35678057D01*
X157569245Y-35679479D01*
X157564267Y-35681799D01*
X157564262Y-35681802D01*
X157380808Y-35767348D01*
X157380803Y-35767350D01*
X157375821Y-35769674D01*
X157371322Y-35772824D01*
X157371312Y-35772830D01*
X157205508Y-35888928D01*
X157205505Y-35888930D01*
X157200997Y-35892087D01*
X157197105Y-35895978D01*
X157197099Y-35895984D01*
X157053984Y-36039099D01*
X157053978Y-36039105D01*
X157050087Y-36042997D01*
X157046930Y-36047505D01*
X157046928Y-36047508D01*
X156930830Y-36213312D01*
X156930824Y-36213322D01*
X156927674Y-36217821D01*
X156925350Y-36222803D01*
X156925348Y-36222808D01*
X156839803Y-36406259D01*
X156839799Y-36406268D01*
X156837479Y-36411245D01*
X156836249Y-36415831D01*
X156802310Y-36466149D01*
X156748482Y-36494769D01*
X156687518Y-36494769D01*
X156633690Y-36466149D01*
X156599750Y-36415831D01*
X156598521Y-36411245D01*
X156508326Y-36217821D01*
X156385913Y-36042997D01*
X156235003Y-35892087D01*
X156156652Y-35837225D01*
X156064688Y-35772830D01*
X156064683Y-35772827D01*
X156060180Y-35769674D01*
X156049927Y-35764893D01*
X155871737Y-35681802D01*
X155871735Y-35681801D01*
X155866755Y-35679479D01*
X155861446Y-35678056D01*
X155861445Y-35678056D01*
X155665922Y-35625666D01*
X155665923Y-35625666D01*
X155660608Y-35624242D01*
X155655132Y-35623762D01*
X155655127Y-35623762D01*
X155453475Y-35606120D01*
X155448000Y-35605641D01*
X155442525Y-35606120D01*
X155240872Y-35623762D01*
X155240865Y-35623763D01*
X155235392Y-35624242D01*
X155230078Y-35625665D01*
X155230077Y-35625666D01*
X155034554Y-35678056D01*
X155034549Y-35678057D01*
X155029245Y-35679479D01*
X155024267Y-35681799D01*
X155024262Y-35681802D01*
X154840808Y-35767348D01*
X154840803Y-35767350D01*
X154835821Y-35769674D01*
X154831322Y-35772824D01*
X154831312Y-35772830D01*
X154665508Y-35888928D01*
X154665505Y-35888930D01*
X154660997Y-35892087D01*
X154657105Y-35895978D01*
X154657099Y-35895984D01*
X154513984Y-36039099D01*
X154513978Y-36039105D01*
X154510087Y-36042997D01*
X154506930Y-36047505D01*
X154506928Y-36047508D01*
X154390830Y-36213312D01*
X154390824Y-36213322D01*
X154387674Y-36217821D01*
X154385350Y-36222803D01*
X154385348Y-36222808D01*
X154299803Y-36406259D01*
X154299799Y-36406268D01*
X154297479Y-36411245D01*
X154296249Y-36415831D01*
X154262310Y-36466149D01*
X154208482Y-36494769D01*
X154147518Y-36494769D01*
X154093690Y-36466149D01*
X154059750Y-36415831D01*
X154058521Y-36411245D01*
X153968326Y-36217821D01*
X153845913Y-36042997D01*
X153695003Y-35892087D01*
X153616652Y-35837225D01*
X153524688Y-35772830D01*
X153524683Y-35772827D01*
X153520180Y-35769674D01*
X153509927Y-35764893D01*
X153331737Y-35681802D01*
X153331735Y-35681801D01*
X153326755Y-35679479D01*
X153321446Y-35678056D01*
X153321445Y-35678056D01*
X153125922Y-35625666D01*
X153125923Y-35625666D01*
X153120608Y-35624242D01*
X153115132Y-35623762D01*
X153115127Y-35623762D01*
X152913475Y-35606120D01*
X152908000Y-35605641D01*
X152902525Y-35606120D01*
X152700872Y-35623762D01*
X152700865Y-35623763D01*
X152695392Y-35624242D01*
X152690078Y-35625665D01*
X152690077Y-35625666D01*
X152494554Y-35678056D01*
X152494549Y-35678057D01*
X152489245Y-35679479D01*
X152484267Y-35681799D01*
X152484262Y-35681802D01*
X152300808Y-35767348D01*
X152300803Y-35767350D01*
X152295821Y-35769674D01*
X152291322Y-35772824D01*
X152291312Y-35772830D01*
X152125508Y-35888928D01*
X152125505Y-35888930D01*
X152120997Y-35892087D01*
X152117105Y-35895978D01*
X152117099Y-35895984D01*
X151973984Y-36039099D01*
X151973978Y-36039105D01*
X151970087Y-36042997D01*
X151966930Y-36047505D01*
X151966928Y-36047508D01*
X151850830Y-36213312D01*
X151850824Y-36213322D01*
X151847674Y-36217821D01*
X151845350Y-36222803D01*
X151845348Y-36222808D01*
X151759803Y-36406259D01*
X151759799Y-36406268D01*
X151757479Y-36411245D01*
X151756249Y-36415831D01*
X151722310Y-36466149D01*
X151668482Y-36494769D01*
X151607518Y-36494769D01*
X151553690Y-36466149D01*
X151519750Y-36415831D01*
X151518521Y-36411245D01*
X151428326Y-36217821D01*
X151305913Y-36042997D01*
X151155003Y-35892087D01*
X151076652Y-35837225D01*
X150984688Y-35772830D01*
X150984683Y-35772827D01*
X150980180Y-35769674D01*
X150969927Y-35764893D01*
X150791737Y-35681802D01*
X150791735Y-35681801D01*
X150786755Y-35679479D01*
X150781446Y-35678056D01*
X150781445Y-35678056D01*
X150585922Y-35625666D01*
X150585923Y-35625666D01*
X150580608Y-35624242D01*
X150575132Y-35623762D01*
X150575127Y-35623762D01*
X150373475Y-35606120D01*
X150368000Y-35605641D01*
X150362525Y-35606120D01*
X150160872Y-35623762D01*
X150160865Y-35623763D01*
X150155392Y-35624242D01*
X150150078Y-35625665D01*
X150150077Y-35625666D01*
X149954554Y-35678056D01*
X149954549Y-35678057D01*
X149949245Y-35679479D01*
X149944267Y-35681799D01*
X149944262Y-35681802D01*
X149760808Y-35767348D01*
X149760803Y-35767350D01*
X149755821Y-35769674D01*
X149751322Y-35772824D01*
X149751312Y-35772830D01*
X149585508Y-35888928D01*
X149585505Y-35888930D01*
X149580997Y-35892087D01*
X149577105Y-35895978D01*
X149577099Y-35895984D01*
X149433984Y-36039099D01*
X149433978Y-36039105D01*
X149430087Y-36042997D01*
X149426930Y-36047505D01*
X149426928Y-36047508D01*
X149310830Y-36213312D01*
X149310824Y-36213322D01*
X149307674Y-36217821D01*
X149305350Y-36222803D01*
X149305348Y-36222808D01*
X149219803Y-36406259D01*
X149219799Y-36406268D01*
X149217479Y-36411245D01*
X149216249Y-36415831D01*
X149182310Y-36466149D01*
X149128482Y-36494769D01*
X149067518Y-36494769D01*
X149013690Y-36466149D01*
X148979750Y-36415831D01*
X148978521Y-36411245D01*
X148888326Y-36217821D01*
X148765913Y-36042997D01*
X148615003Y-35892087D01*
X148536652Y-35837225D01*
X148444688Y-35772830D01*
X148444683Y-35772827D01*
X148440180Y-35769674D01*
X148429927Y-35764893D01*
X148251737Y-35681802D01*
X148251735Y-35681801D01*
X148246755Y-35679479D01*
X148241446Y-35678056D01*
X148241445Y-35678056D01*
X148045922Y-35625666D01*
X148045923Y-35625666D01*
X148040608Y-35624242D01*
X148035132Y-35623762D01*
X148035127Y-35623762D01*
X147833475Y-35606120D01*
X147828000Y-35605641D01*
X147822525Y-35606120D01*
X147620872Y-35623762D01*
X147620865Y-35623763D01*
X147615392Y-35624242D01*
X147610078Y-35625665D01*
X147610077Y-35625666D01*
X147414554Y-35678056D01*
X147414549Y-35678057D01*
X147409245Y-35679479D01*
X147404267Y-35681799D01*
X147404262Y-35681802D01*
X147220808Y-35767348D01*
X147220803Y-35767350D01*
X147215821Y-35769674D01*
X147211322Y-35772824D01*
X147211312Y-35772830D01*
X147045508Y-35888928D01*
X147045505Y-35888930D01*
X147040997Y-35892087D01*
X147037105Y-35895978D01*
X147037099Y-35895984D01*
X146893984Y-36039099D01*
X146893978Y-36039105D01*
X146890087Y-36042997D01*
X146886930Y-36047505D01*
X146886928Y-36047508D01*
X146770830Y-36213312D01*
X146770824Y-36213322D01*
X146767674Y-36217821D01*
X146765350Y-36222803D01*
X146765348Y-36222808D01*
X146679803Y-36406259D01*
X146679799Y-36406268D01*
X146677479Y-36411245D01*
X146676249Y-36415831D01*
X146642310Y-36466149D01*
X146588482Y-36494769D01*
X146527518Y-36494769D01*
X146473690Y-36466149D01*
X146439750Y-36415831D01*
X146438521Y-36411245D01*
X146348326Y-36217821D01*
X146225913Y-36042997D01*
X146075003Y-35892087D01*
X145996652Y-35837225D01*
X145904688Y-35772830D01*
X145904683Y-35772827D01*
X145900180Y-35769674D01*
X145889927Y-35764893D01*
X145711737Y-35681802D01*
X145711735Y-35681801D01*
X145706755Y-35679479D01*
X145701446Y-35678056D01*
X145701445Y-35678056D01*
X145505922Y-35625666D01*
X145505923Y-35625666D01*
X145500608Y-35624242D01*
X145495132Y-35623762D01*
X145495127Y-35623762D01*
X145293475Y-35606120D01*
X145288000Y-35605641D01*
X145282525Y-35606120D01*
X145080872Y-35623762D01*
X145080865Y-35623763D01*
X145075392Y-35624242D01*
X145070078Y-35625665D01*
X145070077Y-35625666D01*
X144874554Y-35678056D01*
X144874549Y-35678057D01*
X144869245Y-35679479D01*
X144864267Y-35681799D01*
X144864262Y-35681802D01*
X144680808Y-35767348D01*
X144680803Y-35767350D01*
X144675821Y-35769674D01*
X144671322Y-35772824D01*
X144671312Y-35772830D01*
X144505508Y-35888928D01*
X144505505Y-35888930D01*
X144500997Y-35892087D01*
X144497105Y-35895978D01*
X144497099Y-35895984D01*
X144353984Y-36039099D01*
X144353978Y-36039105D01*
X144350087Y-36042997D01*
X144346930Y-36047505D01*
X144346928Y-36047508D01*
X144230830Y-36213312D01*
X144230824Y-36213322D01*
X144227674Y-36217821D01*
X144225350Y-36222803D01*
X144225348Y-36222808D01*
X144139803Y-36406259D01*
X144139799Y-36406268D01*
X144137479Y-36411245D01*
X144136249Y-36415831D01*
X144102310Y-36466149D01*
X144048482Y-36494769D01*
X143987518Y-36494769D01*
X143933690Y-36466149D01*
X143899750Y-36415831D01*
X143898521Y-36411245D01*
X143808326Y-36217821D01*
X143685913Y-36042997D01*
X143535003Y-35892087D01*
X143456652Y-35837225D01*
X143364688Y-35772830D01*
X143364683Y-35772827D01*
X143360180Y-35769674D01*
X143349927Y-35764893D01*
X143171737Y-35681802D01*
X143171735Y-35681801D01*
X143166755Y-35679479D01*
X143161446Y-35678056D01*
X143161445Y-35678056D01*
X142965922Y-35625666D01*
X142965923Y-35625666D01*
X142960608Y-35624242D01*
X142955132Y-35623762D01*
X142955127Y-35623762D01*
X142753475Y-35606120D01*
X142748000Y-35605641D01*
X142742525Y-35606120D01*
X142540872Y-35623762D01*
X142540865Y-35623763D01*
X142535392Y-35624242D01*
X142530078Y-35625665D01*
X142530077Y-35625666D01*
X142334554Y-35678056D01*
X142334549Y-35678057D01*
X142329245Y-35679479D01*
X142324267Y-35681799D01*
X142324262Y-35681802D01*
X142140808Y-35767348D01*
X142140803Y-35767350D01*
X142135821Y-35769674D01*
X142131322Y-35772824D01*
X142131312Y-35772830D01*
X141965508Y-35888928D01*
X141965505Y-35888930D01*
X141960997Y-35892087D01*
X141957105Y-35895978D01*
X141957099Y-35895984D01*
X141813984Y-36039099D01*
X141813978Y-36039105D01*
X141810087Y-36042997D01*
X141806930Y-36047505D01*
X141806928Y-36047508D01*
X141690830Y-36213312D01*
X141690824Y-36213322D01*
X141687674Y-36217821D01*
X141685350Y-36222803D01*
X141685348Y-36222808D01*
X141599803Y-36406259D01*
X141599799Y-36406268D01*
X141597479Y-36411245D01*
X141596249Y-36415831D01*
X141562310Y-36466149D01*
X141508482Y-36494769D01*
X141447518Y-36494769D01*
X141393690Y-36466149D01*
X141359750Y-36415831D01*
X141358521Y-36411245D01*
X141268326Y-36217821D01*
X141145913Y-36042997D01*
X140995003Y-35892087D01*
X140916652Y-35837225D01*
X140824688Y-35772830D01*
X140824683Y-35772827D01*
X140820180Y-35769674D01*
X140809927Y-35764893D01*
X140631737Y-35681802D01*
X140631735Y-35681801D01*
X140626755Y-35679479D01*
X140621446Y-35678056D01*
X140621445Y-35678056D01*
X140425922Y-35625666D01*
X140425923Y-35625666D01*
X140420608Y-35624242D01*
X140415132Y-35623762D01*
X140415127Y-35623762D01*
X140213475Y-35606120D01*
X140208000Y-35605641D01*
X140202525Y-35606120D01*
X140000872Y-35623762D01*
X140000865Y-35623763D01*
X139995392Y-35624242D01*
X139990078Y-35625665D01*
X139990077Y-35625666D01*
X139794554Y-35678056D01*
X139794549Y-35678057D01*
X139789245Y-35679479D01*
X139784267Y-35681799D01*
X139784262Y-35681802D01*
X139600808Y-35767348D01*
X139600803Y-35767350D01*
X139595821Y-35769674D01*
X139591322Y-35772824D01*
X139591312Y-35772830D01*
X139425508Y-35888928D01*
X139425505Y-35888930D01*
X139420997Y-35892087D01*
X139417105Y-35895978D01*
X139417099Y-35895984D01*
X139273984Y-36039099D01*
X139273978Y-36039105D01*
X139270087Y-36042997D01*
X139266930Y-36047505D01*
X139266928Y-36047508D01*
X139150830Y-36213312D01*
X139150824Y-36213322D01*
X139147674Y-36217821D01*
X139145350Y-36222803D01*
X139145348Y-36222808D01*
X139059803Y-36406259D01*
X139059799Y-36406268D01*
X139057479Y-36411245D01*
X139056249Y-36415831D01*
X139022310Y-36466149D01*
X138968482Y-36494769D01*
X138907518Y-36494769D01*
X138853690Y-36466149D01*
X138819750Y-36415831D01*
X138818521Y-36411245D01*
X138728326Y-36217821D01*
X138605913Y-36042997D01*
X138455003Y-35892087D01*
X138376652Y-35837225D01*
X138284688Y-35772830D01*
X138284683Y-35772827D01*
X138280180Y-35769674D01*
X138269927Y-35764893D01*
X138091737Y-35681802D01*
X138091735Y-35681801D01*
X138086755Y-35679479D01*
X138081446Y-35678056D01*
X138081445Y-35678056D01*
X137885922Y-35625666D01*
X137885923Y-35625666D01*
X137880608Y-35624242D01*
X137875132Y-35623762D01*
X137875127Y-35623762D01*
X137673475Y-35606120D01*
X137668000Y-35605641D01*
X137662525Y-35606120D01*
X137460872Y-35623762D01*
X137460865Y-35623763D01*
X137455392Y-35624242D01*
X137450078Y-35625665D01*
X137450077Y-35625666D01*
X137254554Y-35678056D01*
X137254549Y-35678057D01*
X137249245Y-35679479D01*
X137244267Y-35681799D01*
X137244262Y-35681802D01*
X137060808Y-35767348D01*
X137060803Y-35767350D01*
X137055821Y-35769674D01*
X137051322Y-35772824D01*
X137051312Y-35772830D01*
X136885508Y-35888928D01*
X136885505Y-35888930D01*
X136880997Y-35892087D01*
X136877105Y-35895978D01*
X136877099Y-35895984D01*
X136733984Y-36039099D01*
X136733978Y-36039105D01*
X136730087Y-36042997D01*
X136726930Y-36047505D01*
X136726928Y-36047508D01*
X136610830Y-36213312D01*
X136610824Y-36213322D01*
X136607674Y-36217821D01*
X136605350Y-36222803D01*
X136605348Y-36222808D01*
X136519802Y-36406262D01*
X136519799Y-36406267D01*
X136517479Y-36411245D01*
X136516057Y-36416549D01*
X136516056Y-36416554D01*
X136480448Y-36549446D01*
X136462242Y-36617392D01*
X136461763Y-36622865D01*
X136461762Y-36622872D01*
X136460553Y-36636692D01*
X136443641Y-36830000D01*
X136444120Y-36835475D01*
X136452677Y-36933289D01*
X136462242Y-37042608D01*
X136477047Y-37097862D01*
X136495098Y-37165230D01*
X136517479Y-37248755D01*
X136607674Y-37442180D01*
X136610827Y-37446683D01*
X136610830Y-37446688D01*
X136610959Y-37446872D01*
X136730087Y-37617003D01*
X136880997Y-37767913D01*
X137055820Y-37890326D01*
X137249245Y-37980521D01*
X137253831Y-37981750D01*
X137304149Y-38015690D01*
X137332769Y-38069518D01*
X137332769Y-38130482D01*
X137304149Y-38184310D01*
X137253831Y-38218249D01*
X137249245Y-38219479D01*
X137244268Y-38221799D01*
X137244259Y-38221803D01*
X137060808Y-38307348D01*
X137060803Y-38307350D01*
X137055821Y-38309674D01*
X137051322Y-38312824D01*
X137051312Y-38312830D01*
X136885508Y-38428928D01*
X136885505Y-38428930D01*
X136880997Y-38432087D01*
X136877105Y-38435978D01*
X136877099Y-38435984D01*
X136733984Y-38579099D01*
X136733978Y-38579105D01*
X136730087Y-38582997D01*
X136726930Y-38587505D01*
X136726928Y-38587508D01*
X136610830Y-38753312D01*
X136610824Y-38753322D01*
X136607674Y-38757821D01*
X136605350Y-38762803D01*
X136605348Y-38762808D01*
X136519803Y-38946259D01*
X136519799Y-38946268D01*
X136517479Y-38951245D01*
X136516249Y-38955831D01*
X136482310Y-39006149D01*
X136428482Y-39034769D01*
X136367518Y-39034769D01*
X136313690Y-39006149D01*
X136279750Y-38955831D01*
X136278521Y-38951245D01*
X136188326Y-38757821D01*
X136169740Y-38731278D01*
X136138912Y-38687250D01*
X136065913Y-38582997D01*
X135915003Y-38432087D01*
X135812860Y-38360565D01*
X135744688Y-38312830D01*
X135744683Y-38312827D01*
X135740180Y-38309674D01*
X135651283Y-38268221D01*
X135551737Y-38221802D01*
X135551735Y-38221801D01*
X135546755Y-38219479D01*
X135541446Y-38218056D01*
X135541445Y-38218056D01*
X135345922Y-38165666D01*
X135345923Y-38165666D01*
X135340608Y-38164242D01*
X135335132Y-38163762D01*
X135335127Y-38163762D01*
X135133475Y-38146120D01*
X135128000Y-38145641D01*
X135122525Y-38146120D01*
X134920872Y-38163762D01*
X134920865Y-38163763D01*
X134915392Y-38164242D01*
X134910078Y-38165665D01*
X134910077Y-38165666D01*
X134714554Y-38218056D01*
X134714549Y-38218057D01*
X134709245Y-38219479D01*
X134704267Y-38221799D01*
X134704262Y-38221802D01*
X134520808Y-38307348D01*
X134520803Y-38307350D01*
X134515821Y-38309674D01*
X134511322Y-38312824D01*
X134511312Y-38312830D01*
X134345508Y-38428928D01*
X134345505Y-38428930D01*
X134340997Y-38432087D01*
X134337105Y-38435978D01*
X134337099Y-38435984D01*
X134193984Y-38579099D01*
X134193978Y-38579105D01*
X134190087Y-38582997D01*
X134186930Y-38587505D01*
X134186928Y-38587508D01*
X134070830Y-38753312D01*
X134070824Y-38753322D01*
X134067674Y-38757821D01*
X134065350Y-38762803D01*
X134065348Y-38762808D01*
X133979802Y-38946262D01*
X133979799Y-38946267D01*
X133977479Y-38951245D01*
X133976057Y-38956549D01*
X133976056Y-38956554D01*
X133923666Y-39152077D01*
X133922242Y-39157392D01*
X133921763Y-39162865D01*
X133921762Y-39162872D01*
X133904667Y-39358270D01*
X133903641Y-39370000D01*
X133904120Y-39375475D01*
X133920806Y-39566205D01*
X133922242Y-39582608D01*
X133923666Y-39587922D01*
X133955098Y-39705230D01*
X133977479Y-39788755D01*
X133979801Y-39793735D01*
X133979802Y-39793737D01*
X134055366Y-39955785D01*
X134067674Y-39982180D01*
X134070827Y-39986683D01*
X134070830Y-39986688D01*
X134114368Y-40048866D01*
X134190087Y-40157003D01*
X134340997Y-40307913D01*
X134462529Y-40393011D01*
X134510685Y-40426731D01*
X134515820Y-40430326D01*
X134709245Y-40520521D01*
X134713831Y-40521750D01*
X134764149Y-40555690D01*
X134792769Y-40609518D01*
X134792769Y-40670482D01*
X134764149Y-40724310D01*
X134713831Y-40758249D01*
X134709245Y-40759479D01*
X134704268Y-40761799D01*
X134704259Y-40761803D01*
X134520808Y-40847348D01*
X134520803Y-40847350D01*
X134515821Y-40849674D01*
X134511322Y-40852824D01*
X134511312Y-40852830D01*
X134345508Y-40968928D01*
X134345505Y-40968930D01*
X134340997Y-40972087D01*
X134337105Y-40975978D01*
X134337099Y-40975984D01*
X134193984Y-41119099D01*
X134193978Y-41119105D01*
X134190087Y-41122997D01*
X134186930Y-41127505D01*
X134186928Y-41127508D01*
X134070830Y-41293312D01*
X134070824Y-41293322D01*
X134067674Y-41297821D01*
X134065350Y-41302803D01*
X134065348Y-41302808D01*
X133979802Y-41486262D01*
X133979799Y-41486267D01*
X133977479Y-41491245D01*
X133976057Y-41496549D01*
X133976056Y-41496554D01*
X133923666Y-41692077D01*
X133922242Y-41697392D01*
X133921763Y-41702865D01*
X133921762Y-41702872D01*
X133905644Y-41887108D01*
X133903641Y-41910000D01*
X133904120Y-41915475D01*
X133913374Y-42021256D01*
X133922242Y-42122608D01*
X133932336Y-42160278D01*
X133955098Y-42245230D01*
X133977479Y-42328755D01*
X133979801Y-42333735D01*
X133979802Y-42333737D01*
X134018401Y-42416514D01*
X134067674Y-42522180D01*
X134070827Y-42526683D01*
X134070830Y-42526688D01*
X134105921Y-42576802D01*
X134190087Y-42697003D01*
X134340997Y-42847913D01*
X134515820Y-42970326D01*
X134709245Y-43060521D01*
X134713831Y-43061750D01*
X134764149Y-43095690D01*
X134792769Y-43149518D01*
X134792769Y-43210482D01*
X134764149Y-43264310D01*
X134713831Y-43298249D01*
X134709245Y-43299479D01*
X134704268Y-43301799D01*
X134704259Y-43301803D01*
X134520808Y-43387348D01*
X134520803Y-43387350D01*
X134515821Y-43389674D01*
X134511322Y-43392824D01*
X134511312Y-43392830D01*
X134345508Y-43508928D01*
X134345505Y-43508930D01*
X134340997Y-43512087D01*
X134337105Y-43515978D01*
X134337099Y-43515984D01*
X134193984Y-43659099D01*
X134193978Y-43659105D01*
X134190087Y-43662997D01*
X134186930Y-43667505D01*
X134186928Y-43667508D01*
X134070830Y-43833312D01*
X134070824Y-43833322D01*
X134067674Y-43837821D01*
X134065350Y-43842803D01*
X134065348Y-43842808D01*
X133979802Y-44026262D01*
X133979799Y-44026267D01*
X133977479Y-44031245D01*
X133976057Y-44036549D01*
X133976056Y-44036554D01*
X133923666Y-44232077D01*
X133922242Y-44237392D01*
X133921763Y-44242865D01*
X133921762Y-44242872D01*
X133908572Y-44393635D01*
X133903641Y-44450000D01*
X133904120Y-44455475D01*
X133915326Y-44583565D01*
X133922242Y-44662608D01*
X133923666Y-44667922D01*
X133955098Y-44785230D01*
X133977479Y-44868755D01*
X133979801Y-44873735D01*
X133979802Y-44873737D01*
X134017359Y-44954278D01*
X134067674Y-45062180D01*
X134070827Y-45066683D01*
X134070830Y-45066688D01*
X134141669Y-45167856D01*
X134190087Y-45237003D01*
X134340997Y-45387913D01*
X134515820Y-45510326D01*
X134709245Y-45600521D01*
X134713827Y-45601748D01*
X134764144Y-45635684D01*
X134792767Y-45689510D01*
X134792771Y-45750473D01*
X134764154Y-45804303D01*
X134713833Y-45838249D01*
X134709245Y-45839479D01*
X134704279Y-45841794D01*
X134704267Y-45841799D01*
X134520808Y-45927348D01*
X134520803Y-45927350D01*
X134515821Y-45929674D01*
X134511322Y-45932824D01*
X134511312Y-45932830D01*
X134345508Y-46048928D01*
X134345505Y-46048930D01*
X134340997Y-46052087D01*
X134337105Y-46055978D01*
X134337099Y-46055984D01*
X134193984Y-46199099D01*
X134193978Y-46199105D01*
X134190087Y-46202997D01*
X134186930Y-46207505D01*
X134186928Y-46207508D01*
X134070830Y-46373312D01*
X134070824Y-46373322D01*
X134067674Y-46377821D01*
X134065350Y-46382803D01*
X134065348Y-46382808D01*
X133979802Y-46566262D01*
X133979799Y-46566267D01*
X133977479Y-46571245D01*
X133976057Y-46576549D01*
X133976056Y-46576554D01*
X133944106Y-46695794D01*
X133922242Y-46777392D01*
X133921763Y-46782865D01*
X133921762Y-46782872D01*
X133904120Y-46984525D01*
X133903641Y-46990000D01*
X133922242Y-47202608D01*
X133923666Y-47207922D01*
X133962137Y-47351500D01*
X133977479Y-47408755D01*
X133979801Y-47413735D01*
X133979802Y-47413737D01*
X134007326Y-47472763D01*
X134067674Y-47602180D01*
X134070827Y-47606683D01*
X134070830Y-47606688D01*
X134141669Y-47707856D01*
X134190087Y-47777003D01*
X134340997Y-47927913D01*
X134515820Y-48050326D01*
X134709245Y-48140521D01*
X134713827Y-48141748D01*
X134764144Y-48175684D01*
X134792767Y-48229510D01*
X134792771Y-48290473D01*
X134764154Y-48344303D01*
X134713833Y-48378249D01*
X134709245Y-48379479D01*
X134704279Y-48381794D01*
X134704267Y-48381799D01*
X134520808Y-48467348D01*
X134520803Y-48467350D01*
X134515821Y-48469674D01*
X134511322Y-48472824D01*
X134511312Y-48472830D01*
X134345508Y-48588928D01*
X134345505Y-48588930D01*
X134340997Y-48592087D01*
X134337105Y-48595978D01*
X134337099Y-48595984D01*
X134193984Y-48739099D01*
X134193978Y-48739105D01*
X134190087Y-48742997D01*
X134186930Y-48747505D01*
X134186928Y-48747508D01*
X134070830Y-48913312D01*
X134070824Y-48913322D01*
X134067674Y-48917821D01*
X134065350Y-48922803D01*
X134065348Y-48922808D01*
X133979802Y-49106262D01*
X133979799Y-49106267D01*
X133977479Y-49111245D01*
X133976057Y-49116549D01*
X133976056Y-49116554D01*
X133923666Y-49312077D01*
X133922242Y-49317392D01*
X133921763Y-49322865D01*
X133921762Y-49322872D01*
X133904215Y-49523435D01*
X133903641Y-49530000D01*
X133904120Y-49535475D01*
X133920806Y-49726205D01*
X133922242Y-49742608D01*
X133936246Y-49794872D01*
X133966611Y-49908197D01*
X133977479Y-49948755D01*
X133979801Y-49953735D01*
X133979802Y-49953737D01*
X134039000Y-50080689D01*
X134067674Y-50142180D01*
X134070827Y-50146683D01*
X134070830Y-50146688D01*
X134141669Y-50247856D01*
X134190087Y-50317003D01*
X134340997Y-50467913D01*
X134515820Y-50590326D01*
X134544702Y-50603794D01*
X134558236Y-50610105D01*
X134609445Y-50653842D01*
X134630813Y-50717706D01*
X134616237Y-50783453D01*
X134569881Y-50832303D01*
X134504986Y-50850300D01*
X134368162Y-50850300D01*
X134364815Y-50850659D01*
X134364811Y-50850660D01*
X134315432Y-50855968D01*
X134315425Y-50855969D01*
X134307599Y-50856811D01*
X134300223Y-50859561D01*
X134300219Y-50859563D01*
X134179036Y-50904762D01*
X134179030Y-50904765D01*
X134170596Y-50907911D01*
X134163388Y-50913306D01*
X134163382Y-50913310D01*
X134060750Y-50990140D01*
X134060746Y-50990143D01*
X134053539Y-50995539D01*
X134048143Y-51002746D01*
X134048140Y-51002750D01*
X133971310Y-51105382D01*
X133971306Y-51105388D01*
X133965911Y-51112596D01*
X133962765Y-51121030D01*
X133962762Y-51121036D01*
X133917563Y-51242219D01*
X133917561Y-51242223D01*
X133914811Y-51249599D01*
X133913969Y-51257425D01*
X133913968Y-51257432D01*
X133908660Y-51306811D01*
X133908300Y-51310162D01*
X133908300Y-52829838D01*
X133908659Y-52833185D01*
X133908660Y-52833188D01*
X133913968Y-52882567D01*
X133913969Y-52882573D01*
X133914093Y-52883724D01*
X133914093Y-52883729D01*
X133914811Y-52890401D01*
X133913783Y-52890511D01*
X133910958Y-52952212D01*
X133871883Y-53009185D01*
X133808641Y-53036990D01*
X133740244Y-53027270D01*
X133638322Y-52981892D01*
X133638317Y-52981890D01*
X133632288Y-52979206D01*
X133625835Y-52977834D01*
X133625831Y-52977833D01*
X133451943Y-52940872D01*
X133451940Y-52940871D01*
X133445487Y-52939500D01*
X133254513Y-52939500D01*
X133248060Y-52940871D01*
X133248056Y-52940872D01*
X133074168Y-52977833D01*
X133074161Y-52977835D01*
X133067712Y-52979206D01*
X133061682Y-52981890D01*
X133061681Y-52981891D01*
X132899278Y-53054197D01*
X132899275Y-53054198D01*
X132893248Y-53056882D01*
X132887907Y-53060762D01*
X132887906Y-53060763D01*
X132744091Y-53165250D01*
X132744083Y-53165256D01*
X132738747Y-53169134D01*
X132734330Y-53174039D01*
X132734325Y-53174044D01*
X132635293Y-53284031D01*
X132610960Y-53311056D01*
X132607661Y-53316769D01*
X132607658Y-53316774D01*
X132518777Y-53470721D01*
X132515473Y-53476444D01*
X132513434Y-53482718D01*
X132513430Y-53482728D01*
X132458497Y-53651794D01*
X132458495Y-53651801D01*
X132456458Y-53658072D01*
X132455768Y-53664633D01*
X132455768Y-53664635D01*
X132442309Y-53792689D01*
X132436496Y-53848000D01*
X132456458Y-54037928D01*
X132458495Y-54044200D01*
X132458497Y-54044205D01*
X132513430Y-54213271D01*
X132513433Y-54213278D01*
X132515473Y-54219556D01*
X132610960Y-54384944D01*
X132738747Y-54526866D01*
X132893248Y-54639118D01*
X133067712Y-54716794D01*
X133137431Y-54731612D01*
X133171354Y-54744128D01*
X133200328Y-54765764D01*
X134414591Y-55980027D01*
X134443897Y-56026027D01*
X134451017Y-56080103D01*
X134434616Y-56132121D01*
X134397768Y-56172334D01*
X134345510Y-56208925D01*
X134345495Y-56208936D01*
X134340997Y-56212087D01*
X134337105Y-56215978D01*
X134337099Y-56215984D01*
X134193984Y-56359099D01*
X134193978Y-56359105D01*
X134190087Y-56362997D01*
X134186930Y-56367505D01*
X134186928Y-56367508D01*
X134070830Y-56533312D01*
X134070824Y-56533322D01*
X134067674Y-56537821D01*
X134065350Y-56542803D01*
X134065348Y-56542808D01*
X133979802Y-56726262D01*
X133979799Y-56726267D01*
X133977479Y-56731245D01*
X133976057Y-56736549D01*
X133976056Y-56736554D01*
X133932092Y-56900631D01*
X133922242Y-56937392D01*
X133921763Y-56942865D01*
X133921762Y-56942872D01*
X133904215Y-57143435D01*
X133903641Y-57150000D01*
X133904120Y-57155475D01*
X133913255Y-57259895D01*
X133922242Y-57362608D01*
X133923665Y-57367918D01*
X133923667Y-57367930D01*
X133945015Y-57447599D01*
X133946888Y-57504792D01*
X133923272Y-57556915D01*
X133879038Y-57593217D01*
X133823309Y-57606211D01*
X128444331Y-57606211D01*
X128396113Y-57596620D01*
X128355236Y-57569306D01*
X128073055Y-57287125D01*
X128043377Y-57240089D01*
X128036840Y-57184859D01*
X128039814Y-57156565D01*
X128040504Y-57150000D01*
X128020542Y-56960072D01*
X127961527Y-56778444D01*
X127866040Y-56613056D01*
X127738253Y-56471134D01*
X127732911Y-56467253D01*
X127732908Y-56467250D01*
X127621791Y-56386519D01*
X127583752Y-56358882D01*
X127409288Y-56281206D01*
X127402835Y-56279834D01*
X127402831Y-56279833D01*
X127228943Y-56242872D01*
X127228940Y-56242871D01*
X127222487Y-56241500D01*
X127063000Y-56241500D01*
X127000000Y-56224619D01*
X126953881Y-56178500D01*
X126937000Y-56115500D01*
X126937000Y-55887379D01*
X126947893Y-55836131D01*
X126976354Y-55796957D01*
X126976253Y-55796866D01*
X126976253Y-55796865D01*
X127104040Y-55654944D01*
X127199527Y-55489556D01*
X127258542Y-55307928D01*
X127278504Y-55118000D01*
X127258542Y-54928072D01*
X127224274Y-54822608D01*
X127201569Y-54752728D01*
X127201568Y-54752726D01*
X127199527Y-54746444D01*
X127104040Y-54581056D01*
X127041862Y-54512000D01*
X128880496Y-54512000D01*
X128881186Y-54518565D01*
X128891371Y-54615475D01*
X128900458Y-54701928D01*
X128902495Y-54708200D01*
X128902497Y-54708205D01*
X128957430Y-54877271D01*
X128957433Y-54877278D01*
X128959473Y-54883556D01*
X129054960Y-55048944D01*
X129182747Y-55190866D01*
X129337248Y-55303118D01*
X129511712Y-55380794D01*
X129698513Y-55420500D01*
X129882884Y-55420500D01*
X129889487Y-55420500D01*
X130076288Y-55380794D01*
X130250752Y-55303118D01*
X130405253Y-55190866D01*
X130533040Y-55048944D01*
X130628527Y-54883556D01*
X130687542Y-54701928D01*
X130707504Y-54512000D01*
X130687542Y-54322072D01*
X130658510Y-54232721D01*
X130630569Y-54146728D01*
X130630568Y-54146726D01*
X130628527Y-54140444D01*
X130533040Y-53975056D01*
X130520661Y-53961308D01*
X130492042Y-53907482D01*
X130492042Y-53846518D01*
X130520661Y-53792691D01*
X130533040Y-53778944D01*
X130628527Y-53613556D01*
X130687542Y-53431928D01*
X130707504Y-53242000D01*
X130687542Y-53052072D01*
X130635047Y-52890511D01*
X130630569Y-52876728D01*
X130630568Y-52876726D01*
X130628527Y-52870444D01*
X130533040Y-52705056D01*
X130520662Y-52691309D01*
X130492041Y-52637479D01*
X130492043Y-52576511D01*
X130520667Y-52522685D01*
X130533040Y-52508944D01*
X130628527Y-52343556D01*
X130687542Y-52161928D01*
X130707504Y-51972000D01*
X130687542Y-51782072D01*
X130651181Y-51670166D01*
X130630569Y-51606728D01*
X130630568Y-51606726D01*
X130628527Y-51600444D01*
X130533040Y-51435056D01*
X130520661Y-51421308D01*
X130492042Y-51367482D01*
X130492042Y-51306518D01*
X130520661Y-51252691D01*
X130533040Y-51238944D01*
X130628527Y-51073556D01*
X130687542Y-50891928D01*
X130707504Y-50702000D01*
X130687542Y-50512072D01*
X130628527Y-50330444D01*
X130533040Y-50165056D01*
X130405253Y-50023134D01*
X130399911Y-50019253D01*
X130399908Y-50019250D01*
X130309746Y-49953744D01*
X130250752Y-49910882D01*
X130076288Y-49833206D01*
X130069835Y-49831834D01*
X130069831Y-49831833D01*
X129895943Y-49794872D01*
X129895940Y-49794871D01*
X129889487Y-49793500D01*
X129698513Y-49793500D01*
X129692060Y-49794871D01*
X129692056Y-49794872D01*
X129518168Y-49831833D01*
X129518161Y-49831835D01*
X129511712Y-49833206D01*
X129505682Y-49835890D01*
X129505681Y-49835891D01*
X129343278Y-49908197D01*
X129343275Y-49908198D01*
X129337248Y-49910882D01*
X129331907Y-49914762D01*
X129331906Y-49914763D01*
X129188091Y-50019250D01*
X129188083Y-50019256D01*
X129182747Y-50023134D01*
X129178330Y-50028039D01*
X129178325Y-50028044D01*
X129059379Y-50160148D01*
X129054960Y-50165056D01*
X129051661Y-50170769D01*
X129051658Y-50170774D01*
X128995078Y-50268774D01*
X128959473Y-50330444D01*
X128957434Y-50336718D01*
X128957430Y-50336728D01*
X128902497Y-50505794D01*
X128902495Y-50505801D01*
X128900458Y-50512072D01*
X128899768Y-50518633D01*
X128899768Y-50518635D01*
X128882641Y-50681595D01*
X128880496Y-50702000D01*
X128881186Y-50708565D01*
X128899656Y-50884303D01*
X128900458Y-50891928D01*
X128902495Y-50898200D01*
X128902497Y-50898205D01*
X128957430Y-51067271D01*
X128957433Y-51067278D01*
X128959473Y-51073556D01*
X129054960Y-51238944D01*
X129059374Y-51243846D01*
X129059383Y-51243858D01*
X129067338Y-51252693D01*
X129095957Y-51306519D01*
X129095957Y-51367481D01*
X129067338Y-51421307D01*
X129059383Y-51430141D01*
X129059372Y-51430154D01*
X129054960Y-51435056D01*
X129051659Y-51440774D01*
X129051656Y-51440778D01*
X128964857Y-51591118D01*
X128959473Y-51600444D01*
X128957434Y-51606718D01*
X128957430Y-51606728D01*
X128902497Y-51775794D01*
X128902495Y-51775801D01*
X128900458Y-51782072D01*
X128880496Y-51972000D01*
X128881186Y-51978565D01*
X128891371Y-52075475D01*
X128900458Y-52161928D01*
X128902495Y-52168200D01*
X128902497Y-52168205D01*
X128957430Y-52337271D01*
X128957433Y-52337278D01*
X128959473Y-52343556D01*
X129054960Y-52508944D01*
X129059378Y-52513850D01*
X129059379Y-52513852D01*
X129067336Y-52522689D01*
X129095957Y-52576514D01*
X129095959Y-52637476D01*
X129067342Y-52691303D01*
X129059379Y-52700146D01*
X129059371Y-52700156D01*
X129054960Y-52705056D01*
X129051662Y-52710767D01*
X129051657Y-52710775D01*
X128969838Y-52852491D01*
X128959473Y-52870444D01*
X128957434Y-52876718D01*
X128957430Y-52876728D01*
X128902497Y-53045794D01*
X128902495Y-53045801D01*
X128900458Y-53052072D01*
X128899768Y-53058633D01*
X128899768Y-53058635D01*
X128882641Y-53221595D01*
X128880496Y-53242000D01*
X128881186Y-53248565D01*
X128899656Y-53424303D01*
X128900458Y-53431928D01*
X128902495Y-53438200D01*
X128902497Y-53438205D01*
X128957430Y-53607271D01*
X128957433Y-53607278D01*
X128959473Y-53613556D01*
X129054960Y-53778944D01*
X129059374Y-53783846D01*
X129059383Y-53783858D01*
X129067335Y-53792689D01*
X129095956Y-53846514D01*
X129095958Y-53907475D01*
X129067342Y-53961302D01*
X129059383Y-53970142D01*
X129059376Y-53970150D01*
X129054960Y-53975056D01*
X129051659Y-53980774D01*
X129051656Y-53980778D01*
X128995078Y-54078774D01*
X128959473Y-54140444D01*
X128957434Y-54146718D01*
X128957430Y-54146728D01*
X128902497Y-54315794D01*
X128902495Y-54315801D01*
X128900458Y-54322072D01*
X128899768Y-54328633D01*
X128899768Y-54328635D01*
X128894451Y-54379225D01*
X128880496Y-54512000D01*
X127041862Y-54512000D01*
X126976253Y-54439134D01*
X126970911Y-54435253D01*
X126970908Y-54435250D01*
X126893057Y-54378688D01*
X126821752Y-54326882D01*
X126647288Y-54249206D01*
X126640835Y-54247834D01*
X126640831Y-54247833D01*
X126466943Y-54210872D01*
X126466940Y-54210871D01*
X126460487Y-54209500D01*
X126269513Y-54209500D01*
X126263060Y-54210871D01*
X126263056Y-54210872D01*
X126089168Y-54247833D01*
X126089161Y-54247835D01*
X126082712Y-54249206D01*
X126076682Y-54251890D01*
X126076681Y-54251891D01*
X125914278Y-54324197D01*
X125914275Y-54324198D01*
X125908248Y-54326882D01*
X125902907Y-54330762D01*
X125902906Y-54330763D01*
X125759091Y-54435250D01*
X125759083Y-54435256D01*
X125753747Y-54439134D01*
X125749330Y-54444039D01*
X125749325Y-54444044D01*
X125630379Y-54576148D01*
X125625960Y-54581056D01*
X125622661Y-54586769D01*
X125622658Y-54586774D01*
X125590888Y-54641802D01*
X125530473Y-54746444D01*
X125528434Y-54752718D01*
X125528430Y-54752728D01*
X125473497Y-54921794D01*
X125473495Y-54921801D01*
X125471458Y-54928072D01*
X125470768Y-54934633D01*
X125470768Y-54934635D01*
X125457309Y-55062689D01*
X125451496Y-55118000D01*
X125452186Y-55124565D01*
X125469454Y-55288866D01*
X125471458Y-55307928D01*
X125473495Y-55314200D01*
X125473497Y-55314205D01*
X125528430Y-55483271D01*
X125528433Y-55483278D01*
X125530473Y-55489556D01*
X125625960Y-55654944D01*
X125752877Y-55795900D01*
X125752878Y-55795901D01*
X125753747Y-55796866D01*
X125753645Y-55796957D01*
X125782107Y-55836131D01*
X125793000Y-55887379D01*
X125793000Y-57176659D01*
X125791921Y-57193105D01*
X125788065Y-57222403D01*
X125789143Y-57230591D01*
X125793000Y-57259889D01*
X125793000Y-57259895D01*
X125798191Y-57299322D01*
X125798191Y-57299323D01*
X125806644Y-57363536D01*
X125806645Y-57363542D01*
X125807723Y-57371725D01*
X125810882Y-57379353D01*
X125810883Y-57379354D01*
X125862198Y-57503241D01*
X125862199Y-57503244D01*
X125865359Y-57510871D01*
X125870382Y-57517418D01*
X125870385Y-57517422D01*
X125925266Y-57588944D01*
X125952015Y-57623804D01*
X125952018Y-57623807D01*
X125957045Y-57630358D01*
X125963594Y-57635383D01*
X125963595Y-57635384D01*
X125980498Y-57648354D01*
X125992889Y-57659222D01*
X127252777Y-58919110D01*
X127263644Y-58931500D01*
X127281642Y-58954955D01*
X127288187Y-58959977D01*
X127311641Y-58977974D01*
X127311643Y-58977976D01*
X127369896Y-59022675D01*
X127394181Y-59041310D01*
X127401129Y-59046641D01*
X127540275Y-59104277D01*
X127652105Y-59119000D01*
X127652111Y-59119000D01*
X127689597Y-59123935D01*
X127697785Y-59122857D01*
X127697786Y-59122857D01*
X127718895Y-59120078D01*
X127735341Y-59119000D01*
X133854066Y-59119000D01*
X133909794Y-59131994D01*
X133954028Y-59168296D01*
X133977645Y-59220419D01*
X133975773Y-59277611D01*
X133932092Y-59440631D01*
X133922242Y-59477392D01*
X133921763Y-59482865D01*
X133921762Y-59482872D01*
X133904215Y-59683435D01*
X133903641Y-59690000D01*
X133904120Y-59695475D01*
X133920806Y-59886205D01*
X133922242Y-59902608D01*
X133923666Y-59907922D01*
X133975773Y-60102389D01*
X133977645Y-60159581D01*
X133954028Y-60211704D01*
X133909794Y-60248006D01*
X133854066Y-60261000D01*
X124347030Y-60261000D01*
X124287877Y-60246251D01*
X124242571Y-60205458D01*
X124221720Y-60148171D01*
X124217577Y-60108755D01*
X124210542Y-60041821D01*
X124158311Y-59881072D01*
X124153569Y-59866477D01*
X124153568Y-59866475D01*
X124151527Y-59860193D01*
X124056040Y-59694805D01*
X123928253Y-59552883D01*
X123922911Y-59549002D01*
X123922908Y-59548999D01*
X123845057Y-59492437D01*
X123773752Y-59440631D01*
X123599288Y-59362955D01*
X123592835Y-59361583D01*
X123592831Y-59361582D01*
X123418943Y-59324621D01*
X123418940Y-59324620D01*
X123412487Y-59323249D01*
X123221513Y-59323249D01*
X123215060Y-59324620D01*
X123215056Y-59324621D01*
X123041168Y-59361582D01*
X123041161Y-59361584D01*
X123034712Y-59362955D01*
X123028682Y-59365639D01*
X123028681Y-59365640D01*
X122866278Y-59437946D01*
X122866275Y-59437947D01*
X122860248Y-59440631D01*
X122854907Y-59444511D01*
X122854906Y-59444512D01*
X122711091Y-59548999D01*
X122711083Y-59549005D01*
X122705747Y-59552883D01*
X122701330Y-59557788D01*
X122701325Y-59557793D01*
X122587216Y-59684525D01*
X122577960Y-59694805D01*
X122574661Y-59700518D01*
X122574658Y-59700523D01*
X122531449Y-59775364D01*
X122482473Y-59860193D01*
X122480434Y-59866467D01*
X122480430Y-59866477D01*
X122425497Y-60035543D01*
X122425495Y-60035550D01*
X122423458Y-60041821D01*
X122422768Y-60048380D01*
X122422768Y-60048383D01*
X122412280Y-60148171D01*
X122391429Y-60205458D01*
X122346123Y-60246251D01*
X122286970Y-60261000D01*
X120317616Y-60261000D01*
X120254616Y-60244119D01*
X120208496Y-60197999D01*
X120191616Y-60134999D01*
X120208496Y-60072001D01*
X120214527Y-60061556D01*
X120273542Y-59879928D01*
X120293504Y-59690000D01*
X120273542Y-59500072D01*
X120214527Y-59318444D01*
X120119040Y-59153056D01*
X119991253Y-59011134D01*
X119985911Y-59007253D01*
X119985908Y-59007250D01*
X119904918Y-58948408D01*
X119836752Y-58898882D01*
X119662288Y-58821206D01*
X119655835Y-58819834D01*
X119655831Y-58819833D01*
X119481943Y-58782872D01*
X119481940Y-58782871D01*
X119475487Y-58781500D01*
X119284513Y-58781500D01*
X119278060Y-58782871D01*
X119278056Y-58782872D01*
X119104168Y-58819833D01*
X119104161Y-58819835D01*
X119097712Y-58821206D01*
X119091682Y-58823890D01*
X119091681Y-58823891D01*
X118929278Y-58896197D01*
X118929275Y-58896198D01*
X118923248Y-58898882D01*
X118917907Y-58902762D01*
X118917906Y-58902763D01*
X118774091Y-59007250D01*
X118774083Y-59007256D01*
X118768747Y-59011134D01*
X118764330Y-59016039D01*
X118764325Y-59016044D01*
X118662988Y-59128591D01*
X118640960Y-59153056D01*
X118637661Y-59158769D01*
X118637658Y-59158774D01*
X118579072Y-59260249D01*
X118532953Y-59306368D01*
X118469953Y-59323249D01*
X118395513Y-59323249D01*
X118389060Y-59324620D01*
X118389056Y-59324621D01*
X118215168Y-59361582D01*
X118215161Y-59361584D01*
X118208712Y-59362955D01*
X118202682Y-59365639D01*
X118202681Y-59365640D01*
X118040278Y-59437946D01*
X118040275Y-59437947D01*
X118034248Y-59440631D01*
X118028906Y-59444511D01*
X118023189Y-59447813D01*
X118022513Y-59446643D01*
X117973777Y-59466326D01*
X117913155Y-59459949D01*
X117862620Y-59425860D01*
X117836674Y-59397044D01*
X117836673Y-59397043D01*
X117832253Y-59392134D01*
X117826911Y-59388253D01*
X117826908Y-59388250D01*
X117722951Y-59312721D01*
X117677752Y-59279882D01*
X117503288Y-59202206D01*
X117496835Y-59200834D01*
X117496831Y-59200833D01*
X117322943Y-59163872D01*
X117322940Y-59163871D01*
X117316487Y-59162500D01*
X117125513Y-59162500D01*
X117119060Y-59163871D01*
X117119056Y-59163872D01*
X116945168Y-59200833D01*
X116945161Y-59200835D01*
X116938712Y-59202206D01*
X116932684Y-59204889D01*
X116932677Y-59204892D01*
X116808996Y-59259958D01*
X116757748Y-59270851D01*
X116706499Y-59259958D01*
X116671272Y-59244274D01*
X116576785Y-59202206D01*
X116570332Y-59200834D01*
X116570328Y-59200833D01*
X116396440Y-59163872D01*
X116396437Y-59163871D01*
X116389984Y-59162500D01*
X116199010Y-59162500D01*
X116192557Y-59163871D01*
X116192553Y-59163872D01*
X116018665Y-59200833D01*
X116018658Y-59200835D01*
X116012209Y-59202206D01*
X116006179Y-59204890D01*
X116006178Y-59204891D01*
X115843775Y-59277197D01*
X115843772Y-59277198D01*
X115837745Y-59279882D01*
X115832404Y-59283762D01*
X115832403Y-59283763D01*
X115688588Y-59388250D01*
X115688580Y-59388256D01*
X115683244Y-59392134D01*
X115678827Y-59397039D01*
X115678822Y-59397044D01*
X115633110Y-59447813D01*
X115555457Y-59534056D01*
X115552158Y-59539769D01*
X115552155Y-59539774D01*
X115463274Y-59693721D01*
X115459970Y-59699444D01*
X115457931Y-59705718D01*
X115457927Y-59705728D01*
X115402994Y-59874794D01*
X115402992Y-59874801D01*
X115400955Y-59881072D01*
X115400265Y-59887633D01*
X115400265Y-59887635D01*
X115398133Y-59907922D01*
X115380993Y-60071000D01*
X97292494Y-60071000D01*
X97354527Y-59963556D01*
X97413542Y-59781928D01*
X97433504Y-59592000D01*
X97413542Y-59402072D01*
X97354527Y-59220444D01*
X97259040Y-59055056D01*
X97246662Y-59041309D01*
X97218041Y-58987479D01*
X97218043Y-58926511D01*
X97246667Y-58872685D01*
X97259040Y-58858944D01*
X97354527Y-58693556D01*
X97413542Y-58511928D01*
X97433504Y-58322000D01*
X97413542Y-58132072D01*
X97354527Y-57950444D01*
X97259040Y-57785056D01*
X97249870Y-57774872D01*
X97246660Y-57771306D01*
X97218041Y-57717477D01*
X97218042Y-57691749D01*
X122276496Y-57691749D01*
X122277186Y-57698314D01*
X122283898Y-57762180D01*
X122296458Y-57881677D01*
X122298495Y-57887949D01*
X122298497Y-57887954D01*
X122353430Y-58057020D01*
X122353433Y-58057027D01*
X122355473Y-58063305D01*
X122450960Y-58228693D01*
X122578747Y-58370615D01*
X122584089Y-58374496D01*
X122584091Y-58374498D01*
X122627298Y-58405890D01*
X122733248Y-58482867D01*
X122907712Y-58560543D01*
X123094513Y-58600249D01*
X123278884Y-58600249D01*
X123285487Y-58600249D01*
X123472288Y-58560543D01*
X123646752Y-58482867D01*
X123801253Y-58370615D01*
X123929040Y-58228693D01*
X124024527Y-58063305D01*
X124083542Y-57881677D01*
X124103504Y-57691749D01*
X124083542Y-57501821D01*
X124056070Y-57417271D01*
X124026569Y-57326477D01*
X124026568Y-57326475D01*
X124024527Y-57320193D01*
X123929040Y-57154805D01*
X123801253Y-57012883D01*
X123795911Y-57009002D01*
X123795908Y-57008999D01*
X123718057Y-56952437D01*
X123646752Y-56900631D01*
X123472288Y-56822955D01*
X123465835Y-56821583D01*
X123465831Y-56821582D01*
X123291943Y-56784621D01*
X123291940Y-56784620D01*
X123285487Y-56783249D01*
X123094513Y-56783249D01*
X123088060Y-56784620D01*
X123088056Y-56784621D01*
X122914168Y-56821582D01*
X122914161Y-56821584D01*
X122907712Y-56822955D01*
X122901682Y-56825639D01*
X122901681Y-56825640D01*
X122739278Y-56897946D01*
X122739275Y-56897947D01*
X122733248Y-56900631D01*
X122727907Y-56904511D01*
X122727906Y-56904512D01*
X122584091Y-57008999D01*
X122584083Y-57009005D01*
X122578747Y-57012883D01*
X122574330Y-57017788D01*
X122574325Y-57017793D01*
X122460216Y-57144525D01*
X122450960Y-57154805D01*
X122447661Y-57160518D01*
X122447658Y-57160523D01*
X122390286Y-57259895D01*
X122355473Y-57320193D01*
X122353434Y-57326467D01*
X122353430Y-57326477D01*
X122298497Y-57495543D01*
X122298495Y-57495550D01*
X122296458Y-57501821D01*
X122295768Y-57508382D01*
X122295768Y-57508384D01*
X122280199Y-57656514D01*
X122276496Y-57691749D01*
X97218042Y-57691749D01*
X97218043Y-57656512D01*
X97246663Y-57602689D01*
X97259040Y-57588944D01*
X97354527Y-57423556D01*
X97413542Y-57241928D01*
X97433504Y-57052000D01*
X97413542Y-56862072D01*
X97384510Y-56772721D01*
X97356569Y-56686728D01*
X97356568Y-56686726D01*
X97354527Y-56680444D01*
X97259040Y-56515056D01*
X97246661Y-56501308D01*
X97218042Y-56447482D01*
X97218042Y-56386518D01*
X97246661Y-56332691D01*
X97259040Y-56318944D01*
X97354527Y-56153556D01*
X97413542Y-55971928D01*
X97433504Y-55782000D01*
X97413542Y-55592072D01*
X97388297Y-55514379D01*
X97356569Y-55416728D01*
X97356568Y-55416726D01*
X97354527Y-55410444D01*
X97259040Y-55245056D01*
X97246661Y-55231308D01*
X97218042Y-55177482D01*
X97218042Y-55116518D01*
X97246661Y-55062691D01*
X97259040Y-55048944D01*
X97354527Y-54883556D01*
X97413542Y-54701928D01*
X97423204Y-54610000D01*
X118720496Y-54610000D01*
X118740458Y-54799928D01*
X118742495Y-54806200D01*
X118742497Y-54806205D01*
X118797430Y-54975271D01*
X118797433Y-54975278D01*
X118799473Y-54981556D01*
X118835078Y-55043225D01*
X118877393Y-55116518D01*
X118894960Y-55146944D01*
X119022747Y-55288866D01*
X119177248Y-55401118D01*
X119351712Y-55478794D01*
X119538513Y-55518500D01*
X119722884Y-55518500D01*
X119729487Y-55518500D01*
X119916288Y-55478794D01*
X120090752Y-55401118D01*
X120245253Y-55288866D01*
X120373040Y-55146944D01*
X120468527Y-54981556D01*
X120527542Y-54799928D01*
X120547504Y-54610000D01*
X120527542Y-54420072D01*
X120497832Y-54328635D01*
X120470569Y-54244728D01*
X120470568Y-54244726D01*
X120468527Y-54238444D01*
X120373040Y-54073056D01*
X120245253Y-53931134D01*
X120239911Y-53927253D01*
X120239908Y-53927250D01*
X120130829Y-53848000D01*
X120090752Y-53818882D01*
X119916288Y-53741206D01*
X119909835Y-53739834D01*
X119909831Y-53739833D01*
X119735943Y-53702872D01*
X119735940Y-53702871D01*
X119729487Y-53701500D01*
X119538513Y-53701500D01*
X119532060Y-53702871D01*
X119532056Y-53702872D01*
X119358168Y-53739833D01*
X119358161Y-53739835D01*
X119351712Y-53741206D01*
X119345682Y-53743890D01*
X119345681Y-53743891D01*
X119183278Y-53816197D01*
X119183275Y-53816198D01*
X119177248Y-53818882D01*
X119171907Y-53822762D01*
X119171906Y-53822763D01*
X119028091Y-53927250D01*
X119028083Y-53927256D01*
X119022747Y-53931134D01*
X119018330Y-53936039D01*
X119018325Y-53936044D01*
X118899379Y-54068148D01*
X118894960Y-54073056D01*
X118891661Y-54078769D01*
X118891658Y-54078774D01*
X118810378Y-54219556D01*
X118799473Y-54238444D01*
X118797434Y-54244718D01*
X118797430Y-54244728D01*
X118742497Y-54413794D01*
X118742495Y-54413801D01*
X118740458Y-54420072D01*
X118739768Y-54426633D01*
X118739768Y-54426635D01*
X118724054Y-54576148D01*
X118720496Y-54610000D01*
X97423204Y-54610000D01*
X97433504Y-54512000D01*
X97413542Y-54322072D01*
X97384510Y-54232721D01*
X97356569Y-54146728D01*
X97356568Y-54146726D01*
X97354527Y-54140444D01*
X97259040Y-53975056D01*
X97246661Y-53961308D01*
X97218042Y-53907482D01*
X97218042Y-53846518D01*
X97246661Y-53792691D01*
X97259040Y-53778944D01*
X97354527Y-53613556D01*
X97413542Y-53431928D01*
X97433504Y-53242000D01*
X97413542Y-53052072D01*
X97361047Y-52890511D01*
X97356569Y-52876728D01*
X97356568Y-52876726D01*
X97354527Y-52870444D01*
X97259040Y-52705056D01*
X97246662Y-52691309D01*
X97218041Y-52637479D01*
X97218043Y-52576511D01*
X97246667Y-52522685D01*
X97259040Y-52508944D01*
X97292494Y-52451000D01*
X117831496Y-52451000D01*
X117832186Y-52457565D01*
X117835988Y-52493744D01*
X117851458Y-52640928D01*
X117853495Y-52647200D01*
X117853497Y-52647205D01*
X117908430Y-52816271D01*
X117908433Y-52816278D01*
X117910473Y-52822556D01*
X118005960Y-52987944D01*
X118133747Y-53129866D01*
X118139089Y-53133747D01*
X118139091Y-53133749D01*
X118153835Y-53144461D01*
X118288248Y-53242118D01*
X118462712Y-53319794D01*
X118649513Y-53359500D01*
X118833884Y-53359500D01*
X118840487Y-53359500D01*
X119027288Y-53319794D01*
X119201752Y-53242118D01*
X119356253Y-53129866D01*
X119484040Y-52987944D01*
X119579527Y-52822556D01*
X119638542Y-52640928D01*
X119658504Y-52451000D01*
X119638542Y-52261072D01*
X119579527Y-52079444D01*
X119484040Y-51914056D01*
X119356253Y-51772134D01*
X119350911Y-51768253D01*
X119350908Y-51768250D01*
X119265433Y-51706149D01*
X119201752Y-51659882D01*
X119027288Y-51582206D01*
X119020835Y-51580834D01*
X119020831Y-51580833D01*
X118846943Y-51543872D01*
X118846940Y-51543871D01*
X118840487Y-51542500D01*
X118649513Y-51542500D01*
X118643060Y-51543871D01*
X118643056Y-51543872D01*
X118469168Y-51580833D01*
X118469161Y-51580835D01*
X118462712Y-51582206D01*
X118456682Y-51584890D01*
X118456681Y-51584891D01*
X118294278Y-51657197D01*
X118294275Y-51657198D01*
X118288248Y-51659882D01*
X118282907Y-51663762D01*
X118282906Y-51663763D01*
X118139091Y-51768250D01*
X118139083Y-51768256D01*
X118133747Y-51772134D01*
X118129330Y-51777039D01*
X118129325Y-51777044D01*
X118118889Y-51788635D01*
X118005960Y-51914056D01*
X118002661Y-51919769D01*
X118002658Y-51919774D01*
X117913777Y-52073721D01*
X117910473Y-52079444D01*
X117908434Y-52085718D01*
X117908430Y-52085728D01*
X117853497Y-52254794D01*
X117853495Y-52254801D01*
X117851458Y-52261072D01*
X117850768Y-52267633D01*
X117850768Y-52267635D01*
X117848636Y-52287922D01*
X117831496Y-52451000D01*
X97292494Y-52451000D01*
X97354527Y-52343556D01*
X97413542Y-52161928D01*
X97433504Y-51972000D01*
X97413542Y-51782072D01*
X97377181Y-51670166D01*
X97356569Y-51606728D01*
X97356568Y-51606726D01*
X97354527Y-51600444D01*
X97259040Y-51435056D01*
X97233607Y-51406810D01*
X97204987Y-51352982D01*
X97204987Y-51292018D01*
X97233608Y-51238189D01*
X97259040Y-51209944D01*
X97354527Y-51044556D01*
X97413542Y-50862928D01*
X97420156Y-50800000D01*
X122530496Y-50800000D01*
X122531186Y-50806565D01*
X122535820Y-50850660D01*
X122550458Y-50989928D01*
X122552495Y-50996200D01*
X122552497Y-50996205D01*
X122607430Y-51165271D01*
X122607433Y-51165278D01*
X122609473Y-51171556D01*
X122651210Y-51243846D01*
X122687393Y-51306518D01*
X122704960Y-51336944D01*
X122832747Y-51478866D01*
X122838089Y-51482747D01*
X122838091Y-51482749D01*
X122878189Y-51511882D01*
X122987248Y-51591118D01*
X123161712Y-51668794D01*
X123348513Y-51708500D01*
X123532884Y-51708500D01*
X123539487Y-51708500D01*
X123726288Y-51668794D01*
X123900752Y-51591118D01*
X124055253Y-51478866D01*
X124183040Y-51336944D01*
X124278527Y-51171556D01*
X124337542Y-50989928D01*
X124357504Y-50800000D01*
X124337542Y-50610072D01*
X124294237Y-50476794D01*
X124280569Y-50434728D01*
X124280568Y-50434726D01*
X124278527Y-50428444D01*
X124183040Y-50263056D01*
X124170661Y-50249308D01*
X124142042Y-50195482D01*
X124142042Y-50134518D01*
X124170661Y-50080691D01*
X124183040Y-50066944D01*
X124278527Y-49901556D01*
X124337542Y-49719928D01*
X124357504Y-49530000D01*
X124337542Y-49340072D01*
X124278527Y-49158444D01*
X124183040Y-48993056D01*
X124170661Y-48979308D01*
X124142042Y-48925482D01*
X124142042Y-48864518D01*
X124170661Y-48810691D01*
X124183040Y-48796944D01*
X124278527Y-48631556D01*
X124337542Y-48449928D01*
X124357504Y-48260000D01*
X124337542Y-48070072D01*
X124303660Y-47965794D01*
X124280569Y-47894728D01*
X124280568Y-47894726D01*
X124278527Y-47888444D01*
X124183040Y-47723056D01*
X124055253Y-47581134D01*
X124049911Y-47577253D01*
X124049908Y-47577250D01*
X123938791Y-47496519D01*
X123900752Y-47468882D01*
X123726288Y-47391206D01*
X123719835Y-47389834D01*
X123719831Y-47389833D01*
X123545943Y-47352872D01*
X123545940Y-47352871D01*
X123539487Y-47351500D01*
X123348513Y-47351500D01*
X123342060Y-47352871D01*
X123342056Y-47352872D01*
X123168168Y-47389833D01*
X123168161Y-47389835D01*
X123161712Y-47391206D01*
X123155682Y-47393890D01*
X123155681Y-47393891D01*
X122993278Y-47466197D01*
X122993275Y-47466198D01*
X122987248Y-47468882D01*
X122981907Y-47472762D01*
X122981906Y-47472763D01*
X122838091Y-47577250D01*
X122838083Y-47577256D01*
X122832747Y-47581134D01*
X122828330Y-47586039D01*
X122828325Y-47586044D01*
X122788047Y-47630778D01*
X122704960Y-47723056D01*
X122701661Y-47728769D01*
X122701658Y-47728774D01*
X122666053Y-47790444D01*
X122609473Y-47888444D01*
X122607434Y-47894718D01*
X122607430Y-47894728D01*
X122552497Y-48063794D01*
X122552495Y-48063801D01*
X122550458Y-48070072D01*
X122549768Y-48076633D01*
X122549768Y-48076635D01*
X122541486Y-48155435D01*
X122530496Y-48260000D01*
X122550458Y-48449928D01*
X122552495Y-48456200D01*
X122552497Y-48456205D01*
X122607430Y-48625271D01*
X122607433Y-48625278D01*
X122609473Y-48631556D01*
X122704960Y-48796944D01*
X122709374Y-48801846D01*
X122709383Y-48801858D01*
X122717335Y-48810689D01*
X122745956Y-48864514D01*
X122745958Y-48925475D01*
X122717342Y-48979302D01*
X122709383Y-48988142D01*
X122709376Y-48988150D01*
X122704960Y-48993056D01*
X122701659Y-48998774D01*
X122701656Y-48998778D01*
X122639602Y-49106259D01*
X122609473Y-49158444D01*
X122607434Y-49164718D01*
X122607430Y-49164728D01*
X122552497Y-49333794D01*
X122552495Y-49333801D01*
X122550458Y-49340072D01*
X122530496Y-49530000D01*
X122550458Y-49719928D01*
X122552495Y-49726200D01*
X122552497Y-49726205D01*
X122607430Y-49895271D01*
X122607433Y-49895278D01*
X122609473Y-49901556D01*
X122704960Y-50066944D01*
X122709374Y-50071846D01*
X122709383Y-50071858D01*
X122717338Y-50080693D01*
X122745957Y-50134519D01*
X122745957Y-50195481D01*
X122717338Y-50249307D01*
X122709383Y-50258141D01*
X122709372Y-50258154D01*
X122704960Y-50263056D01*
X122701659Y-50268774D01*
X122701656Y-50268778D01*
X122666053Y-50330444D01*
X122609473Y-50428444D01*
X122607434Y-50434718D01*
X122607430Y-50434728D01*
X122552497Y-50603794D01*
X122552495Y-50603801D01*
X122550458Y-50610072D01*
X122549768Y-50616633D01*
X122549768Y-50616635D01*
X122541486Y-50695435D01*
X122530496Y-50800000D01*
X97420156Y-50800000D01*
X97433504Y-50673000D01*
X97413542Y-50483072D01*
X97360849Y-50320900D01*
X97356569Y-50307728D01*
X97356568Y-50307726D01*
X97354527Y-50301444D01*
X97259040Y-50136056D01*
X97131253Y-49994134D01*
X97125911Y-49990253D01*
X97125908Y-49990250D01*
X97048057Y-49933688D01*
X96976752Y-49881882D01*
X96802288Y-49804206D01*
X96795835Y-49802834D01*
X96795831Y-49802833D01*
X96621943Y-49765872D01*
X96621940Y-49765871D01*
X96615487Y-49764500D01*
X96424513Y-49764500D01*
X96418060Y-49765871D01*
X96418056Y-49765872D01*
X96244168Y-49802833D01*
X96244161Y-49802835D01*
X96237712Y-49804206D01*
X96231682Y-49806890D01*
X96231681Y-49806891D01*
X96069278Y-49879197D01*
X96069275Y-49879198D01*
X96063248Y-49881882D01*
X96057907Y-49885762D01*
X96057906Y-49885763D01*
X95914091Y-49990250D01*
X95914083Y-49990256D01*
X95908747Y-49994134D01*
X95904330Y-49999039D01*
X95904325Y-49999044D01*
X95830809Y-50080693D01*
X95780960Y-50136056D01*
X95777661Y-50141769D01*
X95777658Y-50141774D01*
X95688777Y-50295721D01*
X95685473Y-50301444D01*
X95683434Y-50307718D01*
X95683430Y-50307728D01*
X95628497Y-50476794D01*
X95628495Y-50476801D01*
X95626458Y-50483072D01*
X95606496Y-50673000D01*
X95607186Y-50679565D01*
X95625168Y-50850660D01*
X95626458Y-50862928D01*
X95628495Y-50869200D01*
X95628497Y-50869205D01*
X95683430Y-51038271D01*
X95683433Y-51038278D01*
X95685473Y-51044556D01*
X95780960Y-51209944D01*
X95785378Y-51214851D01*
X95785379Y-51214852D01*
X95806393Y-51238191D01*
X95835012Y-51292018D01*
X95835012Y-51352982D01*
X95806393Y-51406809D01*
X95785379Y-51430147D01*
X95785374Y-51430153D01*
X95780960Y-51435056D01*
X95777659Y-51440774D01*
X95777656Y-51440778D01*
X95690857Y-51591118D01*
X95685473Y-51600444D01*
X95683434Y-51606718D01*
X95683430Y-51606728D01*
X95628497Y-51775794D01*
X95628495Y-51775801D01*
X95626458Y-51782072D01*
X95606496Y-51972000D01*
X95607186Y-51978565D01*
X95617371Y-52075475D01*
X95626458Y-52161928D01*
X95628495Y-52168200D01*
X95628497Y-52168205D01*
X95683430Y-52337271D01*
X95683433Y-52337278D01*
X95685473Y-52343556D01*
X95780960Y-52508944D01*
X95785378Y-52513850D01*
X95785379Y-52513852D01*
X95793336Y-52522689D01*
X95821957Y-52576514D01*
X95821959Y-52637476D01*
X95793342Y-52691303D01*
X95785379Y-52700146D01*
X95785371Y-52700156D01*
X95780960Y-52705056D01*
X95777662Y-52710767D01*
X95777657Y-52710775D01*
X95695838Y-52852491D01*
X95685473Y-52870444D01*
X95683434Y-52876718D01*
X95683430Y-52876728D01*
X95628497Y-53045794D01*
X95628495Y-53045801D01*
X95626458Y-53052072D01*
X95625768Y-53058633D01*
X95625768Y-53058635D01*
X95608641Y-53221595D01*
X95606496Y-53242000D01*
X95607186Y-53248565D01*
X95625656Y-53424303D01*
X95626458Y-53431928D01*
X95628495Y-53438200D01*
X95628497Y-53438205D01*
X95683430Y-53607271D01*
X95683433Y-53607278D01*
X95685473Y-53613556D01*
X95780960Y-53778944D01*
X95785374Y-53783846D01*
X95785383Y-53783858D01*
X95793335Y-53792689D01*
X95821956Y-53846514D01*
X95821958Y-53907475D01*
X95793342Y-53961302D01*
X95785383Y-53970142D01*
X95785376Y-53970150D01*
X95780960Y-53975056D01*
X95777659Y-53980774D01*
X95777656Y-53980778D01*
X95721078Y-54078774D01*
X95685473Y-54140444D01*
X95683434Y-54146718D01*
X95683430Y-54146728D01*
X95628497Y-54315794D01*
X95628495Y-54315801D01*
X95626458Y-54322072D01*
X95625768Y-54328633D01*
X95625768Y-54328635D01*
X95620451Y-54379225D01*
X95606496Y-54512000D01*
X95607186Y-54518565D01*
X95617371Y-54615475D01*
X95626458Y-54701928D01*
X95628495Y-54708200D01*
X95628497Y-54708205D01*
X95683430Y-54877271D01*
X95683433Y-54877278D01*
X95685473Y-54883556D01*
X95780960Y-55048944D01*
X95785374Y-55053846D01*
X95785383Y-55053858D01*
X95793338Y-55062693D01*
X95821957Y-55116519D01*
X95821957Y-55177481D01*
X95793338Y-55231307D01*
X95785383Y-55240141D01*
X95785372Y-55240154D01*
X95780960Y-55245056D01*
X95777659Y-55250774D01*
X95777656Y-55250778D01*
X95690983Y-55400900D01*
X95685473Y-55410444D01*
X95683434Y-55416718D01*
X95683430Y-55416728D01*
X95628497Y-55585794D01*
X95628495Y-55585801D01*
X95626458Y-55592072D01*
X95625768Y-55598633D01*
X95625768Y-55598635D01*
X95608641Y-55761595D01*
X95606496Y-55782000D01*
X95607186Y-55788565D01*
X95625656Y-55964303D01*
X95626458Y-55971928D01*
X95628495Y-55978200D01*
X95628497Y-55978205D01*
X95683430Y-56147271D01*
X95683433Y-56147278D01*
X95685473Y-56153556D01*
X95780960Y-56318944D01*
X95785374Y-56323846D01*
X95785383Y-56323858D01*
X95793338Y-56332693D01*
X95821957Y-56386519D01*
X95821957Y-56447481D01*
X95793338Y-56501307D01*
X95785383Y-56510141D01*
X95785372Y-56510154D01*
X95780960Y-56515056D01*
X95777659Y-56520774D01*
X95777656Y-56520778D01*
X95721078Y-56618774D01*
X95685473Y-56680444D01*
X95683434Y-56686718D01*
X95683430Y-56686728D01*
X95628497Y-56855794D01*
X95628495Y-56855801D01*
X95626458Y-56862072D01*
X95625768Y-56868633D01*
X95625768Y-56868635D01*
X95610607Y-57012883D01*
X95606496Y-57052000D01*
X95607186Y-57058565D01*
X95621326Y-57193105D01*
X95626458Y-57241928D01*
X95628495Y-57248200D01*
X95628497Y-57248205D01*
X95683430Y-57417271D01*
X95683433Y-57417278D01*
X95685473Y-57423556D01*
X95780960Y-57588944D01*
X95785378Y-57593850D01*
X95785379Y-57593852D01*
X95793336Y-57602689D01*
X95821957Y-57656514D01*
X95821959Y-57717476D01*
X95793342Y-57771303D01*
X95785379Y-57780146D01*
X95785371Y-57780156D01*
X95780960Y-57785056D01*
X95777662Y-57790767D01*
X95777657Y-57790775D01*
X95695838Y-57932491D01*
X95685473Y-57950444D01*
X95683434Y-57956718D01*
X95683430Y-57956728D01*
X95628497Y-58125794D01*
X95628495Y-58125801D01*
X95626458Y-58132072D01*
X95625768Y-58138633D01*
X95625768Y-58138635D01*
X95608641Y-58301595D01*
X95606496Y-58322000D01*
X95607186Y-58328565D01*
X95625656Y-58504303D01*
X95626458Y-58511928D01*
X95628495Y-58518200D01*
X95628497Y-58518205D01*
X95683430Y-58687271D01*
X95683433Y-58687278D01*
X95685473Y-58693556D01*
X95780960Y-58858944D01*
X95785378Y-58863850D01*
X95785379Y-58863852D01*
X95793336Y-58872689D01*
X95821957Y-58926514D01*
X95821959Y-58987476D01*
X95793342Y-59041303D01*
X95785379Y-59050146D01*
X95785371Y-59050156D01*
X95780960Y-59055056D01*
X95777662Y-59060767D01*
X95777657Y-59060775D01*
X95694452Y-59204892D01*
X95685473Y-59220444D01*
X95683434Y-59226718D01*
X95683430Y-59226728D01*
X95628497Y-59395794D01*
X95628495Y-59395801D01*
X95626458Y-59402072D01*
X95625768Y-59408633D01*
X95625768Y-59408635D01*
X95610607Y-59552883D01*
X95606496Y-59592000D01*
X95607186Y-59598565D01*
X95617371Y-59695475D01*
X95626458Y-59781928D01*
X95628495Y-59788200D01*
X95628497Y-59788205D01*
X95683430Y-59957271D01*
X95683433Y-59957278D01*
X95685473Y-59963556D01*
X95780960Y-60128944D01*
X95785378Y-60133850D01*
X95785379Y-60133852D01*
X95793336Y-60142689D01*
X95821957Y-60196514D01*
X95821959Y-60257476D01*
X95793342Y-60311303D01*
X95785379Y-60320146D01*
X95785371Y-60320156D01*
X95780960Y-60325056D01*
X95777662Y-60330767D01*
X95777657Y-60330775D01*
X95695838Y-60472491D01*
X95685473Y-60490444D01*
X95683434Y-60496718D01*
X95683430Y-60496728D01*
X95628497Y-60665794D01*
X95628495Y-60665801D01*
X95626458Y-60672072D01*
X95625768Y-60678633D01*
X95625768Y-60678635D01*
X95608641Y-60841595D01*
X95606496Y-60862000D01*
X95607186Y-60868565D01*
X95625656Y-61044303D01*
X95626458Y-61051928D01*
X95628495Y-61058200D01*
X95628497Y-61058205D01*
X95683430Y-61227271D01*
X95683433Y-61227278D01*
X95685473Y-61233556D01*
X95780960Y-61398944D01*
X95785374Y-61403846D01*
X95785383Y-61403858D01*
X95793338Y-61412693D01*
X95821957Y-61466519D01*
X95821957Y-61527481D01*
X95793338Y-61581307D01*
X95785383Y-61590141D01*
X95785372Y-61590154D01*
X95780960Y-61595056D01*
X95777659Y-61600774D01*
X95777656Y-61600778D01*
X95702270Y-61731351D01*
X95685473Y-61760444D01*
X95683434Y-61766718D01*
X95683430Y-61766728D01*
X95628497Y-61935794D01*
X95628495Y-61935801D01*
X95626458Y-61942072D01*
X95625768Y-61948633D01*
X95625768Y-61948635D01*
X95610702Y-62091980D01*
X95606496Y-62132000D01*
X95607186Y-62138565D01*
X95617371Y-62235475D01*
X95626458Y-62321928D01*
X95628495Y-62328200D01*
X95628497Y-62328205D01*
X95683430Y-62497271D01*
X95683433Y-62497278D01*
X95685473Y-62503556D01*
X95780960Y-62668944D01*
X95785374Y-62673846D01*
X95785383Y-62673858D01*
X95793338Y-62682693D01*
X95821957Y-62736519D01*
X95821957Y-62797481D01*
X95793338Y-62851307D01*
X95785383Y-62860141D01*
X95785372Y-62860154D01*
X95780960Y-62865056D01*
X95777659Y-62870774D01*
X95777656Y-62870778D01*
X95690983Y-63020900D01*
X95685473Y-63030444D01*
X95683434Y-63036718D01*
X95683430Y-63036728D01*
X95628497Y-63205794D01*
X95628495Y-63205801D01*
X95626458Y-63212072D01*
X95625768Y-63218633D01*
X95625768Y-63218635D01*
X95608641Y-63381595D01*
X95606496Y-63402000D01*
X95607186Y-63408565D01*
X95625656Y-63584303D01*
X95626458Y-63591928D01*
X95628495Y-63598200D01*
X95628497Y-63598205D01*
X95683430Y-63767271D01*
X95683433Y-63767278D01*
X95685473Y-63773556D01*
X95780960Y-63938944D01*
X95785374Y-63943846D01*
X95785383Y-63943858D01*
X95793335Y-63952689D01*
X95821956Y-64006514D01*
X95821958Y-64067475D01*
X95793342Y-64121302D01*
X95785383Y-64130142D01*
X95785376Y-64130150D01*
X95780960Y-64135056D01*
X95777659Y-64140774D01*
X95777656Y-64140778D01*
X95764937Y-64162808D01*
X95685473Y-64300444D01*
X95683434Y-64306718D01*
X95683430Y-64306728D01*
X95628497Y-64475794D01*
X95628495Y-64475801D01*
X95626458Y-64482072D01*
X95625768Y-64488633D01*
X95625768Y-64488635D01*
X95624797Y-64497872D01*
X95606496Y-64672000D01*
X90932500Y-64672000D01*
X90932500Y-48162000D01*
X95606496Y-48162000D01*
X95607186Y-48168565D01*
X95625656Y-48344303D01*
X95626458Y-48351928D01*
X95628495Y-48358200D01*
X95628497Y-48358205D01*
X95683430Y-48527271D01*
X95683433Y-48527278D01*
X95685473Y-48533556D01*
X95780960Y-48698944D01*
X95908747Y-48840866D01*
X95914089Y-48844747D01*
X95914091Y-48844749D01*
X95941301Y-48864518D01*
X96063248Y-48953118D01*
X96237712Y-49030794D01*
X96424513Y-49070500D01*
X96608884Y-49070500D01*
X96615487Y-49070500D01*
X96802288Y-49030794D01*
X96976752Y-48953118D01*
X97131253Y-48840866D01*
X97259040Y-48698944D01*
X97354527Y-48533556D01*
X97413542Y-48351928D01*
X97433504Y-48162000D01*
X97413542Y-47972072D01*
X97354527Y-47790444D01*
X97259040Y-47625056D01*
X97246661Y-47611308D01*
X97218042Y-47557482D01*
X97218042Y-47496518D01*
X97246661Y-47442691D01*
X97259040Y-47428944D01*
X97354527Y-47263556D01*
X97413542Y-47081928D01*
X97433504Y-46892000D01*
X97413542Y-46702072D01*
X97354527Y-46520444D01*
X97259040Y-46355056D01*
X97249870Y-46344872D01*
X97246660Y-46341306D01*
X97218041Y-46287477D01*
X97218043Y-46226512D01*
X97246663Y-46172689D01*
X97259040Y-46158944D01*
X97354527Y-45993556D01*
X97413542Y-45811928D01*
X97433504Y-45622000D01*
X97413542Y-45432072D01*
X97388297Y-45354379D01*
X97356569Y-45256728D01*
X97356568Y-45256726D01*
X97354527Y-45250444D01*
X97259040Y-45085056D01*
X97246661Y-45071308D01*
X97218042Y-45017482D01*
X97218042Y-44956518D01*
X97246661Y-44902691D01*
X97259040Y-44888944D01*
X97354527Y-44723556D01*
X97402146Y-44577000D01*
X122530496Y-44577000D01*
X122550458Y-44766928D01*
X122552495Y-44773200D01*
X122552497Y-44773205D01*
X122607430Y-44942271D01*
X122607433Y-44942278D01*
X122609473Y-44948556D01*
X122704960Y-45113944D01*
X122832747Y-45255866D01*
X122987248Y-45368118D01*
X123161712Y-45445794D01*
X123348513Y-45485500D01*
X123532884Y-45485500D01*
X123539487Y-45485500D01*
X123726288Y-45445794D01*
X123900752Y-45368118D01*
X124055253Y-45255866D01*
X124183040Y-45113944D01*
X124278527Y-44948556D01*
X124337542Y-44766928D01*
X124357504Y-44577000D01*
X124337542Y-44387072D01*
X124278527Y-44205444D01*
X124183040Y-44040056D01*
X124055253Y-43898134D01*
X124049911Y-43894253D01*
X124049908Y-43894250D01*
X123972057Y-43837688D01*
X123900752Y-43785882D01*
X123726288Y-43708206D01*
X123719835Y-43706834D01*
X123719831Y-43706833D01*
X123545943Y-43669872D01*
X123545940Y-43669871D01*
X123539487Y-43668500D01*
X123348513Y-43668500D01*
X123342060Y-43669871D01*
X123342056Y-43669872D01*
X123168168Y-43706833D01*
X123168161Y-43706835D01*
X123161712Y-43708206D01*
X123155682Y-43710890D01*
X123155681Y-43710891D01*
X122993278Y-43783197D01*
X122993275Y-43783198D01*
X122987248Y-43785882D01*
X122981907Y-43789762D01*
X122981906Y-43789763D01*
X122838091Y-43894250D01*
X122838083Y-43894256D01*
X122832747Y-43898134D01*
X122828330Y-43903039D01*
X122828325Y-43903044D01*
X122717383Y-44026259D01*
X122704960Y-44040056D01*
X122701661Y-44045769D01*
X122701658Y-44045774D01*
X122612777Y-44199721D01*
X122609473Y-44205444D01*
X122607434Y-44211718D01*
X122607430Y-44211728D01*
X122552497Y-44380794D01*
X122552495Y-44380801D01*
X122550458Y-44387072D01*
X122549768Y-44393633D01*
X122549768Y-44393635D01*
X122543844Y-44450000D01*
X122530496Y-44577000D01*
X97402146Y-44577000D01*
X97413542Y-44541928D01*
X97433504Y-44352000D01*
X97413542Y-44162072D01*
X97354527Y-43980444D01*
X97259040Y-43815056D01*
X97246662Y-43801309D01*
X97218041Y-43747479D01*
X97218043Y-43686511D01*
X97246667Y-43632685D01*
X97259040Y-43618944D01*
X97354527Y-43453556D01*
X97413542Y-43271928D01*
X97433504Y-43082000D01*
X97413542Y-42892072D01*
X97354527Y-42710444D01*
X97259040Y-42545056D01*
X97249870Y-42534872D01*
X97246660Y-42531306D01*
X97218041Y-42477477D01*
X97218043Y-42416512D01*
X97246663Y-42362689D01*
X97259040Y-42348944D01*
X97354527Y-42183556D01*
X97413542Y-42001928D01*
X97433504Y-41812000D01*
X97413542Y-41622072D01*
X97354527Y-41440444D01*
X97259040Y-41275056D01*
X97249870Y-41264872D01*
X97246660Y-41261306D01*
X97218041Y-41207477D01*
X97218043Y-41146512D01*
X97246663Y-41092689D01*
X97259040Y-41078944D01*
X97354527Y-40913556D01*
X97413542Y-40731928D01*
X97433504Y-40542000D01*
X97427724Y-40487011D01*
X98019496Y-40487011D01*
X98020186Y-40493576D01*
X98029574Y-40582903D01*
X98039458Y-40676939D01*
X98041495Y-40683211D01*
X98041497Y-40683216D01*
X98096430Y-40852282D01*
X98096433Y-40852289D01*
X98098473Y-40858567D01*
X98193960Y-41023955D01*
X98321747Y-41165877D01*
X98476248Y-41278129D01*
X98650712Y-41355805D01*
X98837513Y-41395511D01*
X99021884Y-41395511D01*
X99028487Y-41395511D01*
X99215288Y-41355805D01*
X99389752Y-41278129D01*
X99544253Y-41165877D01*
X99590847Y-41114129D01*
X103603831Y-41114129D01*
X103623793Y-41304057D01*
X103625830Y-41310329D01*
X103625832Y-41310334D01*
X103680765Y-41479400D01*
X103680768Y-41479407D01*
X103682808Y-41485685D01*
X103778295Y-41651073D01*
X103906082Y-41792995D01*
X103911424Y-41796876D01*
X103911426Y-41796878D01*
X103941276Y-41818565D01*
X104060583Y-41905247D01*
X104235047Y-41982923D01*
X104421848Y-42022629D01*
X104606219Y-42022629D01*
X104612822Y-42022629D01*
X104799623Y-41982923D01*
X104974087Y-41905247D01*
X105128588Y-41792995D01*
X105137588Y-41783000D01*
X118339496Y-41783000D01*
X118340186Y-41789565D01*
X118353419Y-41915475D01*
X118359458Y-41972928D01*
X118361495Y-41979200D01*
X118361497Y-41979205D01*
X118416430Y-42148271D01*
X118416433Y-42148278D01*
X118418473Y-42154556D01*
X118513960Y-42319944D01*
X118641747Y-42461866D01*
X118647089Y-42465747D01*
X118647091Y-42465749D01*
X118690298Y-42497141D01*
X118796248Y-42574118D01*
X118970712Y-42651794D01*
X119157513Y-42691500D01*
X119341884Y-42691500D01*
X119348487Y-42691500D01*
X119535288Y-42651794D01*
X119709752Y-42574118D01*
X119864253Y-42461866D01*
X119992040Y-42319944D01*
X120087527Y-42154556D01*
X120146542Y-41972928D01*
X120166504Y-41783000D01*
X120146542Y-41593072D01*
X120087527Y-41411444D01*
X119992040Y-41246056D01*
X119864253Y-41104134D01*
X119858911Y-41100253D01*
X119858908Y-41100250D01*
X119754206Y-41024180D01*
X119749829Y-41021000D01*
X122403496Y-41021000D01*
X122423458Y-41210928D01*
X122425495Y-41217200D01*
X122425497Y-41217205D01*
X122480430Y-41386271D01*
X122480433Y-41386278D01*
X122482473Y-41392556D01*
X122577960Y-41557944D01*
X122705747Y-41699866D01*
X122711089Y-41703747D01*
X122711091Y-41703749D01*
X122754298Y-41735141D01*
X122860248Y-41812118D01*
X123034712Y-41889794D01*
X123221513Y-41929500D01*
X123405884Y-41929500D01*
X123412487Y-41929500D01*
X123599288Y-41889794D01*
X123773752Y-41812118D01*
X123928253Y-41699866D01*
X123941940Y-41684664D01*
X123990418Y-41651344D01*
X124048744Y-41643664D01*
X124104199Y-41663300D01*
X124144694Y-41705972D01*
X124174346Y-41757330D01*
X124280682Y-41875429D01*
X124291198Y-41887108D01*
X124302133Y-41899252D01*
X124307475Y-41903133D01*
X124307477Y-41903135D01*
X124316926Y-41910000D01*
X124456634Y-42011504D01*
X124631098Y-42089180D01*
X124817899Y-42128886D01*
X125002270Y-42128886D01*
X125008873Y-42128886D01*
X125195674Y-42089180D01*
X125370138Y-42011504D01*
X125524639Y-41899252D01*
X125652426Y-41757330D01*
X125747913Y-41591942D01*
X125806928Y-41410314D01*
X125826890Y-41220386D01*
X125806928Y-41030458D01*
X125747913Y-40848830D01*
X125652426Y-40683442D01*
X125524639Y-40541520D01*
X125519297Y-40537639D01*
X125519294Y-40537636D01*
X125378389Y-40435263D01*
X125370138Y-40429268D01*
X125195674Y-40351592D01*
X125189221Y-40350220D01*
X125189217Y-40350219D01*
X125015329Y-40313258D01*
X125015326Y-40313257D01*
X125008873Y-40311886D01*
X124817899Y-40311886D01*
X124811446Y-40313257D01*
X124811442Y-40313258D01*
X124637554Y-40350219D01*
X124637547Y-40350221D01*
X124631098Y-40351592D01*
X124625068Y-40354276D01*
X124625067Y-40354277D01*
X124462664Y-40426583D01*
X124462661Y-40426584D01*
X124456634Y-40429268D01*
X124451293Y-40433148D01*
X124451292Y-40433149D01*
X124307477Y-40537636D01*
X124307469Y-40537642D01*
X124302133Y-40541520D01*
X124297716Y-40546424D01*
X124297712Y-40546429D01*
X124288442Y-40556725D01*
X124239960Y-40590043D01*
X124181636Y-40597721D01*
X124126184Y-40578083D01*
X124085690Y-40535411D01*
X124077914Y-40521943D01*
X124056040Y-40484056D01*
X123928253Y-40342134D01*
X123866729Y-40297434D01*
X123828525Y-40252703D01*
X123814792Y-40195500D01*
X123828525Y-40138297D01*
X123866729Y-40093565D01*
X123928253Y-40048866D01*
X124056040Y-39906944D01*
X124151527Y-39741556D01*
X124210542Y-39559928D01*
X124230504Y-39370000D01*
X124210542Y-39180072D01*
X124163330Y-39034769D01*
X124153569Y-39004728D01*
X124153568Y-39004726D01*
X124151527Y-38998444D01*
X124056040Y-38833056D01*
X123928253Y-38691134D01*
X123922911Y-38687253D01*
X123922908Y-38687250D01*
X123788022Y-38589250D01*
X123773752Y-38578882D01*
X123599288Y-38501206D01*
X123592835Y-38499834D01*
X123592831Y-38499833D01*
X123418943Y-38462872D01*
X123418940Y-38462871D01*
X123412487Y-38461500D01*
X123221513Y-38461500D01*
X123215060Y-38462871D01*
X123215056Y-38462872D01*
X123041168Y-38499833D01*
X123041161Y-38499835D01*
X123034712Y-38501206D01*
X123028682Y-38503890D01*
X123028681Y-38503891D01*
X122866278Y-38576197D01*
X122866275Y-38576198D01*
X122860248Y-38578882D01*
X122854907Y-38582762D01*
X122854906Y-38582763D01*
X122711091Y-38687250D01*
X122711083Y-38687256D01*
X122705747Y-38691134D01*
X122701330Y-38696039D01*
X122701325Y-38696044D01*
X122640989Y-38763055D01*
X122577960Y-38833056D01*
X122574661Y-38838769D01*
X122574658Y-38838774D01*
X122541705Y-38895851D01*
X122482473Y-38998444D01*
X122480434Y-39004718D01*
X122480430Y-39004728D01*
X122425497Y-39173794D01*
X122425495Y-39173801D01*
X122423458Y-39180072D01*
X122422768Y-39186633D01*
X122422768Y-39186635D01*
X122414486Y-39265435D01*
X122403496Y-39370000D01*
X122423458Y-39559928D01*
X122425495Y-39566200D01*
X122425497Y-39566205D01*
X122480430Y-39735271D01*
X122480433Y-39735278D01*
X122482473Y-39741556D01*
X122518078Y-39803225D01*
X122560393Y-39876518D01*
X122577960Y-39906944D01*
X122705747Y-40048866D01*
X122767269Y-40093564D01*
X122805473Y-40138295D01*
X122819207Y-40195498D01*
X122805475Y-40252700D01*
X122767269Y-40297434D01*
X122711093Y-40338249D01*
X122711091Y-40338251D01*
X122705747Y-40342134D01*
X122701330Y-40347039D01*
X122701325Y-40347044D01*
X122621893Y-40435263D01*
X122577960Y-40484056D01*
X122574661Y-40489769D01*
X122574658Y-40489774D01*
X122487625Y-40640520D01*
X122482473Y-40649444D01*
X122480434Y-40655718D01*
X122480430Y-40655728D01*
X122425497Y-40824794D01*
X122425495Y-40824801D01*
X122423458Y-40831072D01*
X122422768Y-40837633D01*
X122422768Y-40837635D01*
X122418749Y-40875872D01*
X122403496Y-41021000D01*
X119749829Y-41021000D01*
X119709752Y-40991882D01*
X119535288Y-40914206D01*
X119528835Y-40912834D01*
X119528831Y-40912833D01*
X119354943Y-40875872D01*
X119354940Y-40875871D01*
X119348487Y-40874500D01*
X119157513Y-40874500D01*
X119151060Y-40875871D01*
X119151056Y-40875872D01*
X118977168Y-40912833D01*
X118977161Y-40912835D01*
X118970712Y-40914206D01*
X118964682Y-40916890D01*
X118964681Y-40916891D01*
X118802278Y-40989197D01*
X118802275Y-40989198D01*
X118796248Y-40991882D01*
X118790907Y-40995762D01*
X118790906Y-40995763D01*
X118647091Y-41100250D01*
X118647083Y-41100256D01*
X118641747Y-41104134D01*
X118637330Y-41109039D01*
X118637325Y-41109044D01*
X118537073Y-41220386D01*
X118513960Y-41246056D01*
X118510661Y-41251769D01*
X118510658Y-41251774D01*
X118427672Y-41395511D01*
X118418473Y-41411444D01*
X118416434Y-41417718D01*
X118416430Y-41417728D01*
X118361497Y-41586794D01*
X118361495Y-41586801D01*
X118359458Y-41593072D01*
X118358768Y-41599633D01*
X118358768Y-41599635D01*
X118347592Y-41705973D01*
X118339496Y-41783000D01*
X105137588Y-41783000D01*
X105256375Y-41651073D01*
X105351862Y-41485685D01*
X105410877Y-41304057D01*
X105430839Y-41114129D01*
X105410877Y-40924201D01*
X105351862Y-40742573D01*
X105256375Y-40577185D01*
X105128588Y-40435263D01*
X105123246Y-40431382D01*
X105123243Y-40431379D01*
X105023119Y-40358635D01*
X104974087Y-40323011D01*
X104799623Y-40245335D01*
X104793170Y-40243963D01*
X104793166Y-40243962D01*
X104619278Y-40207001D01*
X104619275Y-40207000D01*
X104612822Y-40205629D01*
X104421848Y-40205629D01*
X104415395Y-40207000D01*
X104415391Y-40207001D01*
X104241503Y-40243962D01*
X104241496Y-40243964D01*
X104235047Y-40245335D01*
X104229017Y-40248019D01*
X104229016Y-40248020D01*
X104066613Y-40320326D01*
X104066610Y-40320327D01*
X104060583Y-40323011D01*
X104055242Y-40326891D01*
X104055241Y-40326892D01*
X103911426Y-40431379D01*
X103911418Y-40431385D01*
X103906082Y-40435263D01*
X103901665Y-40440168D01*
X103901660Y-40440173D01*
X103797650Y-40555689D01*
X103778295Y-40577185D01*
X103774996Y-40582898D01*
X103774993Y-40582903D01*
X103688954Y-40731928D01*
X103682808Y-40742573D01*
X103680769Y-40748847D01*
X103680765Y-40748857D01*
X103625832Y-40917923D01*
X103625830Y-40917930D01*
X103623793Y-40924201D01*
X103623103Y-40930762D01*
X103623103Y-40930764D01*
X103604521Y-41107564D01*
X103603831Y-41114129D01*
X99590847Y-41114129D01*
X99672040Y-41023955D01*
X99767527Y-40858567D01*
X99826542Y-40676939D01*
X99846504Y-40487011D01*
X99826542Y-40297083D01*
X99767527Y-40115455D01*
X99672040Y-39950067D01*
X99544253Y-39808145D01*
X99538911Y-39804264D01*
X99538908Y-39804261D01*
X99440994Y-39733123D01*
X99389752Y-39695893D01*
X99215288Y-39618217D01*
X99208835Y-39616845D01*
X99208831Y-39616844D01*
X99034943Y-39579883D01*
X99034940Y-39579882D01*
X99028487Y-39578511D01*
X98837513Y-39578511D01*
X98831060Y-39579882D01*
X98831056Y-39579883D01*
X98657168Y-39616844D01*
X98657161Y-39616846D01*
X98650712Y-39618217D01*
X98644682Y-39620901D01*
X98644681Y-39620902D01*
X98482278Y-39693208D01*
X98482275Y-39693209D01*
X98476248Y-39695893D01*
X98470907Y-39699773D01*
X98470906Y-39699774D01*
X98327091Y-39804261D01*
X98327083Y-39804267D01*
X98321747Y-39808145D01*
X98317330Y-39813050D01*
X98317325Y-39813055D01*
X98198379Y-39945159D01*
X98193960Y-39950067D01*
X98190661Y-39955780D01*
X98190658Y-39955785D01*
X98124255Y-40070799D01*
X98098473Y-40115455D01*
X98096434Y-40121729D01*
X98096430Y-40121739D01*
X98041497Y-40290805D01*
X98041495Y-40290812D01*
X98039458Y-40297083D01*
X98019496Y-40487011D01*
X97427724Y-40487011D01*
X97413542Y-40352072D01*
X97366405Y-40207001D01*
X97356569Y-40176728D01*
X97356568Y-40176726D01*
X97354527Y-40170444D01*
X97259040Y-40005056D01*
X97246661Y-39991308D01*
X97218042Y-39937482D01*
X97218042Y-39876518D01*
X97246661Y-39822691D01*
X97259040Y-39808944D01*
X97354527Y-39643556D01*
X97413542Y-39461928D01*
X97433504Y-39272000D01*
X97413542Y-39082072D01*
X97354527Y-38900444D01*
X97259040Y-38735056D01*
X97131253Y-38593134D01*
X97125911Y-38589253D01*
X97125908Y-38589250D01*
X97004725Y-38501206D01*
X96976752Y-38480882D01*
X96802288Y-38403206D01*
X96795835Y-38401834D01*
X96795831Y-38401833D01*
X96621943Y-38364872D01*
X96621940Y-38364871D01*
X96615487Y-38363500D01*
X96424513Y-38363500D01*
X96418060Y-38364871D01*
X96418056Y-38364872D01*
X96244168Y-38401833D01*
X96244161Y-38401835D01*
X96237712Y-38403206D01*
X96231682Y-38405890D01*
X96231681Y-38405891D01*
X96069278Y-38478197D01*
X96069275Y-38478198D01*
X96063248Y-38480882D01*
X96057907Y-38484762D01*
X96057906Y-38484763D01*
X95914091Y-38589250D01*
X95914083Y-38589256D01*
X95908747Y-38593134D01*
X95904330Y-38598039D01*
X95904325Y-38598044D01*
X95798454Y-38715627D01*
X95780960Y-38735056D01*
X95777661Y-38740769D01*
X95777658Y-38740774D01*
X95690958Y-38890944D01*
X95685473Y-38900444D01*
X95683434Y-38906718D01*
X95683430Y-38906728D01*
X95628497Y-39075794D01*
X95628495Y-39075801D01*
X95626458Y-39082072D01*
X95625768Y-39088633D01*
X95625768Y-39088635D01*
X95612751Y-39212488D01*
X95606496Y-39272000D01*
X95607186Y-39278565D01*
X95617371Y-39375475D01*
X95626458Y-39461928D01*
X95628495Y-39468200D01*
X95628497Y-39468205D01*
X95683430Y-39637271D01*
X95683433Y-39637278D01*
X95685473Y-39643556D01*
X95780960Y-39808944D01*
X95785374Y-39813846D01*
X95785383Y-39813858D01*
X95793338Y-39822693D01*
X95821957Y-39876519D01*
X95821957Y-39937481D01*
X95793338Y-39991307D01*
X95785383Y-40000141D01*
X95785372Y-40000154D01*
X95780960Y-40005056D01*
X95777659Y-40010774D01*
X95777656Y-40010778D01*
X95719116Y-40112172D01*
X95685473Y-40170444D01*
X95683434Y-40176718D01*
X95683430Y-40176728D01*
X95628497Y-40345794D01*
X95628495Y-40345801D01*
X95626458Y-40352072D01*
X95625768Y-40358633D01*
X95625768Y-40358635D01*
X95608654Y-40521472D01*
X95606496Y-40542000D01*
X95626458Y-40731928D01*
X95628495Y-40738200D01*
X95628497Y-40738205D01*
X95683430Y-40907271D01*
X95683433Y-40907278D01*
X95685473Y-40913556D01*
X95780960Y-41078944D01*
X95785374Y-41083846D01*
X95785383Y-41083858D01*
X95793338Y-41092693D01*
X95821957Y-41146519D01*
X95821957Y-41207481D01*
X95793338Y-41261307D01*
X95785383Y-41270141D01*
X95785372Y-41270154D01*
X95780960Y-41275056D01*
X95777659Y-41280774D01*
X95777656Y-41280778D01*
X95698588Y-41417728D01*
X95685473Y-41440444D01*
X95683434Y-41446718D01*
X95683430Y-41446728D01*
X95628497Y-41615794D01*
X95628495Y-41615801D01*
X95626458Y-41622072D01*
X95625768Y-41628633D01*
X95625768Y-41628635D01*
X95617640Y-41705973D01*
X95606496Y-41812000D01*
X95607186Y-41818565D01*
X95624460Y-41982923D01*
X95626458Y-42001928D01*
X95628495Y-42008200D01*
X95628497Y-42008205D01*
X95683430Y-42177271D01*
X95683433Y-42177278D01*
X95685473Y-42183556D01*
X95780960Y-42348944D01*
X95785378Y-42353850D01*
X95785379Y-42353852D01*
X95793336Y-42362689D01*
X95821957Y-42416514D01*
X95821959Y-42477476D01*
X95793342Y-42531303D01*
X95785379Y-42540146D01*
X95785371Y-42540156D01*
X95780960Y-42545056D01*
X95777662Y-42550767D01*
X95777657Y-42550775D01*
X95697203Y-42690127D01*
X95685473Y-42710444D01*
X95683434Y-42716718D01*
X95683430Y-42716728D01*
X95628497Y-42885794D01*
X95628495Y-42885801D01*
X95626458Y-42892072D01*
X95625768Y-42898633D01*
X95625768Y-42898635D01*
X95608640Y-43061598D01*
X95606496Y-43082000D01*
X95626458Y-43271928D01*
X95628495Y-43278200D01*
X95628497Y-43278205D01*
X95683430Y-43447271D01*
X95683433Y-43447278D01*
X95685473Y-43453556D01*
X95780960Y-43618944D01*
X95785378Y-43623850D01*
X95785379Y-43623852D01*
X95793336Y-43632689D01*
X95821957Y-43686514D01*
X95821959Y-43747476D01*
X95793342Y-43801303D01*
X95785379Y-43810146D01*
X95785371Y-43810156D01*
X95780960Y-43815056D01*
X95777662Y-43820767D01*
X95777657Y-43820775D01*
X95688777Y-43974721D01*
X95685473Y-43980444D01*
X95683434Y-43986718D01*
X95683430Y-43986728D01*
X95628497Y-44155794D01*
X95628495Y-44155801D01*
X95626458Y-44162072D01*
X95606496Y-44352000D01*
X95607186Y-44358565D01*
X95617371Y-44455475D01*
X95626458Y-44541928D01*
X95628495Y-44548200D01*
X95628497Y-44548205D01*
X95683430Y-44717271D01*
X95683433Y-44717278D01*
X95685473Y-44723556D01*
X95780960Y-44888944D01*
X95785374Y-44893846D01*
X95785383Y-44893858D01*
X95793335Y-44902689D01*
X95821956Y-44956514D01*
X95821958Y-45017475D01*
X95793342Y-45071302D01*
X95785383Y-45080142D01*
X95785376Y-45080150D01*
X95780960Y-45085056D01*
X95685473Y-45250444D01*
X95683434Y-45256718D01*
X95683430Y-45256728D01*
X95628497Y-45425794D01*
X95628495Y-45425801D01*
X95626458Y-45432072D01*
X95625768Y-45438633D01*
X95625768Y-45438635D01*
X95608641Y-45601595D01*
X95606496Y-45622000D01*
X95607186Y-45628565D01*
X95625656Y-45804303D01*
X95626458Y-45811928D01*
X95628495Y-45818200D01*
X95628497Y-45818205D01*
X95683430Y-45987271D01*
X95683433Y-45987278D01*
X95685473Y-45993556D01*
X95780960Y-46158944D01*
X95785374Y-46163846D01*
X95785383Y-46163858D01*
X95793338Y-46172693D01*
X95821957Y-46226519D01*
X95821957Y-46287481D01*
X95793338Y-46341307D01*
X95785383Y-46350141D01*
X95785372Y-46350154D01*
X95780960Y-46355056D01*
X95777659Y-46360774D01*
X95777656Y-46360778D01*
X95764937Y-46382808D01*
X95685473Y-46520444D01*
X95683434Y-46526718D01*
X95683430Y-46526728D01*
X95628497Y-46695794D01*
X95628495Y-46695801D01*
X95626458Y-46702072D01*
X95606496Y-46892000D01*
X95607186Y-46898565D01*
X95617371Y-46995475D01*
X95626458Y-47081928D01*
X95628495Y-47088200D01*
X95628497Y-47088205D01*
X95683430Y-47257271D01*
X95683433Y-47257278D01*
X95685473Y-47263556D01*
X95780960Y-47428944D01*
X95785374Y-47433846D01*
X95785383Y-47433858D01*
X95793338Y-47442693D01*
X95821957Y-47496519D01*
X95821957Y-47557481D01*
X95793338Y-47611307D01*
X95785383Y-47620141D01*
X95785372Y-47620154D01*
X95780960Y-47625056D01*
X95777659Y-47630774D01*
X95777656Y-47630778D01*
X95721078Y-47728774D01*
X95685473Y-47790444D01*
X95683434Y-47796718D01*
X95683430Y-47796728D01*
X95628497Y-47965794D01*
X95628495Y-47965801D01*
X95626458Y-47972072D01*
X95625768Y-47978633D01*
X95625768Y-47978635D01*
X95608641Y-48141595D01*
X95606496Y-48162000D01*
X90932500Y-48162000D01*
X90932500Y-41022952D01*
X90932562Y-41018994D01*
X90935855Y-40914206D01*
X90944478Y-40639788D01*
X90951870Y-40414024D01*
X90952357Y-40406371D01*
X90984110Y-40070459D01*
X91010958Y-39797871D01*
X91011895Y-39790563D01*
X91063216Y-39466534D01*
X91109415Y-39186714D01*
X91110747Y-39179856D01*
X91181368Y-38863917D01*
X91181566Y-38863053D01*
X91181598Y-38862919D01*
X91246808Y-38583242D01*
X91248506Y-38576752D01*
X91313221Y-38354000D01*
X101598996Y-38354000D01*
X101618958Y-38543928D01*
X101620995Y-38550200D01*
X101620997Y-38550205D01*
X101675930Y-38719271D01*
X101675933Y-38719278D01*
X101677973Y-38725556D01*
X101773460Y-38890944D01*
X101901247Y-39032866D01*
X102055748Y-39145118D01*
X102230212Y-39222794D01*
X102417013Y-39262500D01*
X102601384Y-39262500D01*
X102607987Y-39262500D01*
X102794788Y-39222794D01*
X102969252Y-39145118D01*
X103123753Y-39032866D01*
X103251540Y-38890944D01*
X103347027Y-38725556D01*
X103406042Y-38543928D01*
X103426004Y-38354000D01*
X103406042Y-38164072D01*
X103357914Y-38015949D01*
X103349069Y-37988728D01*
X103349068Y-37988726D01*
X103347027Y-37982444D01*
X103251540Y-37817056D01*
X103123753Y-37675134D01*
X103118411Y-37671253D01*
X103118408Y-37671250D01*
X103037533Y-37612491D01*
X102969252Y-37562882D01*
X102794788Y-37485206D01*
X102788335Y-37483834D01*
X102788331Y-37483833D01*
X102614443Y-37446872D01*
X102614440Y-37446871D01*
X102607987Y-37445500D01*
X102417013Y-37445500D01*
X102410560Y-37446871D01*
X102410556Y-37446872D01*
X102236668Y-37483833D01*
X102236661Y-37483835D01*
X102230212Y-37485206D01*
X102224182Y-37487890D01*
X102224181Y-37487891D01*
X102061778Y-37560197D01*
X102061775Y-37560198D01*
X102055748Y-37562882D01*
X102050407Y-37566762D01*
X102050406Y-37566763D01*
X101906591Y-37671250D01*
X101906583Y-37671256D01*
X101901247Y-37675134D01*
X101896830Y-37680039D01*
X101896825Y-37680044D01*
X101814865Y-37771071D01*
X101773460Y-37817056D01*
X101770161Y-37822769D01*
X101770158Y-37822774D01*
X101732980Y-37887169D01*
X101677973Y-37982444D01*
X101675934Y-37988718D01*
X101675930Y-37988728D01*
X101620997Y-38157794D01*
X101620995Y-38157801D01*
X101618958Y-38164072D01*
X101618268Y-38170633D01*
X101618268Y-38170635D01*
X101603853Y-38307784D01*
X101598996Y-38354000D01*
X91313221Y-38354000D01*
X91338256Y-38267830D01*
X91338490Y-38267043D01*
X91422606Y-37989751D01*
X91424590Y-37983766D01*
X91533069Y-37682454D01*
X91533544Y-37681165D01*
X91636041Y-37408837D01*
X91638284Y-37403289D01*
X91765107Y-37110217D01*
X91765777Y-37108704D01*
X91886257Y-36842798D01*
X91888711Y-36837696D01*
X92032237Y-36556011D01*
X125451496Y-36556011D01*
X125471458Y-36745939D01*
X125473495Y-36752211D01*
X125473497Y-36752216D01*
X125528430Y-36921282D01*
X125528433Y-36921289D01*
X125530473Y-36927567D01*
X125625960Y-37092955D01*
X125753747Y-37234877D01*
X125759089Y-37238758D01*
X125759091Y-37238760D01*
X125772848Y-37248755D01*
X125908248Y-37347129D01*
X126082712Y-37424805D01*
X126269513Y-37464511D01*
X126453884Y-37464511D01*
X126460487Y-37464511D01*
X126647288Y-37424805D01*
X126821752Y-37347129D01*
X126976253Y-37234877D01*
X127104040Y-37092955D01*
X127199527Y-36927567D01*
X127258542Y-36745939D01*
X127278504Y-36556011D01*
X127258542Y-36366083D01*
X127199527Y-36184455D01*
X127104040Y-36019067D01*
X126976253Y-35877145D01*
X126970911Y-35873264D01*
X126970908Y-35873261D01*
X126828332Y-35769674D01*
X126821752Y-35764893D01*
X126647288Y-35687217D01*
X126640835Y-35685845D01*
X126640831Y-35685844D01*
X126466943Y-35648883D01*
X126466940Y-35648882D01*
X126460487Y-35647511D01*
X126269513Y-35647511D01*
X126263060Y-35648882D01*
X126263056Y-35648883D01*
X126089168Y-35685844D01*
X126089161Y-35685846D01*
X126082712Y-35687217D01*
X126076682Y-35689901D01*
X126076681Y-35689902D01*
X125914278Y-35762208D01*
X125914275Y-35762209D01*
X125908248Y-35764893D01*
X125902907Y-35768773D01*
X125902906Y-35768774D01*
X125759091Y-35873261D01*
X125759083Y-35873267D01*
X125753747Y-35877145D01*
X125749330Y-35882050D01*
X125749325Y-35882055D01*
X125653258Y-35988749D01*
X125625960Y-36019067D01*
X125622661Y-36024780D01*
X125622658Y-36024785D01*
X125533777Y-36178732D01*
X125530473Y-36184455D01*
X125528434Y-36190729D01*
X125528430Y-36190739D01*
X125473497Y-36359805D01*
X125473495Y-36359812D01*
X125471458Y-36366083D01*
X125451496Y-36556011D01*
X92032237Y-36556011D01*
X92033377Y-36553774D01*
X92034369Y-36551873D01*
X92172199Y-36294011D01*
X92174841Y-36289318D01*
X92217125Y-36217821D01*
X92336753Y-36015539D01*
X92338138Y-36013255D01*
X92492732Y-35764649D01*
X92495439Y-35760487D01*
X92674099Y-35497596D01*
X92675745Y-35495237D01*
X92811350Y-35306000D01*
X99572496Y-35306000D01*
X99592458Y-35495928D01*
X99594495Y-35502200D01*
X99594497Y-35502205D01*
X99649430Y-35671271D01*
X99649433Y-35671278D01*
X99651473Y-35677556D01*
X99746960Y-35842944D01*
X99874747Y-35984866D01*
X100029248Y-36097118D01*
X100203712Y-36174794D01*
X100390513Y-36214500D01*
X100574884Y-36214500D01*
X100581487Y-36214500D01*
X100768288Y-36174794D01*
X100942752Y-36097118D01*
X101046940Y-36021420D01*
X101094803Y-36000110D01*
X101147197Y-36000110D01*
X101195059Y-36021420D01*
X101299248Y-36097118D01*
X101473712Y-36174794D01*
X101660513Y-36214500D01*
X101844884Y-36214500D01*
X101851487Y-36214500D01*
X102038288Y-36174794D01*
X102212752Y-36097118D01*
X102316940Y-36021420D01*
X102364803Y-36000110D01*
X102417197Y-36000110D01*
X102465059Y-36021420D01*
X102569248Y-36097118D01*
X102743712Y-36174794D01*
X102930513Y-36214500D01*
X103114884Y-36214500D01*
X103121487Y-36214500D01*
X103308288Y-36174794D01*
X103482752Y-36097118D01*
X103586940Y-36021420D01*
X103634803Y-36000110D01*
X103687197Y-36000110D01*
X103735059Y-36021420D01*
X103839248Y-36097118D01*
X104013712Y-36174794D01*
X104200513Y-36214500D01*
X104384884Y-36214500D01*
X104391487Y-36214500D01*
X104578288Y-36174794D01*
X104752752Y-36097118D01*
X104856940Y-36021420D01*
X104904803Y-36000110D01*
X104957197Y-36000110D01*
X105005059Y-36021420D01*
X105109248Y-36097118D01*
X105283712Y-36174794D01*
X105470513Y-36214500D01*
X105654884Y-36214500D01*
X105661487Y-36214500D01*
X105848288Y-36174794D01*
X106022752Y-36097118D01*
X106126940Y-36021420D01*
X106174803Y-36000110D01*
X106227197Y-36000110D01*
X106275059Y-36021420D01*
X106379248Y-36097118D01*
X106553712Y-36174794D01*
X106740513Y-36214500D01*
X106924884Y-36214500D01*
X106931487Y-36214500D01*
X107118288Y-36174794D01*
X107292752Y-36097118D01*
X107396940Y-36021420D01*
X107444803Y-36000110D01*
X107497197Y-36000110D01*
X107545059Y-36021420D01*
X107649248Y-36097118D01*
X107823712Y-36174794D01*
X108010513Y-36214500D01*
X108194884Y-36214500D01*
X108201487Y-36214500D01*
X108388288Y-36174794D01*
X108562752Y-36097118D01*
X108666940Y-36021420D01*
X108714803Y-36000110D01*
X108767197Y-36000110D01*
X108815059Y-36021420D01*
X108919248Y-36097118D01*
X109093712Y-36174794D01*
X109280513Y-36214500D01*
X109464884Y-36214500D01*
X109471487Y-36214500D01*
X109658288Y-36174794D01*
X109832752Y-36097118D01*
X109936940Y-36021420D01*
X109984803Y-36000110D01*
X110037197Y-36000110D01*
X110085059Y-36021420D01*
X110189248Y-36097118D01*
X110363712Y-36174794D01*
X110550513Y-36214500D01*
X110734884Y-36214500D01*
X110741487Y-36214500D01*
X110928288Y-36174794D01*
X111102752Y-36097118D01*
X111206940Y-36021420D01*
X111254803Y-36000110D01*
X111307197Y-36000110D01*
X111355059Y-36021420D01*
X111459248Y-36097118D01*
X111633712Y-36174794D01*
X111820513Y-36214500D01*
X112004884Y-36214500D01*
X112011487Y-36214500D01*
X112198288Y-36174794D01*
X112372752Y-36097118D01*
X112527253Y-35984866D01*
X112655040Y-35842944D01*
X112750527Y-35677556D01*
X112809542Y-35495928D01*
X112829504Y-35306000D01*
X112809542Y-35116072D01*
X112750527Y-34934444D01*
X112655040Y-34769056D01*
X112527253Y-34627134D01*
X112521911Y-34623253D01*
X112521908Y-34623250D01*
X112395850Y-34531664D01*
X112372752Y-34514882D01*
X112198288Y-34437206D01*
X112191835Y-34435834D01*
X112191831Y-34435833D01*
X112017943Y-34398872D01*
X112017940Y-34398871D01*
X112011487Y-34397500D01*
X111820513Y-34397500D01*
X111814060Y-34398871D01*
X111814056Y-34398872D01*
X111640168Y-34435833D01*
X111640161Y-34435835D01*
X111633712Y-34437206D01*
X111627682Y-34439890D01*
X111627681Y-34439891D01*
X111465278Y-34512197D01*
X111465275Y-34512198D01*
X111459248Y-34514882D01*
X111453907Y-34518762D01*
X111453906Y-34518763D01*
X111355061Y-34590578D01*
X111307197Y-34611889D01*
X111254803Y-34611889D01*
X111206939Y-34590578D01*
X111125850Y-34531664D01*
X111102752Y-34514882D01*
X110928288Y-34437206D01*
X110921835Y-34435834D01*
X110921831Y-34435833D01*
X110747943Y-34398872D01*
X110747940Y-34398871D01*
X110741487Y-34397500D01*
X110550513Y-34397500D01*
X110544060Y-34398871D01*
X110544056Y-34398872D01*
X110370168Y-34435833D01*
X110370161Y-34435835D01*
X110363712Y-34437206D01*
X110357682Y-34439890D01*
X110357681Y-34439891D01*
X110195278Y-34512197D01*
X110195275Y-34512198D01*
X110189248Y-34514882D01*
X110183907Y-34518762D01*
X110183906Y-34518763D01*
X110085061Y-34590578D01*
X110037197Y-34611889D01*
X109984803Y-34611889D01*
X109936939Y-34590578D01*
X109855850Y-34531664D01*
X109832752Y-34514882D01*
X109658288Y-34437206D01*
X109651835Y-34435834D01*
X109651831Y-34435833D01*
X109477943Y-34398872D01*
X109477940Y-34398871D01*
X109471487Y-34397500D01*
X109280513Y-34397500D01*
X109274060Y-34398871D01*
X109274056Y-34398872D01*
X109100168Y-34435833D01*
X109100161Y-34435835D01*
X109093712Y-34437206D01*
X109087682Y-34439890D01*
X109087681Y-34439891D01*
X108925278Y-34512197D01*
X108925275Y-34512198D01*
X108919248Y-34514882D01*
X108913907Y-34518762D01*
X108913906Y-34518763D01*
X108815061Y-34590578D01*
X108767197Y-34611889D01*
X108714803Y-34611889D01*
X108666939Y-34590578D01*
X108585850Y-34531664D01*
X108562752Y-34514882D01*
X108388288Y-34437206D01*
X108381835Y-34435834D01*
X108381831Y-34435833D01*
X108207943Y-34398872D01*
X108207940Y-34398871D01*
X108201487Y-34397500D01*
X108010513Y-34397500D01*
X108004060Y-34398871D01*
X108004056Y-34398872D01*
X107830168Y-34435833D01*
X107830161Y-34435835D01*
X107823712Y-34437206D01*
X107817682Y-34439890D01*
X107817681Y-34439891D01*
X107655278Y-34512197D01*
X107655275Y-34512198D01*
X107649248Y-34514882D01*
X107643907Y-34518762D01*
X107643906Y-34518763D01*
X107545061Y-34590578D01*
X107497197Y-34611889D01*
X107444803Y-34611889D01*
X107396939Y-34590578D01*
X107315850Y-34531664D01*
X107292752Y-34514882D01*
X107118288Y-34437206D01*
X107111835Y-34435834D01*
X107111831Y-34435833D01*
X106937943Y-34398872D01*
X106937940Y-34398871D01*
X106931487Y-34397500D01*
X106740513Y-34397500D01*
X106734060Y-34398871D01*
X106734056Y-34398872D01*
X106560168Y-34435833D01*
X106560161Y-34435835D01*
X106553712Y-34437206D01*
X106547682Y-34439890D01*
X106547681Y-34439891D01*
X106385278Y-34512197D01*
X106385275Y-34512198D01*
X106379248Y-34514882D01*
X106373907Y-34518762D01*
X106373906Y-34518763D01*
X106275061Y-34590578D01*
X106227197Y-34611889D01*
X106174803Y-34611889D01*
X106126939Y-34590578D01*
X106045850Y-34531664D01*
X106022752Y-34514882D01*
X105848288Y-34437206D01*
X105841835Y-34435834D01*
X105841831Y-34435833D01*
X105667943Y-34398872D01*
X105667940Y-34398871D01*
X105661487Y-34397500D01*
X105470513Y-34397500D01*
X105464060Y-34398871D01*
X105464056Y-34398872D01*
X105290168Y-34435833D01*
X105290161Y-34435835D01*
X105283712Y-34437206D01*
X105277682Y-34439890D01*
X105277681Y-34439891D01*
X105115278Y-34512197D01*
X105115275Y-34512198D01*
X105109248Y-34514882D01*
X105103907Y-34518762D01*
X105103906Y-34518763D01*
X105005061Y-34590578D01*
X104957197Y-34611889D01*
X104904803Y-34611889D01*
X104856939Y-34590578D01*
X104775850Y-34531664D01*
X104752752Y-34514882D01*
X104578288Y-34437206D01*
X104571835Y-34435834D01*
X104571831Y-34435833D01*
X104397943Y-34398872D01*
X104397940Y-34398871D01*
X104391487Y-34397500D01*
X104200513Y-34397500D01*
X104194060Y-34398871D01*
X104194056Y-34398872D01*
X104020168Y-34435833D01*
X104020161Y-34435835D01*
X104013712Y-34437206D01*
X104007682Y-34439890D01*
X104007681Y-34439891D01*
X103845278Y-34512197D01*
X103845275Y-34512198D01*
X103839248Y-34514882D01*
X103833907Y-34518762D01*
X103833906Y-34518763D01*
X103735061Y-34590578D01*
X103687197Y-34611889D01*
X103634803Y-34611889D01*
X103586939Y-34590578D01*
X103505850Y-34531664D01*
X103482752Y-34514882D01*
X103308288Y-34437206D01*
X103301835Y-34435834D01*
X103301831Y-34435833D01*
X103127943Y-34398872D01*
X103127940Y-34398871D01*
X103121487Y-34397500D01*
X102930513Y-34397500D01*
X102924060Y-34398871D01*
X102924056Y-34398872D01*
X102750168Y-34435833D01*
X102750161Y-34435835D01*
X102743712Y-34437206D01*
X102737682Y-34439890D01*
X102737681Y-34439891D01*
X102575278Y-34512197D01*
X102575275Y-34512198D01*
X102569248Y-34514882D01*
X102563907Y-34518762D01*
X102563906Y-34518763D01*
X102465061Y-34590578D01*
X102417197Y-34611889D01*
X102364803Y-34611889D01*
X102316939Y-34590578D01*
X102235850Y-34531664D01*
X102212752Y-34514882D01*
X102038288Y-34437206D01*
X102031835Y-34435834D01*
X102031831Y-34435833D01*
X101857943Y-34398872D01*
X101857940Y-34398871D01*
X101851487Y-34397500D01*
X101660513Y-34397500D01*
X101654060Y-34398871D01*
X101654056Y-34398872D01*
X101480168Y-34435833D01*
X101480161Y-34435835D01*
X101473712Y-34437206D01*
X101467682Y-34439890D01*
X101467681Y-34439891D01*
X101305278Y-34512197D01*
X101305275Y-34512198D01*
X101299248Y-34514882D01*
X101293907Y-34518762D01*
X101293906Y-34518763D01*
X101195061Y-34590578D01*
X101147197Y-34611889D01*
X101094803Y-34611889D01*
X101046939Y-34590578D01*
X100965850Y-34531664D01*
X100942752Y-34514882D01*
X100768288Y-34437206D01*
X100761835Y-34435834D01*
X100761831Y-34435833D01*
X100587943Y-34398872D01*
X100587940Y-34398871D01*
X100581487Y-34397500D01*
X100390513Y-34397500D01*
X100384060Y-34398871D01*
X100384056Y-34398872D01*
X100210168Y-34435833D01*
X100210161Y-34435835D01*
X100203712Y-34437206D01*
X100197682Y-34439890D01*
X100197681Y-34439891D01*
X100035278Y-34512197D01*
X100035275Y-34512198D01*
X100029248Y-34514882D01*
X100023907Y-34518762D01*
X100023906Y-34518763D01*
X99880091Y-34623250D01*
X99880083Y-34623256D01*
X99874747Y-34627134D01*
X99870330Y-34632039D01*
X99870325Y-34632044D01*
X99751379Y-34764148D01*
X99746960Y-34769056D01*
X99743661Y-34774769D01*
X99743658Y-34774774D01*
X99689314Y-34868901D01*
X99651473Y-34934444D01*
X99649434Y-34940718D01*
X99649430Y-34940728D01*
X99594497Y-35109794D01*
X99594495Y-35109801D01*
X99592458Y-35116072D01*
X99572496Y-35306000D01*
X92811350Y-35306000D01*
X92846461Y-35257002D01*
X92849270Y-35253235D01*
X93043957Y-35002246D01*
X93045955Y-34999743D01*
X93232002Y-34773045D01*
X93234833Y-34769717D01*
X93444781Y-34531577D01*
X93447173Y-34528945D01*
X93647730Y-34314812D01*
X93650490Y-34311961D01*
X93874968Y-34087483D01*
X93877790Y-34084750D01*
X94091950Y-33884169D01*
X94094600Y-33881761D01*
X94332758Y-33671797D01*
X94335999Y-33669039D01*
X94562744Y-33482953D01*
X94565255Y-33480950D01*
X94816248Y-33286260D01*
X94819976Y-33283480D01*
X95058240Y-33112742D01*
X95060607Y-33111091D01*
X95323461Y-32932456D01*
X95327664Y-32929722D01*
X95576286Y-32775119D01*
X95578566Y-32773737D01*
X95852331Y-32611833D01*
X95856983Y-32609215D01*
X96114900Y-32471355D01*
X96116791Y-32470368D01*
X96400683Y-32325718D01*
X96405821Y-32323246D01*
X96671711Y-32202774D01*
X96673211Y-32202110D01*
X96966268Y-32075292D01*
X96971821Y-32073047D01*
X97244157Y-31970546D01*
X97245466Y-31970064D01*
X97546763Y-31861591D01*
X97552793Y-31859593D01*
X97829909Y-31775531D01*
X97830902Y-31775236D01*
X98139764Y-31685503D01*
X98146235Y-31683810D01*
X98426047Y-31618567D01*
X98426891Y-31618374D01*
X98742860Y-31547747D01*
X98749744Y-31546410D01*
X99029316Y-31500252D01*
X99029513Y-31500220D01*
X99353564Y-31448895D01*
X99360872Y-31447958D01*
X99633498Y-31421106D01*
X99969372Y-31389357D01*
X99977026Y-31388870D01*
X100203184Y-31381466D01*
X100203355Y-31381461D01*
X100203356Y-31381498D01*
X100203509Y-31381456D01*
X100575652Y-31369761D01*
X100581996Y-31369562D01*
X100585953Y-31369500D01*
X163066015Y-31369500D01*
X163069972Y-31369562D01*
G37*
G04 #@! TD.AperFunction*
M02*
