G04 #@! TF.GenerationSoftware,KiCad,Pcbnew,7.0.0-1.fc37*
G04 #@! TF.CreationDate,2023-02-19T18:56:11+00:00*
G04 #@! TF.ProjectId,Agnus,41676e75-732e-46b6-9963-61645f706362,rev?*
G04 #@! TF.SameCoordinates,Original*
G04 #@! TF.FileFunction,Legend,Bot*
G04 #@! TF.FilePolarity,Positive*
%FSLAX46Y46*%
G04 Gerber Fmt 4.6, Leading zero omitted, Abs format (unit mm)*
G04 Created by KiCad (PCBNEW 7.0.0-1.fc37) date 2023-02-19 18:56:11*
%MOMM*%
%LPD*%
G01*
G04 APERTURE LIST*
%ADD10C,0.150000*%
%ADD11C,0.500000*%
%ADD12C,0.120000*%
%ADD13C,0.100000*%
G04 APERTURE END LIST*
D10*
X133521485Y-52437380D02*
X134092913Y-52437380D01*
X133807199Y-52437380D02*
X133807199Y-51437380D01*
X133807199Y-51437380D02*
X133902437Y-51580238D01*
X133902437Y-51580238D02*
X133997675Y-51675476D01*
X133997675Y-51675476D02*
X134092913Y-51723095D01*
X127222285Y-52386580D02*
X127793713Y-52386580D01*
X127507999Y-52386580D02*
X127507999Y-51386580D01*
X127507999Y-51386580D02*
X127603237Y-51529438D01*
X127603237Y-51529438D02*
X127698475Y-51624676D01*
X127698475Y-51624676D02*
X127793713Y-51672295D01*
D11*
X149451904Y-48387380D02*
X149356666Y-48196904D01*
X149356666Y-48196904D02*
X149261428Y-48101666D01*
X149261428Y-48101666D02*
X149070952Y-48006428D01*
X149070952Y-48006428D02*
X148975714Y-48006428D01*
X148975714Y-48006428D02*
X148785238Y-48101666D01*
X148785238Y-48101666D02*
X148690000Y-48196904D01*
X148690000Y-48196904D02*
X148594761Y-48387380D01*
X148594761Y-48387380D02*
X148594761Y-48768333D01*
X148594761Y-48768333D02*
X148690000Y-48958809D01*
X148690000Y-48958809D02*
X148785238Y-49054047D01*
X148785238Y-49054047D02*
X148975714Y-49149285D01*
X148975714Y-49149285D02*
X149070952Y-49149285D01*
X149070952Y-49149285D02*
X149261428Y-49054047D01*
X149261428Y-49054047D02*
X149356666Y-48958809D01*
X149356666Y-48958809D02*
X149451904Y-48768333D01*
X149451904Y-48768333D02*
X149451904Y-48387380D01*
X149451904Y-48387380D02*
X149547142Y-48196904D01*
X149547142Y-48196904D02*
X149642380Y-48101666D01*
X149642380Y-48101666D02*
X149832857Y-48006428D01*
X149832857Y-48006428D02*
X150213809Y-48006428D01*
X150213809Y-48006428D02*
X150404285Y-48101666D01*
X150404285Y-48101666D02*
X150499523Y-48196904D01*
X150499523Y-48196904D02*
X150594761Y-48387380D01*
X150594761Y-48387380D02*
X150594761Y-48768333D01*
X150594761Y-48768333D02*
X150499523Y-48958809D01*
X150499523Y-48958809D02*
X150404285Y-49054047D01*
X150404285Y-49054047D02*
X150213809Y-49149285D01*
X150213809Y-49149285D02*
X149832857Y-49149285D01*
X149832857Y-49149285D02*
X149642380Y-49054047D01*
X149642380Y-49054047D02*
X149547142Y-48958809D01*
X149547142Y-48958809D02*
X149451904Y-48768333D01*
X148594761Y-49815952D02*
X148594761Y-51054047D01*
X148594761Y-51054047D02*
X149356666Y-50387380D01*
X149356666Y-50387380D02*
X149356666Y-50673095D01*
X149356666Y-50673095D02*
X149451904Y-50863571D01*
X149451904Y-50863571D02*
X149547142Y-50958809D01*
X149547142Y-50958809D02*
X149737619Y-51054047D01*
X149737619Y-51054047D02*
X150213809Y-51054047D01*
X150213809Y-51054047D02*
X150404285Y-50958809D01*
X150404285Y-50958809D02*
X150499523Y-50863571D01*
X150499523Y-50863571D02*
X150594761Y-50673095D01*
X150594761Y-50673095D02*
X150594761Y-50101666D01*
X150594761Y-50101666D02*
X150499523Y-49911190D01*
X150499523Y-49911190D02*
X150404285Y-49815952D01*
X148594761Y-51720714D02*
X148594761Y-53054047D01*
X148594761Y-53054047D02*
X150594761Y-52196904D01*
X148594761Y-54768333D02*
X148594761Y-53815952D01*
X148594761Y-53815952D02*
X149547142Y-53720714D01*
X149547142Y-53720714D02*
X149451904Y-53815952D01*
X149451904Y-53815952D02*
X149356666Y-54006428D01*
X149356666Y-54006428D02*
X149356666Y-54482619D01*
X149356666Y-54482619D02*
X149451904Y-54673095D01*
X149451904Y-54673095D02*
X149547142Y-54768333D01*
X149547142Y-54768333D02*
X149737619Y-54863571D01*
X149737619Y-54863571D02*
X150213809Y-54863571D01*
X150213809Y-54863571D02*
X150404285Y-54768333D01*
X150404285Y-54768333D02*
X150499523Y-54673095D01*
X150499523Y-54673095D02*
X150594761Y-54482619D01*
X150594761Y-54482619D02*
X150594761Y-54006428D01*
X150594761Y-54006428D02*
X150499523Y-53815952D01*
X150499523Y-53815952D02*
X150404285Y-53720714D01*
D10*
X157527048Y-41150380D02*
X157527048Y-41864666D01*
X157527048Y-41864666D02*
X157574667Y-42007523D01*
X157574667Y-42007523D02*
X157669905Y-42102761D01*
X157669905Y-42102761D02*
X157812762Y-42150380D01*
X157812762Y-42150380D02*
X157908000Y-42150380D01*
X156574667Y-42150380D02*
X157050857Y-42150380D01*
X157050857Y-42150380D02*
X157050857Y-41150380D01*
X155669905Y-42055142D02*
X155717524Y-42102761D01*
X155717524Y-42102761D02*
X155860381Y-42150380D01*
X155860381Y-42150380D02*
X155955619Y-42150380D01*
X155955619Y-42150380D02*
X156098476Y-42102761D01*
X156098476Y-42102761D02*
X156193714Y-42007523D01*
X156193714Y-42007523D02*
X156241333Y-41912285D01*
X156241333Y-41912285D02*
X156288952Y-41721809D01*
X156288952Y-41721809D02*
X156288952Y-41578952D01*
X156288952Y-41578952D02*
X156241333Y-41388476D01*
X156241333Y-41388476D02*
X156193714Y-41293238D01*
X156193714Y-41293238D02*
X156098476Y-41198000D01*
X156098476Y-41198000D02*
X155955619Y-41150380D01*
X155955619Y-41150380D02*
X155860381Y-41150380D01*
X155860381Y-41150380D02*
X155717524Y-41198000D01*
X155717524Y-41198000D02*
X155669905Y-41245619D01*
X154955619Y-41150380D02*
X154955619Y-41864666D01*
X154955619Y-41864666D02*
X155003238Y-42007523D01*
X155003238Y-42007523D02*
X155098476Y-42102761D01*
X155098476Y-42102761D02*
X155241333Y-42150380D01*
X155241333Y-42150380D02*
X155336571Y-42150380D01*
X154003238Y-42150380D02*
X154479428Y-42150380D01*
X154479428Y-42150380D02*
X154479428Y-41150380D01*
X153098476Y-42055142D02*
X153146095Y-42102761D01*
X153146095Y-42102761D02*
X153288952Y-42150380D01*
X153288952Y-42150380D02*
X153384190Y-42150380D01*
X153384190Y-42150380D02*
X153527047Y-42102761D01*
X153527047Y-42102761D02*
X153622285Y-42007523D01*
X153622285Y-42007523D02*
X153669904Y-41912285D01*
X153669904Y-41912285D02*
X153717523Y-41721809D01*
X153717523Y-41721809D02*
X153717523Y-41578952D01*
X153717523Y-41578952D02*
X153669904Y-41388476D01*
X153669904Y-41388476D02*
X153622285Y-41293238D01*
X153622285Y-41293238D02*
X153527047Y-41198000D01*
X153527047Y-41198000D02*
X153384190Y-41150380D01*
X153384190Y-41150380D02*
X153288952Y-41150380D01*
X153288952Y-41150380D02*
X153146095Y-41198000D01*
X153146095Y-41198000D02*
X153098476Y-41245619D01*
X152384190Y-41150380D02*
X152384190Y-41864666D01*
X152384190Y-41864666D02*
X152431809Y-42007523D01*
X152431809Y-42007523D02*
X152527047Y-42102761D01*
X152527047Y-42102761D02*
X152669904Y-42150380D01*
X152669904Y-42150380D02*
X152765142Y-42150380D01*
X151431809Y-42150380D02*
X151907999Y-42150380D01*
X151907999Y-42150380D02*
X151907999Y-41150380D01*
X150527047Y-42055142D02*
X150574666Y-42102761D01*
X150574666Y-42102761D02*
X150717523Y-42150380D01*
X150717523Y-42150380D02*
X150812761Y-42150380D01*
X150812761Y-42150380D02*
X150955618Y-42102761D01*
X150955618Y-42102761D02*
X151050856Y-42007523D01*
X151050856Y-42007523D02*
X151098475Y-41912285D01*
X151098475Y-41912285D02*
X151146094Y-41721809D01*
X151146094Y-41721809D02*
X151146094Y-41578952D01*
X151146094Y-41578952D02*
X151098475Y-41388476D01*
X151098475Y-41388476D02*
X151050856Y-41293238D01*
X151050856Y-41293238D02*
X150955618Y-41198000D01*
X150955618Y-41198000D02*
X150812761Y-41150380D01*
X150812761Y-41150380D02*
X150717523Y-41150380D01*
X150717523Y-41150380D02*
X150574666Y-41198000D01*
X150574666Y-41198000D02*
X150527047Y-41245619D01*
X149812761Y-41150380D02*
X149812761Y-41864666D01*
X149812761Y-41864666D02*
X149860380Y-42007523D01*
X149860380Y-42007523D02*
X149955618Y-42102761D01*
X149955618Y-42102761D02*
X150098475Y-42150380D01*
X150098475Y-42150380D02*
X150193713Y-42150380D01*
X148860380Y-42150380D02*
X149336570Y-42150380D01*
X149336570Y-42150380D02*
X149336570Y-41150380D01*
X147955618Y-42055142D02*
X148003237Y-42102761D01*
X148003237Y-42102761D02*
X148146094Y-42150380D01*
X148146094Y-42150380D02*
X148241332Y-42150380D01*
X148241332Y-42150380D02*
X148384189Y-42102761D01*
X148384189Y-42102761D02*
X148479427Y-42007523D01*
X148479427Y-42007523D02*
X148527046Y-41912285D01*
X148527046Y-41912285D02*
X148574665Y-41721809D01*
X148574665Y-41721809D02*
X148574665Y-41578952D01*
X148574665Y-41578952D02*
X148527046Y-41388476D01*
X148527046Y-41388476D02*
X148479427Y-41293238D01*
X148479427Y-41293238D02*
X148384189Y-41198000D01*
X148384189Y-41198000D02*
X148241332Y-41150380D01*
X148241332Y-41150380D02*
X148146094Y-41150380D01*
X148146094Y-41150380D02*
X148003237Y-41198000D01*
X148003237Y-41198000D02*
X147955618Y-41245619D01*
X150751380Y-73799867D02*
X151751380Y-74133200D01*
X151751380Y-74133200D02*
X150751380Y-74466533D01*
X151227571Y-75133200D02*
X151275190Y-75276057D01*
X151275190Y-75276057D02*
X151322809Y-75323676D01*
X151322809Y-75323676D02*
X151418047Y-75371295D01*
X151418047Y-75371295D02*
X151560904Y-75371295D01*
X151560904Y-75371295D02*
X151656142Y-75323676D01*
X151656142Y-75323676D02*
X151703761Y-75276057D01*
X151703761Y-75276057D02*
X151751380Y-75180819D01*
X151751380Y-75180819D02*
X151751380Y-74799867D01*
X151751380Y-74799867D02*
X150751380Y-74799867D01*
X150751380Y-74799867D02*
X150751380Y-75133200D01*
X150751380Y-75133200D02*
X150799000Y-75228438D01*
X150799000Y-75228438D02*
X150846619Y-75276057D01*
X150846619Y-75276057D02*
X150941857Y-75323676D01*
X150941857Y-75323676D02*
X151037095Y-75323676D01*
X151037095Y-75323676D02*
X151132333Y-75276057D01*
X151132333Y-75276057D02*
X151179952Y-75228438D01*
X151179952Y-75228438D02*
X151227571Y-75133200D01*
X151227571Y-75133200D02*
X151227571Y-74799867D01*
X151227571Y-76133200D02*
X151275190Y-76276057D01*
X151275190Y-76276057D02*
X151322809Y-76323676D01*
X151322809Y-76323676D02*
X151418047Y-76371295D01*
X151418047Y-76371295D02*
X151560904Y-76371295D01*
X151560904Y-76371295D02*
X151656142Y-76323676D01*
X151656142Y-76323676D02*
X151703761Y-76276057D01*
X151703761Y-76276057D02*
X151751380Y-76180819D01*
X151751380Y-76180819D02*
X151751380Y-75799867D01*
X151751380Y-75799867D02*
X150751380Y-75799867D01*
X150751380Y-75799867D02*
X150751380Y-76133200D01*
X150751380Y-76133200D02*
X150799000Y-76228438D01*
X150799000Y-76228438D02*
X150846619Y-76276057D01*
X150846619Y-76276057D02*
X150941857Y-76323676D01*
X150941857Y-76323676D02*
X151037095Y-76323676D01*
X151037095Y-76323676D02*
X151132333Y-76276057D01*
X151132333Y-76276057D02*
X151179952Y-76228438D01*
X151179952Y-76228438D02*
X151227571Y-76133200D01*
X151227571Y-76133200D02*
X151227571Y-75799867D01*
X113908619Y-52831904D02*
X113099095Y-52831904D01*
X113099095Y-52831904D02*
X113003857Y-52784285D01*
X113003857Y-52784285D02*
X112956238Y-52736666D01*
X112956238Y-52736666D02*
X112908619Y-52641428D01*
X112908619Y-52641428D02*
X112908619Y-52450952D01*
X112908619Y-52450952D02*
X112956238Y-52355714D01*
X112956238Y-52355714D02*
X113003857Y-52308095D01*
X113003857Y-52308095D02*
X113099095Y-52260476D01*
X113099095Y-52260476D02*
X113908619Y-52260476D01*
X112908619Y-51260476D02*
X112908619Y-51831904D01*
X112908619Y-51546190D02*
X113908619Y-51546190D01*
X113908619Y-51546190D02*
X113765761Y-51641428D01*
X113765761Y-51641428D02*
X113670523Y-51736666D01*
X113670523Y-51736666D02*
X113622904Y-51831904D01*
D12*
X152654000Y-75133200D02*
X152654000Y-76403200D01*
X152654000Y-76403200D02*
X153924000Y-76403200D01*
X154966929Y-72213200D02*
X155364000Y-72213200D01*
X154966929Y-72973200D02*
X155364000Y-72973200D01*
X155034000Y-74753200D02*
X155364000Y-74753200D01*
X155034000Y-75513200D02*
X155364000Y-75513200D01*
X155364000Y-71263200D02*
X158024000Y-71263200D01*
X155364000Y-73863200D02*
X158024000Y-73863200D01*
X155364000Y-76463200D02*
X155364000Y-71263200D01*
X158024000Y-71263200D02*
X158024000Y-76463200D01*
X158024000Y-72973200D02*
X164024000Y-72973200D01*
X158024000Y-74853200D02*
X164024000Y-74853200D01*
X158024000Y-74973200D02*
X164024000Y-74973200D01*
X158024000Y-75093200D02*
X164024000Y-75093200D01*
X158024000Y-75213200D02*
X164024000Y-75213200D01*
X158024000Y-75333200D02*
X164024000Y-75333200D01*
X158024000Y-75453200D02*
X164024000Y-75453200D01*
X158024000Y-75513200D02*
X164024000Y-75513200D01*
X158024000Y-76463200D02*
X155364000Y-76463200D01*
X164024000Y-72213200D02*
X158024000Y-72213200D01*
X164024000Y-72973200D02*
X164024000Y-72213200D01*
X164024000Y-74753200D02*
X158024000Y-74753200D01*
X164024000Y-75513200D02*
X164024000Y-74753200D01*
D13*
X126861000Y-67310000D02*
X128511000Y-67310000D01*
X128511000Y-67310000D02*
X128511000Y-65660000D01*
X97861000Y-67297000D02*
X99511000Y-67297000D01*
X97861000Y-65647000D02*
X97861000Y-67297000D01*
X97861000Y-38297000D02*
X97861000Y-36647000D01*
X128552400Y-37751400D02*
X128552400Y-38251400D01*
X97861000Y-36647000D02*
X99511000Y-36647000D01*
X126902400Y-36601400D02*
X127402400Y-36601400D01*
X127402400Y-36601400D02*
X128552400Y-37751400D01*
D12*
X168478000Y-33945000D02*
X168478000Y-70195000D01*
X133258000Y-33945000D02*
X168478000Y-33945000D01*
X132258000Y-34945000D02*
X133258000Y-33945000D01*
X132258000Y-51070000D02*
X132258000Y-34945000D01*
X168478000Y-70195000D02*
X132258000Y-70195000D01*
X132258000Y-70195000D02*
X132258000Y-53070000D01*
M02*
