G04 #@! TF.GenerationSoftware,KiCad,Pcbnew,7.0.0-1.fc37*
G04 #@! TF.CreationDate,2023-02-19T18:59:07+00:00*
G04 #@! TF.ProjectId,Gary,47617279-2e6b-4696-9361-645f70636258,rev?*
G04 #@! TF.SameCoordinates,Original*
G04 #@! TF.FileFunction,Soldermask,Bot*
G04 #@! TF.FilePolarity,Negative*
%FSLAX46Y46*%
G04 Gerber Fmt 4.6, Leading zero omitted, Abs format (unit mm)*
G04 Created by KiCad (PCBNEW 7.0.0-1.fc37) date 2023-02-19 18:59:07*
%MOMM*%
%LPD*%
G01*
G04 APERTURE LIST*
%ADD10R,1.600000X2.400000*%
%ADD11O,1.600000X2.400000*%
%ADD12R,1.000000X1.000000*%
%ADD13O,1.000000X1.000000*%
G04 APERTURE END LIST*
D10*
G04 #@! TO.C,U2*
X186425999Y-42234799D03*
D11*
X183885999Y-42234799D03*
X181345999Y-42234799D03*
X178805999Y-42234799D03*
X176265999Y-42234799D03*
X173725999Y-42234799D03*
X171185999Y-42234799D03*
X168645999Y-42234799D03*
X166105999Y-42234799D03*
X163565999Y-42234799D03*
X161025999Y-42234799D03*
X158485999Y-42234799D03*
X155945999Y-42234799D03*
X153405999Y-42234799D03*
X150865999Y-42234799D03*
X148325999Y-42234799D03*
X145785999Y-42234799D03*
X143245999Y-42234799D03*
X140705999Y-42234799D03*
X138165999Y-42234799D03*
X135625999Y-42234799D03*
X133085999Y-42234799D03*
X130545999Y-42234799D03*
X128005999Y-42234799D03*
X128005999Y-57474799D03*
X130545999Y-57474799D03*
X133085999Y-57474799D03*
X135625999Y-57474799D03*
X138165999Y-57474799D03*
X140705999Y-57474799D03*
X143245999Y-57474799D03*
X145785999Y-57474799D03*
X148325999Y-57474799D03*
X150865999Y-57474799D03*
X153405999Y-57474799D03*
X155945999Y-57474799D03*
X158485999Y-57474799D03*
X161025999Y-57474799D03*
X163565999Y-57474799D03*
X166105999Y-57474799D03*
X168645999Y-57474799D03*
X171185999Y-57474799D03*
X173725999Y-57474799D03*
X176265999Y-57474799D03*
X178805999Y-57474799D03*
X181345999Y-57474799D03*
X183885999Y-57474799D03*
X186425999Y-57474799D03*
G04 #@! TD*
D10*
G04 #@! TO.C,U1*
X186425999Y-38856999D03*
D11*
X183885999Y-38856999D03*
X181345999Y-38856999D03*
X178805999Y-38856999D03*
X176265999Y-38856999D03*
X173725999Y-38856999D03*
X171185999Y-38856999D03*
X168645999Y-38856999D03*
X166105999Y-38856999D03*
X163565999Y-38856999D03*
X161025999Y-38856999D03*
X158485999Y-38856999D03*
X155945999Y-38856999D03*
X153405999Y-38856999D03*
X150865999Y-38856999D03*
X148325999Y-38856999D03*
X145785999Y-38856999D03*
X143245999Y-38856999D03*
X140705999Y-38856999D03*
X138165999Y-38856999D03*
X135625999Y-38856999D03*
X133085999Y-38856999D03*
X130545999Y-38856999D03*
X128005999Y-38856999D03*
X128005999Y-54096999D03*
X130545999Y-54096999D03*
X133085999Y-54096999D03*
X135625999Y-54096999D03*
X138165999Y-54096999D03*
X140705999Y-54096999D03*
X143245999Y-54096999D03*
X145785999Y-54096999D03*
X148325999Y-54096999D03*
X150865999Y-54096999D03*
X153405999Y-54096999D03*
X155945999Y-54096999D03*
X158485999Y-54096999D03*
X161025999Y-54096999D03*
X163565999Y-54096999D03*
X166105999Y-54096999D03*
X168645999Y-54096999D03*
X171185999Y-54096999D03*
X173725999Y-54096999D03*
X176265999Y-54096999D03*
X178805999Y-54096999D03*
X181345999Y-54096999D03*
X183885999Y-54096999D03*
X186425999Y-54096999D03*
G04 #@! TD*
D12*
G04 #@! TO.C,J1*
X156849999Y-61639599D03*
D13*
X158119999Y-61639599D03*
X159389999Y-61639599D03*
X160659999Y-61639599D03*
G04 #@! TD*
M02*
