M48
; DRILL file {KiCad 7.0.0-1.fc37} date Sun 19 Feb 2023 18:59:09 GMT
; FORMAT={-:-/ absolute / inch / decimal}
; #@! TF.CreationDate,2023-02-19T18:59:09+00:00
; #@! TF.GenerationSoftware,Kicad,Pcbnew,7.0.0-1.fc37
; #@! TF.FileFunction,Plated,1,2,PTH
FMAT,2
INCH
; #@! TA.AperFunction,Plated,PTH,ComponentDrill
T1C0.0276
; #@! TA.AperFunction,Plated,PTH,ComponentDrill
T2C0.0315
%
G90
G05
T1
X6.1752Y-2.4268
X6.2252Y-2.4268
X6.2752Y-2.4268
X6.3252Y-2.4268
T2
X5.0396Y-1.5298
X5.0396Y-1.6628
X5.0396Y-2.1298
X5.0396Y-2.2628
X5.1396Y-1.5298
X5.1396Y-1.6628
X5.1396Y-2.1298
X5.1396Y-2.2628
X5.2396Y-1.5298
X5.2396Y-1.6628
X5.2396Y-2.1298
X5.2396Y-2.2628
X5.3396Y-1.5298
X5.3396Y-1.6628
X5.3396Y-2.1298
X5.3396Y-2.2628
X5.4396Y-1.5298
X5.4396Y-1.6628
X5.4396Y-2.1298
X5.4396Y-2.2628
X5.5396Y-1.5298
X5.5396Y-1.6628
X5.5396Y-2.1298
X5.5396Y-2.2628
X5.6396Y-1.5298
X5.6396Y-1.6628
X5.6396Y-2.1298
X5.6396Y-2.2628
X5.7396Y-1.5298
X5.7396Y-1.6628
X5.7396Y-2.1298
X5.7396Y-2.2628
X5.8396Y-1.5298
X5.8396Y-1.6628
X5.8396Y-2.1298
X5.8396Y-2.2628
X5.9396Y-1.5298
X5.9396Y-1.6628
X5.9396Y-2.1298
X5.9396Y-2.2628
X6.0396Y-1.5298
X6.0396Y-1.6628
X6.0396Y-2.1298
X6.0396Y-2.2628
X6.1396Y-1.5298
X6.1396Y-1.6628
X6.1396Y-2.1298
X6.1396Y-2.2628
X6.2396Y-1.5298
X6.2396Y-1.6628
X6.2396Y-2.1298
X6.2396Y-2.2628
X6.3396Y-1.5298
X6.3396Y-1.6628
X6.3396Y-2.1298
X6.3396Y-2.2628
X6.4396Y-1.5298
X6.4396Y-1.6628
X6.4396Y-2.1298
X6.4396Y-2.2628
X6.5396Y-1.5298
X6.5396Y-1.6628
X6.5396Y-2.1298
X6.5396Y-2.2628
X6.6396Y-1.5298
X6.6396Y-1.6628
X6.6396Y-2.1298
X6.6396Y-2.2628
X6.7396Y-1.5298
X6.7396Y-1.6628
X6.7396Y-2.1298
X6.7396Y-2.2628
X6.8396Y-1.5298
X6.8396Y-1.6628
X6.8396Y-2.1298
X6.8396Y-2.2628
X6.9396Y-1.5298
X6.9396Y-1.6628
X6.9396Y-2.1298
X6.9396Y-2.2628
X7.0396Y-1.5298
X7.0396Y-1.6628
X7.0396Y-2.1298
X7.0396Y-2.2628
X7.1396Y-1.5298
X7.1396Y-1.6628
X7.1396Y-2.1298
X7.1396Y-2.2628
X7.2396Y-1.5298
X7.2396Y-1.6628
X7.2396Y-2.1298
X7.2396Y-2.2628
X7.3396Y-1.5298
X7.3396Y-1.6628
X7.3396Y-2.1298
X7.3396Y-2.2628
T0
M30
